<mxfile host="app.diagrams.net" modified="2024-01-17T12:46:30.289Z" agent="Mozilla/5.0 (Macintosh; Intel Mac OS X 10_15_7) AppleWebKit/537.36 (KHTML, like Gecko) Chrome/120.0.0.0 Safari/537.36" etag="FcZdXi8rZcydTzAtTepJ" version="22.1.18" type="device">
  <diagram name="Strona-1" id="llXb_W--Qm-8HZJc7MJ7">
    <mxGraphModel dx="2125" dy="610" grid="1" gridSize="10" guides="1" tooltips="1" connect="1" arrows="1" fold="1" page="1" pageScale="1" pageWidth="1169" pageHeight="827" background="#FFFFFF" math="0" shadow="0">
      <root>
        <mxCell id="0" />
        <mxCell id="1" parent="0" />
        <mxCell id="DUqSxo15HwOK_H77OK0R-65" value="" style="verticalLabelPosition=bottom;verticalAlign=top;html=1;shape=mxgraph.basic.rect;fillColor2=none;strokeWidth=1;size=20;indent=5;dashed=1;fillColor=#d5e8d4;strokeColor=#82b366;" vertex="1" parent="1">
          <mxGeometry x="260" y="80" width="250" height="530" as="geometry" />
        </mxCell>
        <mxCell id="DUqSxo15HwOK_H77OK0R-64" value="" style="verticalLabelPosition=bottom;verticalAlign=top;html=1;shape=mxgraph.basic.rect;fillColor2=none;strokeWidth=1;size=20;indent=5;dashed=1;fillColor=#dae8fc;strokeColor=#6c8ebf;" vertex="1" parent="1">
          <mxGeometry x="510" y="80" width="250" height="530" as="geometry" />
        </mxCell>
        <mxCell id="DUqSxo15HwOK_H77OK0R-10" value="&lt;font style=&quot;font-size: 14px;&quot;&gt;statsd_exporter&lt;/font&gt;" style="text;html=1;strokeColor=none;fillColor=none;align=center;verticalAlign=middle;whiteSpace=wrap;rounded=0;fontColor=#000000;fontFamily=Verdana;fontStyle=1;fontSize=14;" vertex="1" parent="1">
          <mxGeometry x="340.87" y="220.91999999999996" width="130" height="30" as="geometry" />
        </mxCell>
        <mxCell id="DUqSxo15HwOK_H77OK0R-12" value="" style="endArrow=classic;html=1;rounded=0;strokeColor=#4D4D4D;exitX=0;exitY=0.5;exitDx=0;exitDy=0;exitPerimeter=0;entryX=1;entryY=0.5;entryDx=0;entryDy=0;entryPerimeter=0;strokeWidth=2;" edge="1" parent="1" source="DUqSxo15HwOK_H77OK0R-36" target="DUqSxo15HwOK_H77OK0R-43">
          <mxGeometry width="50" height="50" relative="1" as="geometry">
            <mxPoint x="615.87" y="190.92000000000002" as="sourcePoint" />
            <mxPoint x="415.87" y="190.92000000000002" as="targetPoint" />
          </mxGeometry>
        </mxCell>
        <mxCell id="DUqSxo15HwOK_H77OK0R-14" value="&lt;font style=&quot;font-size: 14px;&quot;&gt;Grafana Promtail&lt;/font&gt;" style="text;html=1;strokeColor=none;fillColor=none;align=center;verticalAlign=middle;whiteSpace=wrap;rounded=0;fontColor=#000000;fontFamily=Verdana;fontStyle=1;fontSize=14;" vertex="1" parent="1">
          <mxGeometry x="375.87" y="550" width="60" height="30" as="geometry" />
        </mxCell>
        <mxCell id="DUqSxo15HwOK_H77OK0R-16" value="" style="edgeStyle=elbowEdgeStyle;elbow=horizontal;endArrow=classic;html=1;curved=0;rounded=1;exitX=0.999;exitY=0.69;exitDx=0;exitDy=0;entryX=0;entryY=0.5;entryDx=0;entryDy=0;strokeColor=#4D4D4D;jumpSize=19;strokeWidth=2;targetPerimeterSpacing=1;entryPerimeter=0;exitPerimeter=0;" edge="1" parent="1" source="DUqSxo15HwOK_H77OK0R-28">
          <mxGeometry width="50" height="50" relative="1" as="geometry">
            <mxPoint x="164.44999999999993" y="381.3" as="sourcePoint" />
            <mxPoint x="355.87" y="190.92000000000002" as="targetPoint" />
            <Array as="points">
              <mxPoint x="257.87" y="118.17" />
            </Array>
          </mxGeometry>
        </mxCell>
        <mxCell id="DUqSxo15HwOK_H77OK0R-28" value="" style="shape=image;verticalLabelPosition=bottom;labelBackgroundColor=default;verticalAlign=top;aspect=fixed;imageAspect=0;image=data:image/png,iVBORw0KGgoAAAANSUhEUgAABAAAAAGCCAYAAAB+XbH3AAAAAXNSR0IArs4c6QAAAERlWElmTU0AKgAAAAgAAYdpAAQAAAABAAAAGgAAAAAAA6ABAAMAAAABAAEAAKACAAQAAAABAAAEAKADAAQAAAABAAABggAAAABINphcAABAAElEQVR4AeydCZweRZ3+6z1mAkm4SUC5QVZMQI4Q7mNGRZZDRTSRXXXF/Xsr3uuxq5s34rW63oB4rK4nQnRFDYe6OgGRI5EERFAXBTxAuUGSAHP+v09195s3YSbzvjPvO/MeT32mp/vto7rq29Xd9fzqV9UhOJiACZiACZiACZiACZiACZiACZiACZiACZiACZiACZiACZiACZiACZiACZiACZiACZiACZiACZiACZiACZiACZiACZiACZiACZiACZiACZiACZiACZiACZiACZiACZiACZiACZiACZiACZiACZiACZiACZiACZiACZiACZiACZiACZiACZiACZiACZiACZiACZiACZiACZiACZiACZiACZiACZiACZiACZiACZiACZiACZiACZiACZiACZiACZiACZiACZiACZiACZiACZiACZiACZiACZiACZiACZiACZiACZiACZiACZiACZiACZiACZiACZiACZiACZiACZiACZiACZiACZiACZiACZiACZiACZiACZiACZiACZiACZiACZiACZiACZiACZiACZiACZiACZiACZiACZiACZiACZiACZiACZiACZiACZiACZiACZiACZiACZiACZiACZiACZiACZiACZiACZiACZiACZiACZiACZiACZiACZiACZiACZiACZiACZiACZiACZiACZiACZiACZiACZiACZiACZiACZiACZiACZiACbQngVx7Zsu5MgETMIExCeRG0k1LQ8jNY1rE7xXMsyN6WLg+/b0ghEE2ZIdku3huAiZgAiZgAiZgAiZgAi1HoFzhbbmUO8EmYAImsAkBVLqeaXFCwOe3TEX8owj4R5juZULsS8yP1CLqFW8t+2+SLP80ARMwARMwARMwARMwgaYgUGyKVDgRJmACJjBBAojzvA5FoA+nIl0CX2EomY39X8L+mhC2YMctukLo7g6h0E98/C5omfhyGA7+wHzQRoCxOXqLCZiACZiACZiACZhAaxCwAaA1rpNTaQImMAqBVJQPa1Mm5hHu2/LzSayci3DfThO/d9DE8g7sp3Wz2T4LL4EZCP8ZHDOD7V2sK/BQzBeY2EcGgJlbh3AG2757C9uZYx9wMAETMAETMAETMAETMIHWJED91sEETMAEWo6Anl1o+dhX/w0sPJfFmUy7skEifyZqPS/Frkk7bjqxKq6T9SDbpnUK+i33AVkSHgzhG4eG8BLWydOgpq4D7O9gAiZgAiZgAiZgAiZgAk1DwB4ATXMpnBATMIEaCIwgyNVCP8R87m4hnHB3erCEu0T9AGKdaZjtEu0xsBwXs9+srFhMd0pXsu/gOroFMD/+14n3wP19IeiZObhhTy+ZgAmYgAmYgAmYgAmYQOsQiH1nWye5TqkJmIAJlAlE8Y5A/8afQnhEvvlMAxgAZBzgL4p7GQkk2uPEsn7j4V+e9Ax8wsTB6gJQJL4RBhLcFUPAseznYAImYAImYAImYAImYAItTcAGgJa+fE68CXQ0ATX0h4Uh/JbZL2fxD+GObi9PLE48yAjA0QMaHIBwqv5dkXgU6BwOJmACJmACJmACJmACJtByBNwFoOUumRNsAiYgAqjw4V/QxZ/++QOI9cv4fTSTxDk/41y7TTbkHk9iOGENQwIcHMJD/JRhQOdwMAETMAETMAETMAETMIGWImAPgJa6XE6sCZhAJQHc8yX49e8yPtc3xANNLv71FOfFx4iX8+xO14Kjda4l9TMuKDoHEzABEzABEzABEzABE5gyAjYATBlqn8gETKDeBJalA/LhBbAa4X+D3PVR//U0AMjAMMRnAhWel8z83wRMwARMwARMwARMwARak4ANAK153ZxqEzABCJToBnARI/ULBgMCXJb2aaqnAUBRFx/V/xBOvDGEWVgE9OUBGQYcTMAETMAETMAETMAETKClCNgA0FKXy4k1ARPYlMCcqP1jx/zljNavUO+xTfJ8DWAY74LdmR+nE1xf/3MoWgcTMAETMAETMAETMAETaCgBGwAaiteRm4AJNJpAb9oNYHkIq/AC+BX99RUGk1nd/g/LzYAHprsB1A2pIzIBEzABEzABEzABE5hqAjYATDVxn88ETKDuBPpokS/RSo9r/qXpZ/viJwLreCJ5AWhwgRN+SDcAfXmArgeFOsbvqEzABEzABEzABEzABEyg4QRsAGg4Yp/ABEyg0QTuTQf+Q6BfknYDUIM9PzcbtD1OdOiXwSCbGPA/xImN6u+vaZjPAQ6x397bh3CkYp1vA4AwNDTIyAL7IpPfVQ0l7chNwARMwARMwAQ6hYAHsuqUK+18mkAbE0Ag5niYjVwdwpYo/+vxAngagn09We6SuNf2NPvZXD+1rEniUsfHkK1Mf5bXySKwLdMDIXx+YQivJk55AAyzP4sODSCgS1Fm+wuupT77OI/uHWyot4dHA5LvKE3ABEzABEzABEyg+QjUe7Cs5suhU2QCJtD2BFKlmGf+KELxx1tjAECoz9yCnGd++tpn06CBAiTspSazOctaHJHIRH1qru2a9z8UwtZYCw5PvwawLjUCaH+H+hMYuQ5vC3g/gMHlt+p2kZ1CxgAtL0iMAWUjQbbdcxMwARMwARMwARMwgdEJ2AAwOhevNQETaC0CIyvSFnkE4w/uCeGVCPb76A7wINl4BIV4n34z/xvb/8b8EX5rvo75Y+zTj7rsx3sAx4HwOIp+iP2GNGe7vAPU6hyXNRYABoZskEG3RMOjUYFr8GG4H4fgv4RzXMX1+N/DQljNurIxgGsYbTxLMdIsSQw1rHIwARMwARMwARMwARMYjYANAKNR8ToTMIGWI9CLQFeiUeRXIBD3Qzw+SleAh+mrL83eiBC7HTQiYsdZJtC1DYtcwFNQ+aesDeEDfILxV/Ly4PpehuXmaq71o+W96c6RGgTksRHLQ8U2L5qACZiACZiACZhAxxOgjuRgAiZgAu1PAGGo511uGdOcZHnCme7d4AEw4Th84OgEdJ24UCOpm/9qfP33p7lfXhrdiP68RnfUJNXP+tvZ/4dM38Pwc/UReHWwOoY+Bg+cy/6MGTCg+LL1npuACZiACZiACZhAJxNQhdjBBEzABNqKAGovv5QcLdlE+KUPPIvBJr7aXJzMADCT5d/gxbEbHgDqaoH+T77awFy/C2zLaZwHuXhgELid2Q+5xt/Dte1nB9K9g98x3IzNAMPPYCk5Ll3rmQmYgAmYgAmYgAl0HgEbADrvmjvHJmACJtC0BDIDwBo+uoAP/22I+e2Ya0BGGQA2DXLz11TEEJDHIBA9AxjI4f94uf0AK8GFjBmwKjuoj/3uxYiwiPjYTpQOJmACJmACJmACJtBZBGwA6Kzr7dyagAmYQFMTkNDnxTR8bQi7Iv5/Q9//WSh8ifVR31dayUZt18CMmnfzucCgAW4ewTjAipUsfoP9LuRLAvexrJ1yK/Ag6GE763WMgwmYgAmYgAmYgAl0BAHVnRxMwARMwARMoCkIXIQwX4wwxwAwDxG/hmb/blryJdKrfV/JW0At/HIZkGdA/EwAxgAa/8M32fbFhQwkyLKDCZiACZiACZiACXQcgdFcKjsOgjNsAo0kgODI9yFEmFcrYBqZHMf9RAI5XZtxpryEKfsU0rlGmy9PpWR5zDg4pa/9E7mPumZOygrxvxU7SPwr1MJPHgRyACjKcLAeYwLif5DBBOdsG8KbWH8DXxK4gH4B9A6IloVa4tYhDiZgAiZgAiZgAibQsgRUSXIwARNoAIESovB4JtSFXJOjjpHI5Dczh3oTENsszqUsL+HHsop1mbDM9tG8J3UBLx9YuXHj5XGvWWnj/Z/wS+lbgQGhhy3My0F90rMf9E3PlrN5lqny72zfdp2j+uPlIMNbIdp18yjvVVyiUYnoOHoRxC8GDD9EdPzonh3CGYwTcAaGgDPY4UJ9cYDuAXxUwMEETMAETMAETMAE2puADQDtfX2du2kgoBZiic3eVPing5l9iKTcidh4fx8tk+m2aUhda58SJajP+OUrxXxPkqVNv/s+Uqoyq+wnQ033XK4LLcV5Hopcpqgac+p7jmDUbw1ItxVTHrepIaw56/gUnYSp3MxzTOsRlI9p37S/ehSuEq97UA6uYaB6ImFTNAbpsKoDJ8mvSEVs5UEyHGAwaNvB7GC6lV5QkzQAVCIjyuhRMMy3Ah/dnrEFUPxc9hDuiZexclcvm4AJmIAJmIAJmEB7ErABoD2vq3M1DQRKiAgEWXF+8lWyQB/mrRGJr0X1vQ3X4zmISw1H/qOFDErmFsfxLxDCN4p9WmuLiOgRPvPGqjC8OBHSm43gl4wcvz6EJ9GCrPHgFLbh4P0R4bswJ8o4orxahp+UTtsS/0weiPrEvLw2pNY1y+bdHNclsc8qGQUG5NaR7qfd9HNICj8Nw8Q1zH5Dd2MY2DuEh2htvos47mQa5DgJd2wGcVC6X7P8Jx3Htn6mhxbwm3UsxnPIeyR6kOh3ZWCHAmVJwjaK2D045mbO2cqGAS4YWY8ZjgaAZDHJo9bXIYjXFpQPAUb7hyBumjuYgAmYgAmYgAmYQLsTsAGg3a+w8zclBDJBX0LA3RrCjIdDeDUnfivuzHtIaDyICJyF6EDFncvPhXI3RnHE0c757QABeJQF/0mI2KVowBJzNlXo6hD64MiDa0sGd5uLwD6Y47Zk2pn9DmPageUC34V/MvvswvYupqgo5U6eLUthsl9U7VLulQpb6zcNWpdNOpap/OzU+nTdRodpnYLmnHcPDjhQB+l3dg5lLFoOmCsN8kFn2wMYC26nTK1neR37o+nDb1iW0eBu9r9xJuv/zHZ+y4iwER9+K46cPFGwdETjybzkNPKSYFNrBFT61rpeSjDprmsgPo3XoLBO/1LjkhYdTMAETMAETMAETKCtCZQrsW2dS2fOBBpEQCLrFjRK1n8Y0faPiP9/3TqE+YjQwLJmRQSHWhwHWX8o+7yX/c9G5EnfjNqy26DkNk20EqhLmRCmuTlMcmeHUSb2y4JW3ScAtA/770bij2Zi93AQk1ruZ2EEmCVhr5AKurgs6Jokrpmi8EXkSUBHl3nty7KOUWuwFuOUrtNszFB5njF3YgORjGT7Mlca4vm1ruI8WlQaYjr0g/xsP4NJKxRY9/ea6zjyoPAQeXsMEH+hDN3AbxkKbmO/VYB7hPz+lmXtmvHUMTGwX45jirel5U5ld0mSNkXfFKFCjMtrI7Kqd8KINy9jC5zkmKN/TZP/eufV8ZmACZiACZiACZhAJQEbACppeNkEqiTQh4iSaF2ctr7i2k+jdXgv7stHKgr6GEt7SlTIpTwGfuTWJovvXR3C9w+hJRdjQEcMPqa8r8Dg0ZPkPxP74lMOqefE3yHK8IAP8xD+hzPtzu89BVETy7GVnPVR3WJU0aImxZVNLEZBnTX4a4MGX5QhJobKeWUiKpfTXSc80zmzg7XApPSUV2pdxfm0KIPBCOJ+BHEq8a516aHlw4pw2FYriWxnHuAHa1liVhMHDGFA+D0i/35+/gEwP8eQcA+RXcP8fvYFWdyVWRJKzDhO9ob8Cv4p9BAP++r80xY4+VZKAJPGWKhnYlT+crBRuYkGgJ66Rk+sDiZgAiZgAiZgAibQpARsAGjSC+NkNScBxEgBcZWvaPE/hHVnI/xPlkiRIOW3WnrL4jPLidahOPq3QstiCPg0649XPBI40y22sjTWc658waoIG7IXBnsTo0j5FD/HhZ+Wbgn+49j3ILwlDme+C14S+txeVGeZsJWfO9Og1lcEcRP2jVjrZJvsVz5krPXlHRq4MM65lWwF5UmhsEk+4uGsG8ZAoDIWoWZzfoqDBigsYCD4O/1g3yN5wJ8hhpRLCf+/YXC6jvW3UQ6xWYXfMP/j4YlhQGJYUwwl4mLf4j3MuX5DPVNoEKhojd9BVjTS+zj5xNkj5pHZ5ANxqowMUHCiAWDZ5KN0DCZgAiZgAiZgAibQEgRsAGiJy+RENgOBmxHuCAd5lg/Rgr8HauldLL9mG/7R4i9RppbF7BvkYyW5G8UxwDHHIY7fsiCET0gks7N0WjuEnITjbYmQFatyvq6lTzeCf39ao4+FVQ/bDuL3zlJ2EmRZ03TqPcGauFqbNCmUW/CTn6P/J+62CJvkIzJgneZxkEJlMgPDPHoPSME/ltg/su4HsbUboTsTo8BMxPzzZC3RhUkvzh+4XrcR7zVMv8Z4sIa47jiQvvGlUQwCMuYglgcrtxFVXcO9SfoV5ywGz5Tqn6n+DORNSZZtY9LvrZTbAIUzGgBu2XBOoncwARMwARMwARMwgfYlkNUf2zeHzpkJTJIAwkitsdJWI32MIE8L/ltZfgsiflvEqloSJUzkoV5t0OjweYSwPhv39INDuJV4W/LTgOR9o778vZu08tPM/FSgHM30bBgewbSHDCaCmbbqE0W5u4SEHbuUdS2LDnUiIM6a1LVA+MW6IOOLCq6gayXl+TGW/8Li9cx/xbormP8WTxWt2yj0EYfE+qIkXhkaFP+kA5FEjxgMRvuSyOcR4XOZjsIYoMEdo6GImZwDZAzgtLWVFw7QFxryRHAvBoCnHEG2s3MSl4MJmIAJmIAJmIAJtDUBVZ4cTMAExiCAMCiP1E9L/YsRRGcjYPdSiyTiQXpErdL5CSifgdn0/6crwI8QVydKgCxlKiU6bIzUNM9q0quGZD0/1N1B2jEGeUmsY6BD1p3C9Ez2O3AW7tvaGV4RGDsP6Jg0jhgPv+ujHmMq/G8sAuKsAPtsJiGt66cynGf8gIIsAzIKaKWMNFw3egLEgQV/xj6rOOAaRPPdrNsopNczt4K1PZPsMkBc0QiQnQAvhQNIuwwBpzE/lHsnMyBpF+VBISuTya+x/w/NYF/ydhs38P5HMWDipucb+1BvMQETMAETMAETMIHWJpDVB1s7F069CdSZQKUgoBX7MG6UDyNke6U01Bc9PZ200oQD5xhCyBQQzK/DCPBZief5iUaecJyNPLCEQFyEwQM1ONy7gYE+YL8l644kP2qtPQUo+8xkIWWlJmeJ/WgkgKOeORJqDs1HQN0GdJ2YxSARXsAooC8TlPupYPxay3rsYeE6pp9yMX/FZxnuZLkciCCPW32RfUfo5jLI/lmc5X3GW7iIc8+hvPRWlDUdQ/ebQ0nkC1g8jbK2H90SomGJ+1JpV7FT+RqzjJGQIcpnga4SNx7CgJOkTV4RzGpPI8c4mIAJmIAJmIAJmEBLEVClx8EETKCCAAIhtj720XKNu/8nUBKvkcigs7BGRlcYU1wkm6v+P4iwKtLC+jDTQUfS95pzNl1XAAkxDBOa5PEQg9hgvDiWH6fD5Nm0qO4t0a9+/AgxECaiim363rqwpehYcmglArqWlVOewq+BAaNBQAWCa/4QO/yCC/wTfPKvZjDH1b0YCSozKePWPQh01mfGs8rNm13Oys8Kzlt5vOKkrD0T9f5Czn0iBrpddGOuY2JdP8ep685o9+og+xbZ7yoMbyrDDiZgAiZgAiZgAibQMQSoHzmYgAmMRQDX45/R9/iYh9AV3CyzpITqHPrpUtCNaLoYMfL8VOxILTfgVFWnPFdCsB+P4OpBtJGW2HofCLS+HseP01k8ETfx/ST6EWEaeE6t/OO2vrKrQ+sTUNnUtda8iBErGgT0MpHqR3zfxowu/OFHqO+rNcYFy+XQxzE9HLuUaQlTrWVdx9/LORdXGKSuDGEO4xmciAHiDE50AvesjANZuVT5ZVPZEDWAYU/dby7DO+FkMrFRdwP2czABEzABEzABEzCBtiWgOpuDCZjAJgTU6o3AGMIA8CQ23YzY3Q5BIVfmSbn9b3Ia/UR/xK4ARTwM/mlhCF/jnF0YA3AKmNpAQiSS8stIk/Kenf1qBkoj04vYuAhBdzCtpzFxGgeBoEZgPUfExc8TIHRK0MWmzMTyy/KQyg/zLrxB4hgCshDgHaBiciPTj1Hhl1O+V7JP2QuAYzRmQGylvwIjUqnC2MQxmw26R+cz3cy5K8vrKgae5BwyUp3Bfft0pUeJ4KQq0+rmMIiBYAuMbhdxn70oTbeMBA4mYAImYAImYAIm0PYEqCc5mIAJjEYgE+J0dn4VovdztBhKuEis1Pu+GaIVtYDivw8VcsBhIfw1M0CMlq56r9O5ZiPgT04a82P0NN9ujeA/iYy+jBUn4KWgrgpqUZXiEwdmkYWMBg4mkBEoj/dAwchrkgCnfEfXfArO/7GorgKXYzH62dNDeDA7kAKVu4VdNW5ALQYwHbciKYuhNymbMcoS5z41hGex/SWU41O5h7fTBlz/+ynv3dzPX+A8r+qjbFceFw/2PxMwARMwARMwARNoUwLUixxMwARGI4BwqPwCwKWIhpNopZcOlp6pdxjYmnhplfwWraT/IFG+iNZQblCS0Zig/CG4irSiqhU/hjWMRUAz6UvY9iLcpHfVAwKhlIl+/ZTg93MDCA7jEoju/ZQltbprWZ8dzDHFmwghfhfrforR6xJuqp8dVTGQoMo/5bKwDEFfqsErgPOobMogkO+tMAbcwPgAlOtFnOsfKcAL9mT7HSGcQxeAszhGX/KQUcvBBEzABEzABEzABNqegCpLDiZgAmMQ+AWiXK2RzPfhZrmB5v/ZKAW5C0sI1zOgQ/BLRrzQ1eAFCJP/uZlWykpxXo+TSSAhqvJzmGcCCRf/LWmlPZ1tL+Ucz8I9WiOkq7U/a+m3e3894DsOEZAbvroLyBhQ0GCCsqhhDLif2VVMy7mxLmV0/rtYjkHGAJXXK7jvliSGBA6vLuj+xWg3kpV1Dsyz7kiOfgv385Xc259W/JVdCKqL2XuZgAmYgAmYgAmYQGsSoA7kYAImsDkCmRBHOJxFq/inERQSxhLF9QwSNY8hxLfEAPAwhoaDDq7jVwFSjwINdlZu6VwZwm6IrTM575kzGcVfFo31TFg35BGgZ0MjPB2I1qGTCahgqbAzDVLmZAzooq9+7Cog6wBl8GH2uZLp23ifXHZcCPdmvErsdyqC/TaKaS2ivY/7dS7HVhrUZByQcS+L23MTMAETMAETMAET6AQCqos5mIAJjE8g6hZEw09mh/AMhEk/K7olZOoQJLiLsxAoUiP8uIq4X4UXwK8n2zqp4xE9G33C7zpaQDEwvIpTLaLbwSwMDjqn+m5Lf8kOwGYHE5gyArqNVPY0L2BZy6ubgH7gGfAQ98KPmC5i/U8rxwyQgMeDIDcPEc927T5u0P2wN/Fzb2lAz6qOGTdS72ACJmACJmACJmACLUSAOpCDCZjAeARQCvqmuL4KsB/73oAYmYFYH2LdZMSyRM8wwj+2tGNUuIb4PkKr5MVKD+csj0Gg37WEEscuwqiQtXimwuc5xPFaTvZszhnwZJDqkkeARL+eBZocTGA6CcRxA/BCieKcslpQWeW3yqu6BVzKhotmhnBFVrb5HQcPXEZZLiW7stvmg47RHvyL59n83t5qAiZgAiZgAiZgAu1DwBX+9rmWzkmDCfQhqHsRGRgB3sao+P/JgH1qsFdXgJruI3aOre2IG7Vghr9hUGDdh2mVvDDNQg7Bru+cy0BQUyhx3PFMSqcOJK0zifvFqJzXca6DZGngfAryOtBPNjuYQNMSkEDXfaYuAkXdL/qkH14rv2J2CZM+5beaeQzsrIEDA8avhg6gmZ7OMxMwARMwARMwARNoOQKu/LfcJXOCp4sA4qLcIo+wvnJ2CMfSai9xIiFdTVBD5hAuA11q1USI38MNeDbz83tTwX4z3Qrm1eDSnJ20D3HUQ2sm8UWjwc/45Blu1K9k+2tI515SUfSt1vZM+Oe1zsEEmp0AZTZrpte9pmLbjQdAdL3h/tM99XOmr7PhfzAG3MdyDH2JcS70cE8Qh4t7ysUzEzABEzABEzCBziagupWDCZhAlQQk0OV6fH0IdEcOq7iBNA6AWvTlRr+5EIU3gwjmcGVWt/tzUOofOjwZ/Vwt9V14AEioSNBUHSRyFCfCR+Io3BjCXBbUv/8s+vfP1Wj+6t/PLHZXqCKd7OpgAk1NIJZnUqhBLYsyBujm4756iNn3WPfVQ+giwDwaw1TmL+P+OikxrNV0fxGfgwmYgAmYgAmYgAm0FQHqSA4mYAK1EMA9vxv3fBkB/hXx/QG6AmhAMXUFGC1EsUKLf5cUOmKcw8MSBPtvtDPiRMfV3EJZQtTg5lzu448B4UnE9QbS8ertQtiBllGdS+ly/35YOLQtAYp9NHCNcCNpIM1oXcPw9UsWv4ZrzncODOH2LPeph43uCxsCMiiem4AJmIAJmIAJdBQB6kEOJmACtRBAcajlUcJDLffXIjoOX5e0LnbFlUlkWhxElHTNZoGmyZtY8a6FDGKmzRNt8ScO3bMakDD28b82hJ3oUvBGfr9q2xB2xM1fwp+/aFgYzyuB3RxMoD0IcA/IEyca4/AKyMuyhnGOHjbhEtZ/DaPb5ezDYgh93B/3sowRzWMFCIiDCZiACZiACZhAxxCgPuRgAiZQKwEJiF7EBl4AC1AUv9CNxFytihLdauzvwjtAbslokPB+pk/JTZ998hxT0DLrqg64DRTmIP51Th20JoRtieBtnOy1uPrvkLr6S/jr/NI+DibQcQTS+5DbLN5fOTwAuvRJwfRTlzex+N+s+zpeAfdkcNhZ90t5/IxsvecmYAImYAImYAIm0I4EVF9yMAETmACBvtQIsCqEEq3vS1D6GqBcfZKjuz9K/Wu0zr/7oBDuVPRpq79aKCVQqgrsmKP/cvfJiYYJN4cwGzHzaiwN71Aff7X4c55oFGDRwr8qqt6pgwgM6mbjnivKENDNhEvAw/y+kHvzv7g3V2YsuLe6sQoM9264n7JNnpuACZiACZiACZhA2xCgHuRgAiYwEQIX0SrPWABDCIz86hCuwwhwqFoaEeU3cWO9g0H9Lle8ExH+mx6nc+0Twis417s4z56pq7+8CNAxsdVfhziYgAmMTkB2AHnoxLEC1C1H42RgOfsRG768YwgX7xWCHGni/YrnzogNAaLhYAImYAImYAIm0G4EbABotyvq/EwpAbUazqfPPSL/GITExdxQn7othA/KMNBHq6P6GWu5lkRJ7C/iAOKKx+Fh8EL8+t+DaDlQih+V4j7+tQD1viZQQYD7Ko4VwKpuvGiiVQBjwG9Z/DLTV+me8xfmGq0z3ocsepwAAXEwARMwARMwARNoCwI2ALTFZXQmmoEARoAdEQ/3KS2ZYaCWdGFAKKyo6OcvowI36AdwXT5ONyqt/nL1Z7dAN2YHEzCBiRJIX3yZIaCwJfee+s/Q8v8AN9gFLJ6/MIRfZfFzL3Zh2Buu1ZiXHe+5CZiACZiACZiACTQLARsAmuVKOB0tTQDREL8MkLUacmNV3epfwoX/MATGyWk/fwYJfArxlRAkL54BFYS/hIrik0bxPQsEBxOoI4GR9P7SoIGFmUSsTwew7mI8bz5DV56fZueSYW8e92It93d2rOcmYAImYAImYAIm0AwELCaa4So4DW1BoISQZ1I/46qDWhbxGohfBLgqhK0Q/O9EdLx9mxBmPJS09kv4q5+/79WqqXpHE5gQAX0JQMYAufwX9RUP3ZgY4K7kBvw0g3x+rzcdIFCGgGUsl2q83yeUKh9kAiZgAiZgAiZgAnUkYFFRR5iOygSqJYDIyK9gygQFhoCXcewSBvjbCzdkNfern78GLXcwAROYBgK8HPu5T2UIyMuqty6EG5mdz6RxArALRAudvHJkMKjJ8KdjHUzABEzABEzABExgOgjYADAd1H3OjiUg4Y+LfyFr9V8ZwkJaFz+G2/GxaurXAH/sU8ALoMDcwQRMYJoI6OXIPajbUI4A+rxnXutQ/new8nysc59/eggPsioOGDgHL53epKuOb11BcTABEzABEzABE2hKAjYANOVlcaLakYDchvXFAOXt6hC2R0AsQei/kQHI1Lqofv7R9bgd8+48mUArE+BFmY3DUaCbTp6BOQNdAu7lnj2X6XOHhfBX5U9dejTPDHxadjABEzABEzABEzCBZiJgA0AzXQ2npS0JlBAMDBxWXJyKfz7r98/ceB/A3X9n+vkraHR/9/OPKPzPBJqagFr34zgBGPCKs/jBPYwtIHYNOA/h/0el3l8NEAUHEzABEzABEzCBZiRgA0AzXhWnqW0I9CESetOBw1aHcCBu/h/j2+PPlBvA44lBQC2Gvg/b5oo7Ix1EQP3+B7mBuzNDANaBL2PJ++QhIfxBHHT/9ySePR4jQEAcTMAETMAETMAEpp2Ahce0XwInoB0JpBV/jSo+dGsyov/7yOfbGFCswCB/+oyY3P27EAwOJmACrU1AHjzDMgSoOw+fEFzL7Et0FfjPA0L4k7LGfV5YkYwRoH0dTMAETMAETMAETGDaCNgAMG3ofeI2JZCjr39X1tefVv9nUfk/j1b/fdNvi8cBxci77702LQDOVscSiOKezwJowEAZAtZzk38Or59PMEZANASoawAGwJHe1CuoY0k54yZgAiZgAiZgAtNGwCJk2tD7xO1GQK18yhM31dCaELal4v8hWgFfw0B/4dF0JPFks/ZyMAETaEcC3P/D+PsPyxCAx4/GCJBHwLk8Bz5N14C7lGcNCMq4IAPsaycgAXEwARMwARMwAROYMgI2AEwZap+ojQnkaNkrZiN/M8jfC7mxPs4gf7tR+VcFX1/40/fCHUzABDqHgO79AW78bhkC+F7g/TwXzucLAh/HQ+gBYWAHPRfUJciGAAFxMAETMAETMAETaDgBGwAajtgnaGcCfVTgr6C1r8R0bQg70Q/4k/QDPkMjfj3GIH/cYKrg5127b+dS4LyZwOgE9ILlWSCBP1QxRsA9/P4Yg4B+5qjoHJR8NWBBsp8HCxwdpdeagAmYgAmYgAnUiYDqJw4mYAITIHApg/udHAfzD4G+/i+lmf+T24SwPX18owswN5db/SfA1YeYQJsSiGMEYAgopoMF3sEz4oN0C/gy87hNXQPwDtA4IbYZtmkhcLZMwARMwARMYLoJ2AAw3VfA5285AtTM8yuYeqm0/zyEufTz/wwuvotp8VfN3YP8tdwVdYJNYEoJDPMMGaYrQJEpPMyQADT7n81AgRcqFRcxlsgcfzFgSi+IT2YCJmACJmACnUTABoBOutrO66QJaBTvir7+L+AGOoe+/jvT118teLqf4kCAkz6RIzABE2hbAnpQpF0DhmfxTFFG14VwFQMFLsUj4H/1uw8DQQ+7sa+7BQiIgwmYgAmYgAmYQF0IqB7iYAImMA6Byla5G0OYhdr/NC3//yw/Xfry8he6mXw/jcPRm03ABJ5AoJ81xdl4FelBwo/vofiXHB4Cj5qyIWCEh4sGE3UwARMwARMwARMwgUkRsGCZFD4f3AkE0n65qqQHRvg/gZvmC/T134PvfLuvfycUAOfRBBpMgGeKugVI4HfpiwH6biC/z8Mj4APZpwM15shJycCisjs6mIAJmIAJmIAJmMCECNgAMCFsPqhTCGTinxp37voQPkqr/9t009Df3339O6UQOJ8mMHUEJO7jZ0PpWhToWvQQKz7EwyZ+MSB9DpU/OTp1yfKZTMAETMAETMAE2oWADQDtciWdj7oSkMv/Ihrh1DK3MoT5tMR9hQr5AirksYLO+qIWHEzABEygAQT07OnnMyIzGCNAAwXeyux9fCrw6zpXn8cHEAYHEzABEzABEzCBCRCwAWAC0HxIexOoHOiPVv9XIvTP1UBdDNIV++py0+Qt/tu7DDh3JjDdBPRy5jmjwUVH+Gxgl34/GsIVzN6FIeBa5tpeXMZssccHEA4HEzABEzABEzCBKgioTuFgAiYAASrTeQR/QaP8XxXCVrj7f47+uP9ApVs+uXL5j6N1G5YJmIAJTCGBEZ5NQ7ys8xgi40CBWAW+iHdA6aAQ7lQ6ND7AyclgpFOYLJ/KBEzABEzABEygFQnYANCKV81prjsBKtgFboY4yvbqEI5jFO6vaqA/XG/VAkcPgDjV/byO0ARMwASqJMBjaqPxAXg8hbNvC+GT8gDQM2wFY5X0Js+sKqP0biZgAiZgAiZgAp1GQMLGwQQ6moBc/jPxz/K/c1NcgcutxH90+QeO75OOLiHOvAk0BQEZ7Gn4j4MD9uOOtA1Gyv/cO4TVq0I4Wc8wiX89zzAGaF8HEzABEzABEzABE3gCAVcSnoDEKzqFAJXkPP1ni7Se9V8dwvZUqL9OhfqkRwDAtgFuDlWkHUzABEygqQjoxc2zKY4PMJPnlFyXHg/h28zfcXgItyuxMgQwVsAg+/oxJiAOJmACJmACJmACkYANAC4IHUmgLxlFW/1qR6goHwOEb24dwm5/S/r6q8W/0JFgnGkTMIFWIiBxL0NAkfFKchgvH2XF+9eG8JFe1utrJngI5DWuSStlymk1ARMwARMwARNoHAEbABrH1jE3KQG1jGUVYgb9ezNK/xPyq30scfnvbtJkO1kmYAImMBaBaAjActmFITPwudKbWfGOhXF8QH6E0D0/eb6NdbzXm4AJmIAJmIAJdAgBGwA65EI7m5FADvFflPjH5X9LlP5XqCwvSl3+5SpbVC3awQRMwARakQDPsGGeYYN8LaA77RbwDYyb7zowhD8rP30843oTj4FWzJ7TbAImYAImYAImUAcCNgDUAaKjaH4CcoWdk46QjRHgEFL8LcT/vhrln5sgx1Sw+G/+6+gUNo6AXgYV90DFYhSVlb9jIrL9Nd80sHN5dbaQRcDvbLF8WLZC+2bL2cb0eHXLiYvpPpXL2a6ebyCgAUzlDZCjWxN/4T0YPj+jzX0YAXrADMD41ROtczABEzABEzABE+gcArES1TnZdU47kUClyz/LL4PBfzFwVmF94hLL2H8bxEon8nGeO4tA9tBPhbZmmiQG+fplvBe0S7Zbni4y+Tj0PCsVpMQrp7iSf2l85bnWZ+uyfbJIs7nWZ8vaVwnIpuxYzdWBnXncpN8co2UF/VRyNGaHDHlakc351dFBjIa4dl087wLGzmtg86bDQuCjAbFvwIyT49iB+uVgAiZgAiZgAibQKQSyulen5Nf57DAClX1f6e//UVxj3/4oDBg1K7r8dxgOZ7eDCUg0owhHUMuDEsmgkGjO8zu3BQuZyM9eClLWEt7cL5o9rONZp2W1KN/P9Bd+P8g8CnKWNajmIOcYJM5+fquVWSKUAepDnmWNr8EsFFkpw5s+v1lgkoDXjt0sP5nj5vJzG5alW5VG7bctn+aMBzGLgf1i0Ah4jN+RWQR0Pq0aYXuBiPPMOTxOzDoy6LoNM0hgEaOnDCQfAXBpNy5tH+vuZdViewN0ZMFwpk3ABEzABDqTgCpGDibQlgQy8b8G8UDz5kV84u8EWsEkEKgDe5T/trzozpREt8SvgmZxGSFcjEqaFRL7ClLlUsr4iqv1//+Y7uMAaemb2f8WbpQh5mvZ5zaOvYOdRhDhw+z/OJ+Xe1TnYd+6B923WBVmbIfeX4twJ71bcu59mJ7MyWZy3hmka3/S9xR+yy4wh4Q8ZQb3tIwYsjKwPeaPtMYbnmOjCOZn9A7QPJ2YdYxxIH7adFsyDN/fAeCtXMcfCECll5R+O5iACZiACZiACbQvAVWCHEygrQggBvIrmHrRN+rvz+9vI/73otmynwKvgf6kDxxMoB0IUJzDkP6lD3O1qOckgiWGVdA1YfhSQPeFPzGtYv+HmVay7Vbm/TTr//6o2Niv3aoLJaI+fpN7qYdD8bRJk7L5eBCfIysqdunhNwei1WsLN4YwC6G/Fy4FXRgFdiOCo4mHBu/wNKZ5LM/EODCbqdzPQYYPuTKQd/4SfsyVcP4iMs3bKihDZFYG0EGsJt3KONaer8LuLVz7B/hdfm62VcadGRMwARMwARMwgY0ItF0lZ6Pc+UfHEehD9/QmDZsSIi+mUvtVKrt53Jip58bGwY5j4gy3B4FUwKlFfxjhLjd+afsCYj8vf3q18KuQq2Wfbb9nupMdrkLx3cbyr9l2E6L30ez+YLdRg+JdkcQ96vaeRDSzWxTsm+6j9dWGjd4/6YG5ZYhwDdi5uUiugEEpEbOb2y3IOIBBYBviPpxpJ3Y+nIifyvLu8NpF3GQYkEEg9YaQQlb3IAllhWhHUWLS9MWVbfBP9o+iBgl8JIR7YPTGw0K4UPmSB8Y87CPkuc2y3AZXzVkwARMwARMwgToQUL3GwQTagkClGyvLH6YD8TtTN2f392+LK9zRmZA+lSiVm3sBo1YU/CrfGLfUwH8T0y9RbNdpmfW/OyYEtN0TQ18iaoP6fmvrIuZLmS9Jf6cvhbjtiUc3xxoSV353kfYcaQ8yHCh1Mh7Q/J/T5z7HSu1qdgPonhgB9mefQ5j2I86nE8FcRHEMckVQn/nUIDDEvMh2GV3ieeJOrf1P13gQA1KXjCAUlmUweesRfDJQfFdQxHoTu0hr59KpNwETMAETMAET2IhAu1RkNsqUf3QegUz891FJn01L1vYhnI6/s+rwCmocdTCBViEgYaaW/tifn4d0UYJfbv1q4UeU0jU+3Mj2K5ivpo/8ygMS135+bgglxOqplH26v+T/zL3Qk94PxKf4OyKQUb3jcngDFe6Bw0mJoB0ejQEt39tjONHYAvM4Tt0IDmC+P8aEgjwFNDiCDC48VDTYoRhWGgN0npYLSjT5jc9JxgYoYEl6kHXvXBDCF5QZPVdZlgFV+XUwARMwARMwARNoAwItWWlpA+7OQv0I5Ki4d81HG10bwq60jl6M4FlARVatfxL+qqQ7mEBTE+BBrBH6JUwVJDhjP34VYA25T1iDAlvB/Mesu4Um6z9oZWVge/GWtLxzTwwtSuKzcKuExDJAYus2nhMFLCkjezON5i1wEdvZti/XZAHHHM10JMv7YWDcQtdJDxgZZHTd2BavHev11YFWfOaQ7NBPuZuhQSLhcjn5ev1Cuo/wU8zk/SAvFAcTMAETMAETMIEWJ6B6jIMJtCSBEhVttXCq8r4mhIVUWJfPwoWXyqvq5Wq0c/luySvb/olWwZTiIqivtQRkN27YUfRLWNLafDezX7DtcuZX0gr7S+YbBQnUOWkZlzv/4rQld6Od/KMqAvDPr6gQ7j0bWvnLx7NPDiPjHnhi0LsiPJPfhzPfj2dOTopfDx08BFhd7nrQis8gifwcRo7COrLDM/XtGAHOYV24FOMAHhQaSFV5dDABEzABEzABE2hRAqqHOphAyxGgBppfSqpLiCfcVBfx+wLcpAsIJ9XD5S3tYAJNSYCHrgS/BvFTX/7Ynx+3fonHO5n9hGk5Ptk/RV3eX5mBPlphJfQXJQIsdg+o3N5uy/DR+0namsVEdLJCyw0P6bl1HqVBHgO53k1awPu4HnQP0LgBRyKUT2S+kNbzndWCLiMOAlqhn7jybMM5qaXCAJ4mXRgCNMDED8nD6zAEaDBJXQ99SjF2G2ipHDmxJmACJmACJmACkQDvcQcTaC0CVEL1qbNYAV0Vwr8x2N/7VeGm6UqtqV1sdzCBZiMQR++nfI6gBIu0Gkd/akTiH1h3OWX2B1iurjmKz7FlCVcL/3ymeUlrdEcJLnhIZI56K2sbjNRir3noYb9lzGUYWcp8SXrcWMezy4QD587TzaJ4D0ac3k0MAhpYkIhlDHgW814EtMYPiMYAGXg4NrausygRrRDTnyw25X+yEoboUtVFNxQcq8JbK8cGkOdVU6baiTIBEzABEzABE9gsgWavgGw28d7YeQQQRd2Lk1Z+DVD1eUbsfmXaRzqO9E8l28EEmoIAD9dyv34UXxzITw9clNRDlNPLWHcBCuqKI8rd/EOQ6KfVVfsO9W4iMJsiU1OQCNhE8f+bELai9XlvWtTvp7/+33bASeIpVbqgKw6MAnkUefkd15MYCEZKXJd6ZINzRGOA4sJII+Mjq5LAs6kLA8BBWG1O5WTP5lofzrMqJwsAXkrZwHvyBJF3ALs2byB9j2O0mkEXFX0p4Puk+dWHhfBXpX0FU2+HltPmvWJOmQmYgAmYgAlsngDvdgcTaA0Cl1IJPZnK6O0MwoVvtAb7OxGBkLWqNXUlujUIO5WTJaAHKsJIA8INMO9GyOfUERwjlVpL+1h/AdMlhwR9hS8JmZDSr56ktZ9VnRskntW6TIv6swDxYyYcJfS1w/BgNsHwHtbfzfxO5ncisP8M4PsxntyH18QDm6On+HVdtA9GgsFSHQwCxJE/nklx9iTXfyMjw8oQ5rPxJDafxokPJZ0ztIOMARgJVDbIRuhiW04LTRjUZSWHEaOAEeBBljVA4AVKZ/ZcbsI0O0kmYAImYAImYAKjEIiVoFHWe5UJNBWBmxFTVOz7EQVzqDD/aDta1x5KPAFacaCtpmLrxNSNgDTdIEKvW67fGowC1XorYum7PGi/jqi9KTuTWvoX8WMpwm8JE9vZzUEEMgPAqhBeMCuEb0v50wId1bWsfNnEYuwHJOhS0PDWrvcw/YXpjwD9HdfiVi2zzx0w/ivXYD2/NwrsN2Z3g412rP5HJuI1dsATWsh5hs0jPSdz3ueQpiP5/F6XrJh4hiio2FRmMa5skn8qo4M8cLs0zgGGgAu4Pmc9DcMLG4qU5eFSHYwpTZJXJ8METMAETMAE2pYA9Q8HE2huAhWC4KkU2MtphdqTFlVVlD3YX3Nfuk5InUSRNOgIhbE4kwUMU3LtvpjFr1Jef5yJTtZFl/FldWp1Jv62DJmx7/oQzkRgfhlhLH0vG0DkzFzMNemfXOj1HsujmqO3RWYR1EodsI4Jo+Ej/Ja3wG0YBW5mfgPTr7lm/3dgsot2Z1VjAhEXbmGanzy3yifh2XYA6Xke6TyNDC7AMyBaMRgQUmVohG0yJihtmqY9pJCGBAojbIGyLmPLKynjlyhx2bNayw4mYAImYAImYALNSaApKhXNicapmm4CJSr1p1LJpHIpd+DjqCR/D4G1Lc18j1MBnTHd6fP5O5oAmjLqS/XXz0md0iIqMfRVWnO/ekQI6L0kSBTdxj60+G/UTzzbXsM818f9cC/CcHHS+F3Doa2za2YAgNub6ObzSXXz4UVVlOhUqHxpZetYrUXpfU3ZaonnPCK6oOujSU3rOh6BHX/zLHnVghC+kJ2T1Q0NpCeHYSOWmU2MAVp/OIl/Eek7jTK1p9KqLgKUp6ysaRXZaYogxv08hGeIJ+n8NGX8rSqXKu8wHWK9roWDCZiACZiACZhAkxFQncihDQlQOyuPlN+K2StR0T2eSeKfCqU+83eRmvvXJy1oFv+teFFbPM0SOpRDCRsJ0hkYowpqmkZErmb951Bp30L4xzEp+a3dJdjk3q/dJhyIK7Ye49teHnle8RMvs/YL8Iz5In/bZhnM5spt5XJF7jPeYl4OYsT+w1yAYbkMKbBO+w5z/bp4nsTo/pCsi9sb+U/pIf5YHliQmNekMjKEaL6W5Wv7Qng3v5/F8pko6Gfj8bQV8wJpVZDxU3mc7nc3SQwzEP66Fwp0Y3jj3nz5YFUIL+OZvUYJlSFAz28tO5iACZiACZiACTQPgemuRDQPiTZKyUVUyFShpKKoSpr+sdg6oUSleElSKR6kEvla+puepz6yVOBVmbTbf+tcyrZJKfeQXLIHUV7q3y/XZ7mWX4bo/+xhfMIvy2gfwqyHffktUadiO6FQ4h6YR1xziCuNR63AElU0ioeZrPsL6WlLI8AjG55X25DHyQZQxeegugpsFDA06EI9oJVzk2u20fZG/yA9Kiea9IAuf7WgN2n4X87q5Xg+7QGPF7Lviyh7C2cjuil3ehD2c4ye8xsZPBTXVAbOrzrECPfDAAaVAzBSrMaTQZ8L/ITE/6Wk9+TE4WIqk+VzmYAJmIAJmIAJbIaADQCbgdOKm6gUqqI7RBPMtsylU1S51LpY0Wz2PMl4sZj0l0gorUn/NiuE91OpVOKHaCrrIi8OJjCVBKJIo+wVEf7d3FD9uKR/XcL/8KjHk6TIhRzBLhf/CYl+ynVuKdOSRAgG3QPEHButJfqJ9zj2eSbrFrGMxgrPZa7W7Za5txNS4//viY+suF/0ABAb8lrvkBdg4kVfT3/QtSQV0cij/HKBizKE8LWIP7D+Y5p4HvZQ/l7C8gu25fmubgwYMWL5ZFGGgAZgItbxg84rb4oBPaO5Tz5O+k/ASPEqPGL+3EderiCdpRZ5B42fXe9hAiZgAiZgAq1NYLoqDK1NrUlTLxEyH9FAq9GR1Aq/z8X9CC0xH1VyVQnrnaA4marsUvEtkuYooKjsfhzX17espdJIXjQYVoHtDiYwVQRiOcRCGgf2w69fQvFLqKxzD05Glo/puJQWzpUIn9IExY0MXosS4aaWfom5GBD9O1LeT2DdKaw4HreXXTW4nVQeaVEj8IG0sP6+rwXua9JaUyDf0agBg/+ZFcLzeQao24WyXrdAfFFxMzsCjtc1K0cYxE8Wzk+NQQLAuicxk1fAK+gL9XSVCxUICk9mfJoWY0DKVEaMYZ7dXZTTB3luvxIjxndY5y4BguBgAiZgAiZgAk1AwB4ATXAR6pGETPzT8nIsFcHLqDjPYv4Rfj8JI8Bbe6kcqjJJZbcp+2QqbVQgY9pY/jItXGc+mFT81axl8V+PQuI4qiEQyyDCqkt9TVD99yNkPs/iZ7h3/qIIJFC5rwrLKZ8nT9C9WeX9NoQ/Lf2xlV/xsm4b7tnjKO9q5T+Re3gu87iDdmIa4NxDs7m3EXzPZtVnmdoqkD9lmVkMPAYa0qyt7hkaILCfi83lDeHeDefUz6YJ2fNahqK9KXcqc2k5/AyJ/Axl5tn0w38ly8/dCgOwygmeATIEUJRC9kEEFhsf0osm40MeqP2cfDumb5PGT/MOegvMY5eAk9jGcnaNG58wn8EETMAETMAETGAjAqpsObQ4ASpYUdgjSp5BreoyxIsqghosqosOw3lclpdRATuDiz2cGQqaKcuks7Ll/9vb4+KK+FcldlpaspqJjdMyZQTUcjmke4cR2NV3Rn3sP8f4E+cfEMLdSkUf5bQnEVYSkGyuLXBAdO1G+A+nLv6xVZT1PcR3GrGdPDOEPaXacKeW4FfLt85DQ2oUxvwM/bSudnNPX7aQ/fmtHdpmLIDKvPA8WwX/Q3Fz17WppwfACJHliHQdYP/ukBDu4rwt0ZVCfGCRW0F6eze0+KtPyNNY/3K2v5jy8WSp/7UJt8wQwJopD7pu8XOBPM9Xk/CX8B76tVhrPb+VNgcTMAETMAETMIEpJqDKhEOLElBlkIpfUa1EK0P4e2pVy2m1LKilkAur/vL8hUGMAF0ImmuobT2Hfsv3ZwaDZsh2lha1cO1F+rcjH6RVrbDSQQ4m0GgCGtxvGOEfXf0pe3dywnOYvsh9dZ9OLqPZPO6jiQgW3aNEMZpgewrbFrFtEQX9YFr74yffaM2Nhgh+yjsrCiXmlWGIDQWsY+s47oADQ7ideFpCvFZmYqzlLC995H+rEG7EADAPJhKKo7EYK5rNrtd1hGGeh8z97LgP1/lhztuSRhQ9PxHV6j4SxfZ1IeyAcUPl6hUzQ1ggq8kjyXtA2/VT5XGqQ/9s7qG1Scv/q0nvfysB2bN/qhPj85mACZiACZhApxOYjspApzOvS/5VYc3EP/Pn8Pv7UgwIA3mByns5Bi6wBgoboDKtCtit1KJPUR/mtOIoUcPm6QkSVvNJL/PZtPJdhqHiGFxH5bmAHnMwgcYRoIzF75QjorsQSoEW9bu4Fz7J/fEF7g/sAHx3kvI5B3HVW9HSWkuKOAdRRmEZWzo1XsBcXLVZ/1I2PANRpG46sbWfme5b7S9vGLmnby4MpH2sX4t4Pb+PY3onmMbNnWQ6tsE8DgJ6awhbc01u4EG2F2DqagAgX/L0KOAqfztxzz+KsfR0reA+DvbpIFLdOfU8156UBxlPY+C9cCoLb+a98EwMKZuOE6DXxVSGfqwP3UoH76Gvcc+9Qs9+pXs516OUXOOpTI/PZQImYAImYAIdS2CqKwEdC7reGa8U/8SdiX9V/sriX+dUqKoYAQAAQABJREFUxVbraAXqp9K1L0L7upW4G1NRvFKVr9I0Vb4y8X91CNuTph8j/g+hwv84id0o/cqDgwnUkYDc9yVGZtDqXsDg9FfK3cdw+z8fQYI2SVz9Ne9NRLkWaw6lDa3yI9xvu2FYeDH34su5B/9OTdmU+eiizTqlR6vK5b4aFZrucxrHnX9FG4knDC7giAYZLk8AVwzxKwDVcEn33+xM8Qg44eE/p9c4njRZ15L/eZ5H4d+XeI6o7A7S0o62Dsspf0ex8U0sn6buIyp7/JbBSRimqg7QjQvC4DquL8/6l3LfHbGKTxuS7jVcj/zxbWTEgqmDCZiACZiACTQ1gVav9zQ13EYlTsJdFT7mp3EBv6saHBU69ZkfrzI3gMroUs2PStc/LgzhAlW+lE7iia2UWm50qEi/Rjrvo0K4PxVCJassghqdBsffWQT0oKOsDTJJgEj4yyX6HKb3cy/dJxpsKy7lPihN8l4gnuiSTznfh+V/49ynb8sAf7iyy81/iHW66dTKr2RpqjXoqxg5btj1ZGL/w2nJvihtOa81ombbP3s2IA73Bsx1TNuTTw0ap+eUWEVuLMTlNP1ariUMYl0oMs7ClYjk42s5sFX2VdlaQZm4oqI8r6Y7BetfC89/2h4Pi7VkJjUE6L0R3wNTkD+SEAax7OizgXrnnMX9d57Om117LTuYgAmYgAmYgAk0jsB4grFxZ3bMNRNQpS5r+aeydBo1tu+q1lal+FeNWeJ/gNbPLvxFv0klezfWfUQJmSoBkbX83xTCTrjg9tEi9TSL/5qLgg+ojYC6wQziftylBx7l7RJm70Z4UAxDuBRvgJMSkSkj2qTDikRM6fOVu+xAq7+EFn0KZOBSH+yC1KpU0CSCxP/gbFrIyQtJD+fNT+KWUaOlA54YwiPrzHYYTXZUXyCW5TkeLTZSjJqUUU1ahqVw6mcWFEeMZ9N5yl4GFB0Evjhvafd/5WHTQD7FJJZnFoor+HFICLcwO2sNHi8PhvAall8J4+1plVfhVHcwYdHUyCDWEv/xPYQh4FzeZYdjlHvVvniApe8HXmkx/Y1Mh+M2ARMwARMwgY4loPqQQwsQoBJXFv8raVFEyHxHF49arypLsf9nNdnQMcQVvQUQEHJD/hRC6M06lopY9CzQciOChNbJVPJu5JvmJLqP8z+F82MHcJ//RvB2nIkIQtF0MQaG+vnfRtl/50I+TSY2Ku+PcDv0pkKpEbw4x7WI2MPV8k866vY5S/KhzwEWEG8/4v49sYRwW0JeuL/Z1LqBxMtAMnQDxhMeUq8nJzP5vQXrdQm3Zr41v7djeUcmrduCZ2FRFgIp19QgEK0BesjJKsAx/CWeF8wlQB/H8CjjyTdh9+KpMn5y7mkNm5Z33iM7w+xVJOoN8JiTdg2IRgPWNbRxgGugaxXH4cAIoUFqbyYti2Wk0PUQqMXJ5dOigwmYgAmYgAmYQB0J6D3s0AIEVHmjshrd/qkdfVcXjppaTeJ/k2xGV2QqX3KH/g7TGb1EmYn0Tfad9M+0ZacfN9Q9qPhdiXjZfa3F/6S5OoInEtC9geKTu3+gnBURyVr8CK2MS9TKyHKO+0lfz5DY0ba6hz7i1/2Ex05J50XgyAOgbl1cyOMwgimPwOU2CgeRl99nz4i6Z2aKI+SCbLZFXmy3x2jIhdyKZ+Fc9t9ZE8ncFSZ7Mt+L6cms24nfOwh6ZiGVQYDW5xGeezmuyXlwe73i07ViU9sHmMSuAT0woAwJR1gTwrY8k1/HtjdgUXmSCips9W7RdSiyvpFB0Q/M5N7guujrNS9fEMI3dMJ2Kc+NhOe4TcAETMAETGAiBBpq5Z9IgnzMEwlkFSHmp1BBysS/KqxZvfaJB42/Ri1tI7SKDiBQXsDuGhTwuVSI78vE+vhRVLdHFh/xq0/0FfS/3QXVonqmPHwdTKCuBChj/TzYuhEV+gTaFYibNx/GiPI6ie4lBIbcnSVwGhbuTQ0LnGc599gS5tKh+uQgmnTygXj0Hfth7qXZ3Et/T4znZu7zk499emPQc0n5W5G2BCs14rmI/GpbbyLW9fzDthP+yvRLpo1CH8IVMftkLvIubHgKHhjzmT81nXbGY0BeBB0h+slnOYgfP2K+S5TF45kOTr568UEgfpb75Q1sfy0GkichyPWQ1vgLMgLUpdwS5aaB6BPxjzGnizL89VV8DWYhaeBdNHBp6jW26UH+bQImYAImYAImMHECevk6NDGBTDzTcv4shMwPUfz6frUqcPU03vTjAtqNF8DtxH3KkSH8WkJJFbDJosnSL/FPXFchWHam1q5KZbdqog4mUEcC3CJhGOFXRMisp4y9E7F/juJXeV5Oi2eJ7frd6EDZjq3YEk54Aayk3C9Quee8dfMCIO5B5XUtzwXuVRkBpO7iAISNzt90xi+2Ov9S5kuY4JvPjB/3cH2vYCqNcZ2vDmFLLoC8A7AJhd8v5NooPiJk1pmhBL9FlCMsJCqfuld2ZPZaprMwBMyhfOmFo3eB3jmRPfNGhOiRwDkLD4awinMu5l10h+7d1GjXsdeoEbAdpwmYgAmYQOcSaOTLvHOp1innNyMWVClbFUIPF+pHiP8uamGqiE2m5X/U1BH/41SiZ9DqQ4NleD6Coo/aVnHpZirTo0ZUsTJrvbkmhD1J8M9pkX0y8eNd6pb/CkxenDwBCYNBtSAitDWy2w9prnz1ISH8QVFn95GWpzJchJBZjNGB+7eEqFnCjVXve3eQ+6pIpNg7wsHcs7/v43dvYiCcyqw21bkoDDzO4pS/BXGrxNG/fWQ0Eal92Vnlp+ODys5ceOmdIxgYneegyN/E4hspv1upkGE9UxkWU263hgR1TeifzTuC8z3ISV6Eh8KPdSalr9PLdkOIO1ITMAETMIGOI6CKkkMTEshEC/0zj6IS9lNarWZQK1PFrG4tiKNku5/Iu3USasT/tDCEr2kflmuuJGfpv5Z+uTQbqeV/j3UW/6Mg96qJEtDDi7KpVkO1+mtAPxXddyCEP6U405bDONCYfk91IG1F0jiIAeAwFNM1LOcRUErvpMVTmndOEfpxZ5+BwH019+vn+yySxrzMJfgv4Vm2gqkn2UtdCqbEIyQ5XWv8VxlSSntTQxKGgCdTaN8Fq1fiKbaFPAIoeI8zdbNOn2VsRIjvIkXMTf2v3NMf0nL2XtGygwmYgAmYgAmYwMQI8P52aDYCWSVnJYN7IRx+NoN+vjSba4CkrgZVtioRDFD765JCod/sUipeZ3NeiRaVlapOL+HFcQOkX6NMX0Vrzj5UGhttvKjMg5fbnEBaGOM9wRgW+szez1n3Slp5f00h1Wa5wqvcTlvIPABIT+wGMJNuAHjA1MMLQPehugHJMFfclYU/YmDAAHCUMqv8s177OJjAhAmUEoOJ7iOVtYAh66ksv5vFl+mew6NFxhPdY3X3SCNOBZ23mJ5r2Q4YpffitZS9H+Me/mcCJmACJmACJlAzAfSZQzMRyCo314Xwd1ycH9O6N5XiX8pJ3QweU42O5dfjvq/6VyglokqLmw1Kv8Q/RoAdSb8+9RfFP3E10nNhs2nyxvYiQFnSIHEDdFmJwuPBEN5DmTtG4l/lT9uZplX8i7jc/2UMIy0SSpfKqEa6JagmIs51jPKkrg45eTyo/z8r7/1zCN/nXju3RNxsj9YPzR1MYDIESpRbyuqgDFkqxwtD+C332ZmsOxTx/z3uvzyeXboHJdQbcb/JEyEOVLtdCIvux6nn+hCeNh9jcl9S9kmKgwmYgAmYgAmYQK0E/AKtlVgD91elppfK1A3JN7CvoYK1G63wcrXECWDKglyKuznvA6iW4w7D6zJryRwvBZnxYg2flaI2qE/9HUDLv/v8jwfO26smwL0gl359xq1Iq//vOPAliBLsZc3pHpzdEwiow0miugHIZZq/qnS69ovCiuPit+6liOjqsI7ZCtT+hXgU/OSYEO7it4MJNJSAjAAY2WQUiGUSMX4iJzwbI8BCubXwoJchQEHFtN7hcTxoNEbNo5z/xaTjuyUMEMcz9W44b73P6fhMwARMwARMoC0J8C51aAYCJSoyTMOrQtibi/J9KlXzqeVPtdv8AM05XdTiJNp7qGRd25caJcZjpMohQmzgKgaLwoDQR1/RBQzGZvE/Hjhvr4VAP63f3RjGAoaliyir/3wgYjgVJtPW139zGSil97X2IZ3Xk/ZD6K8vASWHgCcEPZBR/RL+A/wrcC8V5DqD8JG6WsP2b7J4EffaH5nHwH65ZZxncSrMsvWem0C9CaisIfyLvBv0KU2V04DB92UU6NJWIeyJ4VjlVEZreb7k4w71S0T8vKesC5zn37kHzlbUmZGtfqdxTCZgAiZgAibQ3gSiy2h7Z7E1cjdvQ4vga3ZNxL/qUtHFeSpyQEVtiIqV3P/lr/wciX9VrHqraF3po0Io8a85AufybRLxL+PFVHouTAUmn2P6CPTTAtiN0Bh6hG+VU95elIl/lT3Ehtzsmy6USBceNNLwCpekTaNj6SJ1bdB9E2ZzDIKqgAXtz+T3s9yXPQsxHpDX/2T6I/tJXBVKzLW/xb8oODSagES/7jedp4/nveYHh/CVnUKYt5auOGx4iOe/nvsqn3E/7VOn0E2EQxjQAh5A78MQcYHSMJ97Ru+qOp3D0ZiACZiACZhA2xPgfe7QDASoLMWBu1SRQfl/jBb0N9DPUoEGlYa4VMbI03/DqIi8lAQC6wWI///JWvQrdxptWRWwzEjAMRL/J5LuqfZcGC1pXtceBCSKh+Tyj0fJraj8FyGE17AuT6t3rhWEb3aP0E/hUCx6qzaxVJCV2JKqe7CI8Ffrpm6ga3k4f4mb/3/oO3B/din1fGAaaoV8Z2n2vL0JqExKhCuXvAN2p9wuwb3ln/FekaeO3l+qZ4zq8cL6iYT4TGBcAHUDWqN3FvfI7TK0LUqMgbqnHEzABEzABEzABMYgoBezQ5MQKCFqmKI+WMXnzKhA/QeVG9Wg1JLSKG+AeL5ZnHt9CK9B/H9uIuKf1phvI/5fgPif6jELQOPQpgTkZpynXOWp6F/MDfCSA3H5l+DAY0at/i1X0efeuh5PhkO413RPazyAHE2XBXVrwMDRz+/vYgj4PPfhT7Nr2ofQmQsDDB6DpSb1dMjS6nlnEqDcFm5hygwBvA+OYN1HMGgdq4Kejg9QT0MA0Yd+4p+BkYHHQzgdz4Q+pYP7xB4xMHAwARMwARMwgbEI2AAwFplpWq8KzFKETYmKPpWoxfz+BoaAIq2CjWhVVyVqEG+DLsTH+6hALenjXD20MI4nrjhQo5lH4wHp/BIi7eXUwpRGGSpcroDgMDECKjyUr3J/X8TDBxDE71Fsla2NE4t9eo7SfdXLvbYq6Su9BNGynvt6pnyoWb6b2X9j7PsSLZn/l6VQx2i5p4r7MTvGcxOYTgIqsz28F7J3A+X9pSyfzTtmD8q57msZiLF51e0d0U9k3XoRYSh/Pe+w81iM3RN0v2nZwQRMwARMwARMYGMCvJsdmo0AFaTcCgwBqsDQYogmCN+npWMuFah6GwEGEO5dtNr/FxWnV+i8nEtdEaKwH4tLup92HkH8f5w43oL4V2VLbp6Kw8EEJkMg9vdPW8lfTNlUo57EQ4HCJaeYlgu4JxcWk3bu50Nm4QWgGwWj2++YfQkDx38dHcI9ypT2w41ZQSKKLDuYQOsR6KswJFPmcXoJ72V6O4YAdeUZ1DsET5dCnQq4PIWKW3GCRxgjA2Phv4gY540D02rZwQRMwARMwARMYAMBi7UNLJpuKWvtpCKzO4lbTuXpACpP8qhUy+Bkr10m/i9FYJ2izGciRctjBVXcUGNxxHHS9R7SdDZpkiijPjfpNI11Wq/vDALSAyqX3RilfocryfMPDOFXqshTqS+POt6KKHTfSNArL6T/CyzfjPA/5yg+a6b8cO+pVdR9+wXDoW0IZO8wZQhj8dOxLP8H74y/lyWb8l+vd5mil9F6hGdHgWfH8h1CWLQXw2lUnl87OZiACZiACZiACViwNX0ZuJQ+jidTV0I4qBVlGRWck6ngZK2gNQ+sJKsBYkR9J7vXUSdDvB/TS0WpD6MC8826TErEUImLI/6TnteRoHNRL8OsV5ABwMEEJkpAFfghyncX3iTXbB/CSfuE8PCtlP99o1aYaLTNfZyE/xzuofHuvebOhVNnAmMT0LuF1vkchmYJfhkCXsQ746Pc67vx/tH7qC6GAN5teobIgDiDd+RNWNROOSCEP+keW8R6tqevKqXCwQRMwARMwAQ6lwDvRIdmJ6BWw6zyxPJ5VKZei6ujQnR9rLFW00/fY31p4C8o9kMPCeGuyviTaEf/n7WmrA7hDL7zdEFsukyMBrGv8uhHea0JjE1ADyDKrwxaOSrueQTBtyiT/6jKemb8Gvvo1t1CngsryHPvOEa31s2hU24CGxHI8Z4pZp48N4YwC9VfYo+3zua+X5veB9z3xRrfZxufhOcGxw/QzUYG7vuJ7/mc82d6xy3nOcMJZSRwMAETMAETMIGOJsD70aEVCEgwcLFiyz+VmbcjwD+qHzTZq/VEbsXjBuIYQqkXOE6HHo1R4bpM1I93sFpR6MPcz6fMnsHJfqKCw7mjAWK8Y73dBMYioDJJWSrgFqw+8f9BmXyX9u1DCPSmomCsY1t1PXmO3QFaNf1OtwlMlIDKPsfqXRa9zVaFcDDLn+L+P1YGZV5m9RrnZoB3ZJci42V3xmEhXMi5o5ca57MRYKIX0MeZgAmYgAm0BQG9jB1ahEBlBYZW+BdSi7kg/ULAuEaAtNKTo1KUo/VfA6t9s1rxn+2H6+bTSMNKXCtnU7GaiPdBi5B2MqeIwCA18qI6v1Mm30yZ/JTOi7EpDpg3RWnwaUzABKaYgN5lt3Dvz08Ef1hJlzKeBR/EC2gb3PfVrWyEd1bNXdyybKhiQxwDRNCl5wvGhXfzfPmwtrO+bEzXbwcTMAETMAET6DQC0SLeaZlu1fxKxC8l8XJnxE362zShHItwuhsXSnkAqLGDus3ogQ3DdB2Q+F8i8a84ssrX6EckazPxj8vmXOK4jO+VS/yrP+WkXDU3d05v6wgCA3ijFFVRpzz9k8R/H78t/jvi2juTHU5A7zK9f/R+EQpa6M+jMjIP8X/BTIwDvGck/mXYlrdazUEvQs7RxcGDiP8RPAw+xDvvi4qI9foaR1VeczWf2AeYgAmYgAmYQAsQUP3bocUIULkpD8ZHy8luVJyW03LydCpPMgKoYrPpde1nu0ZW/wZC6yU6Xlnmn+pJYwZVkth/gDl1snDNbM6xLvmOM44EDiZQOwEVPApdPwWom1HA5QHwXIxZl/Uh/q9AFJSYao/VR5iACbQqAZ4HebzLCnrXKA90C3ges0/wztqLbkEKeq9FQ0H8Vfs/PVOGt+MZ80AIP1gbwum9PHsy43bt0fkIEzABEzABE2htAqqPO7QogawCI4FOJWrZtnwhgBHUhxBVOVWq0mzFEf+p9FzPwIFHqOJTTSurjqdwRDFG/D+iMnYCBgQ0W7D4b9Hy0iTJ7qd1r5tWufUUrhNo+bua8lUe5LJJ0uhkmIAJTDEBvZd0ysW8w24PYYv7Q/gIXkJn6YWD4Xks43a1qeSVlnxiFKPCL/AMeA7Pnr9emn5lp9pIvJ8JmIAJmIAJtAMBGwBa/CpWiidaTs7B1fH16RcC5Do5QrNJkZrTg9SsDjk4hDsq9x8r69SUyoOUsf+XMSyciWFhsq0wY53O6zuHQCb+sSWFY2nxuykzYnUOAufUBExgcwQqnwm803qwZJ/LO2jeg8lBGjwQu8CEQz9d4boxiN+JAfKZC0P4beX5JhyrDzQBEzABEzCBFiKQtRK3UJKd1EoCiKiBvrRCRGXmDYj/f1GLCYJfrSn56PvIZ9Uk/tXaof0rj990WeJ/RdoSg/g/m5b/M6l4qdI1GRfMTU/j351HIIp/xqB4CKvjkRL/lNst1A+481A4xyZgAmMR0DNB7zRNvNNW/J4vBfAO+rAqK/RFk/if8NgAHCvx/zheSLuwvGplCEfpfDKM693HOgcTMAETMAETaHsCfuG1ySWW++QiWvy5oMPpFwK+vgOCHzfKtyO2PlZNy79QZC6R9Mk8k0rSl3HV1ojMCjYWJRz8vwYCesBQfsot/xSio+jzf8utlM19ky4lNcTmXU3ABDqFgAQ576FiZrTGG+AwniefxSh9iLzcMG5PxistG4dkCEv5CzGQX8z5ikuJthSj7hTKzqcJmIAJmEAnElD93KFNCFRWmBD8z+bi/v2CEN6q7Gkbv5mNHTJXSI49hn2vRKzlNIoyR0zG5XLsE3pLJxCI4n99CI9Q+I48LISbs3JWTeZLGJ6WJIatzZbdauLyPiZgAq1HoMQz4FQM3JkhgPfTUt5P/443wGTHBtCXSLrkKsfgNq8j/s/KkH4LzxvOKec5BxMwARMwARNoSwK8Rx3ajQBKaaPvHPN7XPFPpSoOxHYjIy/jX7mabgTbUili0Z9LarfyMYX5GdiC8oPbv8T/Ubjz/irzMKkmDaqML04/A1ZCBDC5Ul4NOO9jAm1IIHtHKWvXMqAt4v18xgY4kPFpFCZqqB6kElScTQR4FfwrRoAP6X3JT70z/bwRWQcTMAETMIG2I2ADQNtd0iRDMgIsY5FuAcNcZH6OHfqoAPVSgbo6hC3p6L9yVgj7r8O9kuO6N3vg2FF6iwkMUJa6MCI9Rjk6mor1asrZFpQz7AHjB8pdkeNUJrcnniGOf5h15S9TjB+D9zABE2g3AjIK7s1zgOfBgJ4HdBH4AM+Hd6kVn+5qMljHsW+qzTfPGKn8IeZ5uhbk+ELAB/Ga+zcdz/Mqvherjcv7mYAJmIAJmECrEND7z6FNCVBBGrflv7KVlcrU8q1COIVK0GT6VrYpTWerGgJ6oFDuBqmFF/UZCsIzqKz33VpDn/+siwCtfDvRynctcV5CpfwNxKuuKKqss+hgAibQqQQqvQFuoMsazf+f5ws4T+PdpWeDWvU1qF8tIT6uMAIU8Cg4F2+lN+jgyvPUEpn3NQETMAETMIFmJuCB3Zr56kwybeMJJSpI7JIExP85VH4k/tWKQqOKgwnUTkCtaTxUimqGo3C9QOJflehqB/zLxD8Dfu2N2v85ZXJPono9A1seT3yDlFMZARxMwAQ6mIA8AEq02uvZclAIV+G+/3S+LXouXY5y6nbEu63Wr4vERxZxDG7H84bnzNeEN/U00DYHEzABEzABE2gbAmUB2DY5ckaqJpC1bjB/HS3/5yL+Jd5yVJ5sGKqaonesIKA+szm6kOTWh/AqWu2/kJWxin3GXMzE/5oQ9qU5bsXsEJ68NoS1xDd7HeMH3EN9/GTG6ypRPpncP3dMkt5gAp1DoPIZg3B/Du+vz2M43FliHgp6l9XyPhvh+CGMAEU8AS7GAPB8kdQ7kcqSnzmC4WACJmACJtDyBGp5MbZ8Zp2BDQRw/e9W6waVp16aVM9FaMVg8b+BkZdqIkDRCcO44eYQ6+/OxD9zVcLHDZn4pwL/NMT/VTMT8f84lW6J//5tGZdiTghnK6IltVXoxz23dzABE2hdAnqP8fAp9CHaed78gOfH/oj/b2PULvJuUx1ngOeInk/VBHWbUzeAdTxvTuN59GMdJPFPBMwcTMAETMAETKD1CfiF1vrXsOYcZC0mN4SwC+psDSP+z9GI/xSGWvtN1nxuH9C2BPppdeum4hz7z1JZjsZFVZzHy3Em/nH7fyr7X4H43wkPgspxKFR5z8kPl8r9sVT4r8rK8Hhxe7sJmEBnEJBAR7AXZRBQjnlGvILnySdnhzDrkeR5ooFF83qYbCZo8wDHdGMU5y/8C/Gdz5xDYxjn8HQvz0zABEzABEygiQnYA6CJL04jkkbtJX5PuURFCDH1XSo6UfxzLov/RgDvjDjVQi/xf/nCdPAsZZsac9Xin8r6Puy/IhX/m45Docr3YDowxXl9aSUfLxb3ze2M8uVcmsC4BHhIjEj867nAe05fCvgiBx2Eiv+Znk8s53kgaYDAsQKvxDCsfTEYrCKOQyX+mesQZlV7EYwVv9ebgAmYgAmYQFMQsAGgKS7D1CSiRAVoaVqJOTWE/8JdeyGVI7W0dk1NCnyWNiTQj6utxP8vd9zQX7ZAjXlc8Y/o75pP+bsKd3+4/IS+/junLf+jlcci2wYpswdgtHq/OO5NeU4r522I1VkyAROYCIHFOArp+XMpXx6hS8DvmI7j+fQ+PVS2xHjI7AkDBPIc0ZdLCjxb5P5/HobMw5h+qziIS+LfwQRMwARMwATahgDvNodOISDBRYuG+v2/HSH10XTEf1WIXA46pRDUN58DdB/peiyEuylAB1O2/pK58493mqwssv/2fL/751S898MYRU+UQJRjBlXsY6s/TXVHHxbC1Vk8Yx7hDSZgAh1LoPL5QBejZ/H8+G/efbvw7tPYJHrv6XnSj2Ggez3raBE5E4PBNwSs2meZ9nUwARMwARMwgVYiYA+AVrpak0hrVhFihPUTaAn5KC6OCrr+qgQ5mECtBIYpOF3y1acGvVji/1bEu1r0x4uoL3XhV5lE/F9ChXy/deOLf0Ur195+ugmo4J6TxVNKyrG2O5iACZhAmYAM3jwz8npWLAzhf3nv7Y/4/64GCOQZIvH/mMYu4Tn0O34vkPhXFwJN1TzLyifyggmYgAmYgAm0EAG1/jq0OQEqQBr8aOCaEPak5XSZaj2sU1/IInMHE5gIgZHZHEWr/aupNF+p1rJ9ExG/2bhUse5NWt+030VUvo9gxG4ZDTbX8l8ZZzfGAo05cDArlzC99/jEADBul4PKSLxsAibQGQR4z+nZMJwawfHwD6ezfBbrP7pDCFvcx9glGAQW7xfCI3qOIfxl1/SrsTOKh3NpAiZgAh1JgHegQzsTkOBaHAdPj6MiX4NoOwLR5hH/2/miNz5v/dtRUaYm/TnE/2sqy9jmTk2NWh4nIzx0RqiAn4f4fy3iX5Vtdc+tJSiO+OyiZn84LXsriS92b6klEu9rAibQWQT0rFqUPIOG6RJwNA+kHp5hHxCFVPyP68HUWcScWxMwARMwgXYkYANAO17VNE8IrtyKtMWVzyOdg6v169PW1nRA9TbOvLPWEAI8MB7HiDTjEUbWxr32OJ1Ewp7147bA9+Fx0kvrP2L9PZTFsymL8kKRQwqzmsPgTOKj3+71pIM/3AkqjF01x+YDTMAEOoKA3ou8D8ufC1Sms2dTRwBwJk3ABEzABDqegFrkHNqUwC20ikpw0dLxUgY5kvhXv213+2jT6z0F2RqgqV7i/z4K0T/ofGp5p0yNK/4R590qiytDeAnC/Wz64aoVX88fZhMKxXXEhyFhAZX5kmLYO4lvQpH5IBMwgc4gwAMnfi4QQ4DGFImfDNSzqTNy71yagAmYgAmYwMQr32bX5ASyFo3VIcxDna1BsHVTw1ElxwaAJr92TZo86sohtwX/GPX/VJrcL9Ggf9X0+89caymLhzIGxbUYEQr4/ZdH9J9EfoewIBQo3yNMhx/Gt7vdFWASNH2oCZiACZiACZiACZhA2xOwB0AbXmK5QqtF41IEGoLrolmJ+Fe/f4v/NrzeU5SlQfrs6zt9H5T4l9CuRvxjNSgyqFY/+++ISP8OnigS/5nr/2STLvHfPxvDBA+ycxQZaRso2RNgslx9vAmYgAmYgAmYgAmYQJsSQBM6tBMBBJeuaY5/GuToq4yW/lL1++d3t5pwHUygFgIqTJSbfkbJ7sZt/8qFIRyv41XO2LbZIsXGODbAjSHMQvQvR6j3rCUuDq/3GBQDpK+LuEsM6LU0O6/S6WACJmACJmACJmACJmACJrCBgD0ANrBoiyX1+5f4p1/0G+gfLfEvt/+uzSq1tsi5M9EIApSbAdR6N/3+H2S0vtjvv49W/fHEv9JCGdQAf1L8x0v8EwcOKfX1QpGBQgHPBFkj3kp3g+1V/kv2AhAWBxMwARMwARMwARMwARPYiIANABvhaO0fuFl3yd36OjyhEUOfXk92mEsjZTqptTPo1E8pAQlpTligz74K0GsOCeGubDC/ahKyHMGv8ofXwKWI/wvpQiCDgIwAdQvEr7EEZPTSiIJnUf4fKLHIpLQ7mIAJmIAJmIAJmIAJmIAJVBBQvdmhDQgghKK7tQZmw1V7NSOtz1vXGHfrNqDlLFRJYADR3kV5+m9c61+usSUWIax5aFDcqgsySqlf/k0h7IQnwC8xJsxlLiNA9A6oLpYx91I8+VkYGSjrr+c858ngoL1rSeOYsXuDCZiACZiACZiACZiACbQZAXsAtM8FjcIHl/9zEG3zaP2XV3S9+1q3Dy3nZDwCg4z430V5ugMDwFnaeQ66ulZhLfF/M+XwgBDupkn+zfUahZJ0qIU/R9cCif93S/z30b1g6QTSOB4IbzcBEzABEzABEzABEzCBdiEQRWO7ZKZT8yGBJdf/lXxjHUH0NcR/vVpYOxVpp+c7tvDTWp9j8L5nIK77sjI2UTDyHlhMuWRcgAu2CuEMjAqTHZhykDEuimtD+NAhIfwrCY7GzNQwMNFk+jgTMAETMAETMAETMAETaGsC9gBo8cub9ftnvg8+1Z9FsDmYwGQJDGyXiP+PSfwjruOn/CYbqY7HJeXNiP97ZrBIE74GqJxIGODrFkW8E74s8a8IaPmX27/7/U+Epo8xARMwARMwARMwARPoGAI2ALTwpVarKgIt0/xfoS/0bH7odz36V7cwGSd9EgT6ZyLOHwzhVgbue4/iQVxPWlir9V/GKnUFwKDwZhVQBHsct6KWtHLM4xqX4KEQfrQwhH/WsboPSnVIYy3p8L4mYAImYAImYAImYAIm0IoE6tUltxXz3vJpnhM1FCP+hfBB3KqPpkWU8dXc77/lL+z0ZUBCv0v9R1h4Y28Ij0m0VxiZJpUyBhIclKs+Iv6CVSE8Dxf+F2FkkMGqWkOkjBMzKOc30T3hdCWmnumbVOZ8sAmYgAmYgAmYgAmYgAm0AIFqK94tkJXOSqKEDwJtkD7VJyKG3o0oQlvV9xvrnUXUuYXAEKI8x+iRXzwshMv7KE8S7fUig/AfobxG7xSMDG9C/N9D2eVv858G5DiFAXUbYHyLuzBOnHJgCOs0LkG9jBPJKfzfBEzABEzABEzABEzABNqbgA0ALXh9M9d/jADboPq/mAokfQ/d17MFr2eTJHmI/vldiPI7Sc/bszRJtGfL9ZhLsEu4H0FXAOJ7i9T/eIEEDOGq1IVhYpD0PA/jxJ8Uhwa+HO9YbzcBEzABEzABEzABEzABE9hAwIJxA4uWWEIMpXo/LpxLi+2ujyVu1MW6KrWWoOFE1ouAyo6+GUnr+r8g0h+WwO6tY+t/ZTol3DlfnvN889EQvkWffnkFjCXm1S0hL0MBx/wTg/79Qt4vFv+VRL1sAiZgAiZgAiZgAiZgAtURsAGgOk5Ns9dlCDMNqIYr9Yu3ZGJEdQkkj+XQNFeotRKSWpP6MSQV1iYD610gcd5ogb0sNWTRFeAtdF+5B+OD7A/ZgJYZRNklhjAQ5DAUnL2QsQP6KOvyIsh28NwETMAETMAETMAETMAETKB6AjYAVM9q2veU+DmZUdBvpNUf1f/ptHO2DABlr4BpT6QT0FIEUNhDPAS6cf0fZvltaeIbXp5kxFJLPu78f+W8b04tWPIE4Gc5DDC4ZRcGguWI/n/X2ns33l7e0QsmYAImYAImYAImYAImYALjE3DL8fiMmmIPVFEOVRY1P82fn+U76NvT+k+36MDYaA4mMGECGvivwGf1PkIL+6/6MDJl5WzCMVZ54HKMACW8DdSyv4q+/bT0v4gyrdZ9efwP4uEiw8RtLL+EqZlH/M9VWi2UVoepJUCZ9SWYWuQ+mwmYgAmYgAmYQIsSaHhLX4tyabpkq7VUrs/MX4dgO5dWUQ2IZgNO012p1kkQikkiu8gYErcxPxC3/7WsK1Cu9CXAKQmcLxocrg1hJwrzL+kHMFeD/eEKEMe0ICFH4yVwNQNfquvLWOMETElafZLmJUA5yq2g7PYkhoCRpSR1CcuUZTY5tCIBXdNWTHe1aXbZjDdn21zjBlzPtjEsN4BNtbeZ95smAu3+/J4KrI2+b9rm4TsVF2O6zsGNFEUSrv9PpXn0RsTRDISRXP/dhWO6Lkrrn1fCaGQWZWhdCGdiXPrKpZQrdTGZ6qzdjLjH+NCPF8A/kJ5vricNGLlmrKVLAoP+fTwzfk11uqo9n9L/QAizMKIM47HgZ2q14Ca5H15QslSNwP1RlZ9No1MFZEViFAjL2A8Dkp6ZKvcOTUJA14hrk5+zyX1zL9dpUXK9dEO11TVTnpcyzWOqzHdPks/hdstvkxQ1J8METKABBPQ8I9r8imQez6Dn9y1MS5j8PGsA9DpFqQvn0MQEuLnyXCRVXOUC/bNZIRyzboObdBOn3ElrcgKDMzEsUZauWRjCUUpribLGFMuafk9loIW/gEDTuABf2ZPR/u8I4bsYJU5XGvSCacaXSB/8evFWYEDOM0nflwF3H8m1V44u2tQFikf4K9PtTLfyYzXzmyjbt87Ho4XlctD1mksZR3jJe2paynk5MR28oHuda1O4GQaLfC02KgmU3xzPkyJGLRkI9GnfKfPG2igh/mECJmACYxDInuEMzjyyIHmG8+hyaDUCrqw2+RWjMqCB0YYRRu+kVfQY+khrHIBqPp/e5Dlz8qaZQEE1SyqY/6Z0UL5iF5NpTpNO/9478HQhXe/QD6WLZY0L0LSB9G2xPam7P4QddbM6TC0BXmLb8UB8mtjr4YhRK1Ax+R3PTopP+DnTNdROfolBqVyOqMB0z+G52pscwi4OjSSQCVs8ZEZS5mVhiyGgm+umrj+7cy13Z9+dsc7M4b7StBXL3cw11k1LvvdI+4jyT/qZBXpchfVMD/HjTlz47iJ/fyb/t7Lhr+yk7eVyyj6FW5gwBrSl0Yob9GPkdyETRSMaT8WoVYKuqT5puz0LV/N8+RclnN+TMljrmhPfEJbM/0fZeDlR0uOz5dgIhQxYWzG/FpEY3+elaWxkUIIcJk5A5Zp3atSM6bu0/AznPp7J+3cXyus+TLtz3XflTHp+b8fvmTznujhejZnZs3DiCWnzI2E0BKvZTDfC+Y1i1qgs2wDQKLJ1iFfiRzfaqhD2J7r3reMfJUEvFwcTmBABlR3KUD8D7nVTq1hG+eqTNTd9oE8oznoctDht6SIdf7w1hOP3TbsiTHe6qskbPIflfy6uVOT1TPUtWg24Ou0D82FUE/WM+KJUJUMtqE9hPImncE3OoJyrIvornqM/pSKyfIsQrqIFOnYZYHvWTUD78NOhXgTEdhmVvkVECFtVFqOw7cNgNjOEg6kwHsn6gzHWHMC2Pbg2W3Nt8voeaHYhsjmr2i6Q91hoZQ1g+WEeHH/inf8bfq4m39fw+wbWMz5r4gXAOhDF7gMjpQRRy+Mhf898EuPPtKLC1fVTf7k5TH8KgUdOfQIiS9dZIuAgVNTRD/JDxs1WCzyXg7pp3UX3uCztS1goZT88b3oClEEVc70j9V7VJY3P8Nt5hlMuD+ahfizrF7J+f5Z345k1SxYfHcSxDhMgoBcljb26b3aawOE1HcL1cmhGArrxuInizUb6zuWm0ojo/axT/cjBBCZEgHIVP/tHhUstSksmFEkDD0rL/ePpnFlrBNXYCJqli/G3/00NAbWYxTpyWmCGEZVDTPqZZ0MRYXkg8wMRW29h/W8QWt9j44Uct4Z9VLHRzoUVPHd7099a51A7gRLMlzDBVlxVnwk/pGK4XQjP4OY4nfVHw3pfqQLdLNpBO2ri+gwzxWP4yW4bB46N6/g3qVbWjWOdml9K8yZn0m/lo4hrwzZUxjTtz34vpIwKggwC12LZuozpx+z35+x4GW0RnrkedmN9ZJJta6U5CX/gXhLMtV/Hsry9YgthNs/y0ky/M96kl8XwOOnfSvnI0jrZOa3lRBf/PXIfc4ybshFpHKhy62nlsvZtpt8VaRngus6qJxvl1aHxBLhmsS7DtdRjWeVxuA/RT8NRL8+l0+5nzrp9Z/NPO2onTRIsqZeyjtEUg8qEFvjXcs/tJAdT8198ONMghkV5Tej2b2iwAaCheCceOVZgXRuN+v82brrjEGy6tyz+J47UR0JAD3SsiwWst5+jdf3Xqkgu3lDhnnZGelHwEJR4UItuywS93TQp/cmsZZLeFgkV9CywHCsv6e8RCtLQOq4L10ZBxoD9eJDuR0XlnTxff8r6L/GwvZg5uyXdTjC2jvQmdRqtcqiSwM28o+bzriql7HiPPZ3r8TIOfyHcd///7L0JnGRVefd/qrcZZgZkmxF3dpVREBCQRekGZEeNymgUonGPyav4xiWJGnoStxjz5m/UaNRo3JUxrogLajdRFBgBARk0Koi4grLIMEgvVf/v79xTQ8/QS3VX3ap7q37Pp27d/Sy/85xznuc5zzlXPvxyvdAG2KrjVe5HqSftVHZ6bFbSs3WaeVy/VsK92rsqnXv0IlL64UMJyf3w6EO0celM+PHOxKuf4Pmv0HZr0FyNTR+YD4J59GjRtZLRoIQa8r+MPMcvvyj925dtkc7raSG9MZ1KPwL7nDyr/CyGqDMKWmEPKGyMQcuoFP31eNM97bbSzHu62MnzGXFHbx7KtmXYbM2wD3JBgLKrbKK8YEC1J1EG24hREuP5szhZR0Hus5IbM9pwearEIo9Mm/W9PF5v0rNkzuCJ+/Bm9oT/hYAwBGe1/eoftcuVbADIFd6lBT5Gwy/XZ4am9sPa9sbNWTCqVCYjsGQEaISnqfDL8CkVS/0/BbR6u4Z6yYG38EUawdjxtDBIB9W7CKhPlYdAnWqMqGkTjw2sYlSae8ehYP0EBesDXPsv2t5f62EUq6EDaIe5P1N+0S3TdgjUR6Triih91zB918sB7km4AfdpRFuYJ9yl5KtItGlks5epjoOMnnWSUaCGkF1DsYy8R7u9I4L3k8H0yQiGP4dXPwEDf4R3YNM4D71/HDxHSmy0KlslU3rBPyY7rw6rHkfZsNnKyBzkhU09Du9bg8AYbfF6ims0GRNR/J8If/8FoT9Jg0Zqw2mPqto4rLfharf4mVqBQL2+tyKsRsKwAaARlNr4DAygykQ/H//eiYC6DOFU7touqzaWQ5dGVVtBxhj5/I/DQrgeIVJrTMhzy2QEegUBta/aJMDIEibPqkpaM+BNDKueQ734INfejjIbDQESjIZpjnlJ/bNpOwQAJX6mVpfB7gh2r2M7HaExruyGwVEDRjJga4u4szfNjYD4UyRPgEgIBLXkWluRJwXba8D15Qjpn+WZt7NdqgcTr+pTgta7Muj8bwSMwDwIjNImH8s2cq/X1kk0Hq9i+Pl4LWyh0SK34fMAWOJb7owLVnjJ/aaGG9gLsfifiPIvwdPKf8HKqYTJqeK+NYAQeStp/xel/9BMobFSU8LCdJJbhoDcUwcY3ZjUNCuEnjUorq+hUlxDG/zaq5jDKsGINrgm5aplsXZBQGAkt2SNAE2h+O/O9l6ydcmOKP/SPum7tJaHlFG5MtqDrbkyB8boSj2AF8WkBHIAXQ6v/inXL8EQ8MnLQlg7kvGqvhqkVbf1jskIGAEjcB8E1D6onRiljVa7QRtyMNuX6BC/Qht+vCzjyIsTtOVqzt2G3wfB8l+wAaBAZTiGgLmWCncJn9Cgcr5Zwyb04ByajEBzCMBEVY3+Q++Si7Pcm+Etj/5nmPjfCERDAG3ulEZakXZ2WxXCG6gg+nrA2YJHQhKu7kPUpZ7vN4UD7YeM01UUz2eAyQ9QRl/IuRT/SbU3bMs47WNvai0C4lV9OnFaWAtzsH8GTPl9BPq3fYtPb9HGR8+WMRutWou8QzMCXYAA7Xf/OJvaiW8zvUjtBu3IFSj+p0rvYNRf7Udd8e/5/q4LinzWLHhEY1ZYOnKxclFW4TTM9JadEUAZkWK6TRSiOpIgR9odCNCwV+Epjf7fDkO9U7k6wMp/dxSuc9FKBKRLxT4R6UcLs02jwe6JtvVhBKSzuPdKBKZrFKEUq5EerUNgoalDEzfx6bPfhvDvq0J4roRG2hcJjcJPCqopZwRgVnlVyAtD0wP0dZcBFgz+a66to4z+mvsbOI7eAJSXysZkBIxAjyNAe7F1yhZebqdz/g70jT3xKpLir0EhtStuw3uAT2zZKUghUwn7R+msmch3OvNunk1l1AiK3G5MRqApBOCjKSy7ciX5j6NDuHks6wBk3TUZASMwOwLqGwdxt56WUMQI64mcfw/F6jV6XMq/FGEd9wrRfkSXUSmTV2BDRPn/HoLjc8FnGsOivAGEBztTmxGInxKkfGrIDROsD/CQFSGcB39+jMUYd1Z5qc1X+bU5XY7OCBiBAiGgPotGQJ5s/Xi2vQMF44voG1L+ZcOliYgGXLcTBSqzPJNiA0Ce6DYY9miaR0knvRzT27+qFkJS0FwRIxT+WyoC8JJW/h+6Dc9cBMN3KZzhjLeWGqTfMwI9gwANsEZDBnC1voeDIQxpb0GI+h/WBtirrlhJmOp2QGhHKuPkU3lGcDyV80tXYgRAcJSXmtYB2OYzZd2OR0HzJ3lhSGsE8OH4KkarZ7F44FUYa54wgtCPO0BfL/BqQcvGyTICHUNA7beUf7XfTDHeb2/ab4y3f0XjrS/iSPnXYKPaD1MPIWADQAEK+/QkQNJhr2fbVx04NTG6ohYgeU5CiRGAj6ZXkX46gPc/OoSbJAByzaP/JS5TJ739CFB/lmnOtdYHoD49Hn/q7+M+uW6E83VcH+vi9lrCI4j3Ka8Ikc9hmF8LRa26KxMcNc9f903FQSB6psCr8gZ4KIVzEeX2MvFpt/NqcYrAKTECxUBglLZbxj8p//RZJ6NYfI8+7FCmGMdRf9p3exoXo6jangobANoO+bYRajE2VUxc9R5DRXzlZm7TYXs0ZVuYfLYEBOCnOPrPKN3dNPrvVhCrLawvAUm/YgSydpm2eYA2ehINaydcJz+FQPVPwmYkU46j4tVNWEn5l/BIvqc3MmJEnv9L1kMkR80VteBY3MKWbCdvgCnKUIsEvh0jwNuVXPEq17rea0V5NRmBXkaAet53LuM/MvxR/1+CHPhlGu2d1IeBi9pv64A9zCAu/A4Wvirn2swKpyHZf8Yq18deKyi7XDpYLt0SNUJ7XPmf/acPDuHHGv0fpiPolvw5H0agQwgMogBPb6F+sejaqzECfH6M6Vsy5CJkdY0RgH4ouv1LeCSPL17JnFEUSjUgakPsodYh5ltktAPIFFUtEojL78sox0/qffqErvZaWSRGftwIdB0C0iOo5zVt9Euvp/1+t6y2Mt5yrWv6qa4ruDZmyIpmG8HePio642iFp3I+h8p5AvNMLVhtD5LPl4qAGv5BeErCXhz9x9gk93/6BZMRMALNIEA9im033jUTjK4+accQvsO6AGu6yQhA/xS/dLCRb83j5/8eDB5qPCQ8evS4GeZp/7tSBCriVQxWz0De+KySMEJZjtmQ0/7ScIxGIGcEpPwThWS9Gu33G+mj/oEpW1pYXDYALQhqMgIeae4UD6iCSlhkCsCupOFN8sehk5Z3JTuTEWgOAfgrjv6z/9ohIXxX/HZA5vbVXMB+2wgYgToCErIGNZcSA8DBtOEXM5Vrz9Sul9o9Xp4MyscVLCBHh/Rx9U+Qdh75j1CU60/tPykelBEAT4CnYNz5tHIgI0C6V64MObVGwAjMigD1OeoQ/Gnk/x8w+v2dPIB4mFtuv2cFrUcv2gOgQwU/nnXIgVGV19MhP5DVOLUgh91yOlQe3RategBZk9jeqbwh8Hn0X0CYjEBrEVBVG8LTZmIVC7giZV2M0LUP3jYTWt+ltVG1J7QxhEQp/98P4UG0H//NQnKSHrUwrfun9hRBXrGIV2UEmEQpeBp8Gj3DuFarKw15RexwjYARaA8C45msV2Xk/xwM069H+Zc3qOq+PbfaUwSlicUGgA4UlQSsESzvl7HwH7XyHEaQRBauMhz83zwCUyto7Jmve/XhfOdVwUmgbz5Yh2AEjMAcCAzhYnnPSoy53B+jbX+IjAAoWaVq18+j3VDfpDzy90mMGrunr9IMavjIVHoEpAgM3oZNByPAS1ASXs2FGgZie3aUvmidgV5HQEZntd/U66ezYOu/agooJAOfdb0MC//PQMBMMQOMdhzK0j6cueOoRv4TAmOcV8lOHbPJCLQCgaq0Dnjt/QpszMJdKzB1GEZgXgSob8tkBEBpfght+zdQ/neX4a0s9Y/0V1anfgiF8J9QEI/ZnBkOrfzPW/Llu4mwUdHAA/3EP1HWJ4lPpTyULydOsREwAkJAxmYZnS8N4SDq90eiFTdrv63nmUVmRcCMMSss+V3cRCWlcmphjmdioTsRgVGe2nbNyQ/yXgt5CqFuCDfPW2GsDcr8RRmP9RoOzq8R6AQCy1Ca72HRpf2I/HOjjLyMMCKjkfVOJGYxcWoUWGmVQkgb8urkmWYZYTEgludZleukmBLDzwcvCeH+Uh7KYqwqD8xOqRHIHwHqcFxTDCPACur0J1fyVRqmbTGzuFweaPkj5RhmIuDOfSYaOR9TSfvVyaqSYgT4R0XHNRkAODUZgeYRgJGmafzFUJ/C/f836hhGI5s1H7ZDMAJGoCEElmlNAEbQjz4thA/pjTNp56mLhW3nR5MAeVUIaj7ekfzBtS5N4Q0XpNG0NAQG0RDugU8fQHm/Q0EM038UmU+Xlk2/ZQR6BoF3sabYIxhYnKAe8/EWkxGYGwEbAObGpuV3xpMAiBT4KirpvndjgacALGC1HOmeDXAa3lqWRu6i4sFonviLvsBkBIxAuxCgwunrAFMoV2dh8H0N9bLQ86yPxQAgbFgoZD1p3o/FaaX82yW8XQzTuXjkLTa9ChvVRj73KD4dt0zSudJwzEZgkQho6g71toqs9wyst89VfSYIt92LxLEXH7cBoE2lXl9cCVe7/Rjy/xstzoGQ2MdG3TUZgZYgUP/03zhzOpkKFsKhWWfQksAdiBEwAg0jUFHbrnaeTvYtLAr4BM2zxhiAd32xaCy5/vPJv4NI2f9NBsTCpbNYqHVNaqL8oRViOXgL8slOIxiuRpNBqGty6YwYgS5EQG332syreHf6m3/1Ss9dWMg5ZskGgBzBnS1oXO3eyAiL5udMAL5H/2cDydeWggDtf+jXH4LcJxRA3TKsY5MRMALtRYB6qPo4IT9M2voPXhnCzjICcK0w/S5pqVyU1gjBMP0mRoIr7LV+FMk39QICkkOYCjDJuhUPRT75W+X5dMsmvVD0zmOJEVDbPZy8Ozl+A/X3AbhtyQZgvaLE5drOpBdGEGlnptsdl0Z91jESywjLCQiDZzIqpHn/Q1RakxFoFQI1huz6cN29Bcn9swr05iTYtyoCh2MEjMCiERhiqtcEU772ptH/t0W/nfMLm+ibRjP30ZNpP07dTHy0HxYgc8a9SMEnOaSfvkNeiS9FXnloUb1VioSb02IEOoxAP231NK7/j2P/YnmbQdbpMhz83wACZpYGQGrmETrUuDqnwkAAfIMkK/bW/ZsB1e/OhkCVr0qIzj8EI4CMTiPZSF521f9GwAh0CgHNs64uD+FshLU/QVirMiWs43M01TfJfVSgcPyatGJU8gbvFFSOt0MI9OH2oTUrdoIXXqE0oFDo++Gwq8kIGIEiIaB6ScVMX/oLr6XeinDksfE2IuG/hhCwAaAhmJb+ECMscUFlFth53ooQjsDKroXajPvSIfWbsyPQ/0euY1z68Oy3fdUIGIFOIYDAVqNuStF+G1NzVq1D8ea40yPtsR+ibzoFa8Qwo/8kqeNp6lQROV4QUB+CfHIW3ooPHEHBGDc/mC+MQBERiG03BuXj8Nw6nXVbZKzruFG5iEA5TXMjYEV0bmyaviMBTyMsWliHTvW1SQCUkMWpyQi0DIEpRv8rmH+vOSyEcYUqF86WhSdJSyIAAEAASURBVO6AjIARaAoBGvz6POu9mRLwWgWG8Nax/pdOaOsIEmn7S7wT1CnJG6BjaRImpo4i0K85xMwl3h1Z5U+VkuHMKNTRRDlyI2AEtkVgfaqXtON/nTy3pmi/+ZmMQOMIuLNvHKtFPzmeKiQgn6M5oFjX/dm/RaPoFxpAQO7Fav3xLA5hLHmdNPCeHzECRqBNCCCsaY0O0cv4RMf+MtJ1qq5uSIo+xulDaTdO0/xR0ueV/2Px9OyfFIiaviHGwdniTfbT8IWum4yAESgAAqqXozh74qXzWCrmqWnu/yD11GQEFoWADQCLgqvxh6mMfSO40F0cwsMA+VW4V4rip6GyQ/8bgZYgUIW/hm5DcEN6/5xCHI4zAVoStgMxAkagRQggrPUzaVMLAq7A9//VCnY4q6ttV7BWJ6WO+WnP0fxR+qsJEkFTYupxBAbvgh3gi4NWhnCUsKgbi3ocF2ffCBQCgR1T202b/UKORfW1ALIz/xuBBhFwh98gUIt9bDwJU7jnvB4Ba5UEPwSsuB7AYsPy80ZgHgSmENQkwH/roBB+kJ7j1GQEjEABERj4Q5ao57JQ56PpE7QgYFv7YRqHyghC45V8lpD4n4bCJxpwo5EB0eP/sESYZL0iMeXThcWZ+jMZASPQcQTGaKflOUbfsTvt9RlMJxO1tf/IovR/NyBgxsmhFFVJJWBtDOFwAH4+C3SI7KKT4eD/1iEgmb1PEht8xkBN5v7Pua6bjIARKB4CfcyvnsAorAUAX67ktVvBYu2BaIjG1ftU1g55IPO+5fVtWUCFYRICWq9CdNK1eJfRn6RZAdlF/xsBI9AZBNakdpo6eTpt9wMYWNTSYhIBTUZg0Qi40180ZPO/gOZVuSi5YAPuelnSIbnouJJGKPzXQgSmkeQHmAO2meVfv9zCcB2UETAC+SEwmOZtPvtq1oahY5jGC6BtXwS4PvVPxPs0CwD5FXKJQ45flIE39sc4hGNZNCy3jT9LjJuTbgRyQ2AU5f8ARv8VAVr/GbLisrcBQICYloSA+/8lwTb3S5sY6R+lUjL6fypzsk9Oc//dec4Nme8sHYEaVmAN93/30SH8VMEMZx2CDk1GwAgUE4EKUtsUq60vR8F6gZK4d5tG4McwGK7D4HBZCHvQbjxBI70YAviZjMA2CMSpZQz9H6ert7SJP7dJgU+MgBHYisCx1EEa6hru/w9gf3Rqu7fe94ERWCwCNgAsFrF5nkeg6luLe2d65LVpSWVZ7CxgzYObby0JAdgt9Mv8C52vv+SumS7pyn2JlyoabRy1QHdfcHzFCLQPgT59cx16JvV2leZ1tsMLoO5CikX6CaxPszudk9oR90+xKPxXR0D9ROpIjkzXNA3AZASMQOcROIKvPt0fRaNGw20drvPlUdoUmHlaWHTMrYwj/VjonrWKFXTvyubOxfmWLYzGQRkBSew1mK0PHvsjktlXBAkLwkiYn5Mk1Ok9jQCey55ze6bMiZZvGIFcEahIgEOQ24uRnNMVE8bjXOuj6j8upFGRQ7k7nmlDIp3bABCh8F8dARiikpYWP+A7IeygPqMdBqp6/N4bASOwDQKV4Xu9O4/GeCuapE23Dpdh4f8lIGDmWQJos70i4UqjOBqF5f7fcS6ycJXh4P8WIwB/1dQJsL/kiBD+V/x3aLbWxKwxcT+6j/Ht2CcwPeVVMgSwTWOsSo4qs77mi0bACOSDgJTuKVU+lHH0qxBQzidHcxToNmRtQKzzdPxHqHOiXTAZgfsgIOaMk435jDECzb56IG8D1X0S4QtGwAhEBNROUyfr3p1H1g8MjxFoBgEbAJpBb8a742n0hlHYF7DC89otWf+ZBllmPOhDI9ACBOgQ9K1mCfBfUnCbUOTpIOaU58eTYkHH8cyHhPBWFP93jXJNRisbAYSgyQi0HYGKpgFQb4e/G8Keqr/H5mgAWB2jin/70lBogTcR0ZqMwLYIwB+aAiAj8xBC4l7b3vWZETACbUYgttMMMO7BwX6a/w9Zf8tw8P8SETADLRG4ma+NUhFHGM35dgg70nH+LUYAkbHNcPB/DgjAXPqeuEbxo/t/3bV3tqgkzIk/UfRXcP/E3/K3YwgvPT2Ei68K4cF1I8CoeXY2+HzNCOSFQD9K+PTKEHbBUkwVbQ8x8n8gDcEO+oQU7Yf7qfbAXsZYNM1Mw477KfELTTErYwadZiNQBgTw3qKpDuEu1otl4GeNpo9xmuuUsTLg4jQ2h4A7/+bwi2+fmb6rzHzOVzD6/2Aqp7znXDlbgK2DmBWBKa3+D119WAg/0AG9gzx6Z6X6d7955vGM6OwjpYPPkE2uCuFxMOoVG0M4QUYAvTyWeHnWgHzRCBiBViJQoQOeSkrWqQp4hLopg10rI6mHdUsmNErjX5vm/ajNyCWuepyd3CtjeWcu7/A7iJ+yVpWXGbSP/ugztG5MF2dZuTQZgeIhgI4Rib7i4Zr6CXV1251l0f95I2ADQJMIS2Fay8r/17AqJ0G9LI3+W/lvEle/Pi8C1TS35Mt6qlGlnZGcM/QeEhxyXBjcjNLP+Wq2C/EO+OtRBL6RzFPA6wIAkMkI5I0AdTJ+c506edSlIexGfLX1OShZUty0kJvyQ1xr1QBAaZeddNl/lcxpkSzsndG4OcWxjCvCYElb/d201xp59fB1zOXuImUoZWoP5Ww48Y+OTUbACLQPgfHUJ9Bf7JOMchyajEBzCCReai6QXn4bV2rkqRCYk3MO33XeDbdsCQPGtZeZIt+8y+1/QHOHoa/prz6yp+PtCQFOi//FxSkxTh0vaRiKhj+uD3I+pfDg3bdhBDgYz4LnyaDF8WDdKyB7xf9djICECSlM8SsRnc7ndukQr3atoZq6p2kAVUZ1HkidPoS8Xsh0Hi7nQ2oP8AjaqwulR7IWF8nSfgCjZh+Y9qkjlravi/WNw6ZJBSQrvxhTbarm5NLxy8CgwtPl3MqQsNtGiU92UYRkSB4AypuyaTICRqBNCNRlPOrgnvUo1cC4ItbR8H4pCFhRXQpq6Z0xBA0pSZeF8BAuvTiN/jcRol81AgsiMIVgO4iy8DM29PS4AOCc/QCLA6qOT/DsEXQYj0gGAPUdsfPgYICXp7WeAEaAZ7Nfi4Jw5qEh/ERGAPbTPNOF+oIQMIGAFvqKypIKOTJGgWARv8K74kFRN3pWVah/k0wfG0KJPIY8Xrg6h2JYn4VZuzLzMlit+T7EK+NgN5CMmOLhfrku3cUG3/yc7Qcc3sj2c7Y/8Mzd8PjdaLBVjAIVmGnOdpPn5yTCWU44K9nvQgB78eDD2R+0MoSduBbjZ9cVAwGpTdh1jDyPUBU35MCbcwLtG0bACEQE8N5SVRStVsMCqd8wGYGmEOi4AQAmLsSo01JQrFvlEChetjPCwO3ZYIC8rE1GIBcEEDA1WqgFmS5BW7hT9YfT2ugcsfFc7Cf4OxFvlYCCL2VqqyIVb2bnNe5NIMQ+BgH6cowAz0b5P59XKmMYCRD+Ur8zR0S+XEYE9CUJrUR/MconHuhxkci6oNHR/MCjcb4x/HkC66rsv5nUkDDprd04PUUrrosep79h6qj2raRzCWyUDVzpqsKuqswc8ys9yXgySB+sNnET2wZ45ku0kZsO2qqL559HjKUP2MISDsT9XBj0iWwDpKX0/Ep+1IHsiGeY5Jo/5mGcyr90HIMRKD0CkvFksN01dQ5laLvVzahrK0NaO84gamsTUFN0HNLN1X/kSh03ACh3Gmm8k35mpERKBoWlyjj93RD2JAt/IQGVa/2pADkzGYGWIyClqD+1qN9Q6OOcz1VvEo/WG5GR9J52Ww0ACiORWHcI5V/rAmgk64sb0RkOC2G9wlcdfWwbGqR6YrzPHQHYI47+V+ilP0rZvif3GJcQAXy3grb1r2Hav5eih7FC/NxtRoC4DgAFchD5vR917w6OczGMU9ar6PRXSIgknjKPIol/pzFqSna4keNz2X9MbRXHkYTheGrrhmP3nF1v1T9hAyFaP3FSf37N4ce1XYHRCuX/X0jbgaRJ3gn9SoueLRsJZGiISjdbn5Hd9b8RMAK5IaC2g8ZDn4gd4ngXCXBQ0duTGkbDAQyxS3OzilnszT/65kEN1tGh7JY3Ah03AIixyWRdSYkLmg1nViPNdda9QtI4BgASVkUS/b8MqazU6D/plZXcZARyQYDKIH4bQKi8B+b7jiIZniem8cSjKBWP4LGDNU+VMOZ1+4WHB3kuegkw8jqKEeBArp2NgLvlPPgbV7Q0i2CeiH2rNAikBhbHj8hQO1D2W9viTmeCTrAiviMd/wgPfw3l/zwS+lAZqbjWTUaAPmWIenZ/yuPhHF42nilcW5VZrjVFG5LAiBa3XMAhZJR9Rfcq/KG2kKyFF8Indwiga2mjbqadHM7aMLF3yzBU+HOR2tVNpIf1G6Twf53zQ+HZjzKt6hnbe13NFUaBrw8hzNsAUOACctK6H4FdqYP0E8vVqEE0M8UkEqavh/TRcV+IIfRq0rtc14qZ2mKlCqxk7JlGxqHJDT/Ou5A7bgC4PIQPk+nbUGg+cEgIV43M6LDH6FBVPMP3duY67TiRXo30T5H2fTl+ER28qJsE0ixH/i8UAvCcVv/vR6L9wRdC+KESh/QLCy5Ix6xi1A9hWYo9VW1uUmA8I2GvCl9PYwR4KvtHbgxhHd4APxijTt5CnBgCNIho6gIEKPPYOcNbU0fNaH+LkDXS1o9i1b+WKQqstXIEHeOF8PKj2E9wr2sMruRFo9n91DWyGi5bs0A9baJsSt9PgdUUirWU//9E8X+BsPhxCMv2xTBE29URA6XaZpIhnqwoLZzL3vpM2k0tsPo00iobT6mwJw/1zkX9QanSTnpNRqCrEGA0XYbiQdqYQhPp0zTVPgTE9x4SwqcLndgeT1xHDABYxqM7Ma5yx2LmOFu9Cx3ky1CovwPzfIrzLxzMImcjSRjlWv+1bMm63nFLEumUEqUVf1+D0LYMoS2upN7jvOTs549AJVXYi0dpZOG/AYS0WUe4uCf5ra6kj6iOcUHnOmyExOMVeHtiBQYArLnfo74+lwb9k3q5XocbCcjPGIGlIpB4dvoC2tnDQ/gNPHjc5hC+S7+xTzfMsa7jQj5rscJR13SNvFGFcyG1C6UlQJmkz9UnTC+qK//nYQjaL1O4O54vlSOJuEdpWpe1nc9FtnkM01f2KfH0lQq8WWq+6ThjOAFGoEkEaPPURdQNAIWtj5I91QgibCI6ZrLiocip692GCI6G6Nzsqdy94DtiAIAZohLP30vFxSgZf2S/HG45igQdhS/fm1Cyv8r9DWwXcu/3PBaVGQwB0cVvZA7FpyF0m3iorvhchasm1rizUIxUK/vE8CYjkCMCYjF9MkwS5v8onk1Zh6DD+9B6GttR6hluAjsigB6ZhsWoSosiPT8Ej09SL5cxBPQJ+P9ABO+/Y9M3sDWdINblRYXqh43AIhE4FaXqAngQA9Qt8OCfoCBfCk/uQBu8zaKWiwy2MI9Tlyrq4KhP0QBAHxn7u8IksBgJmcZ6qTn/wuYVSpLkAVwmOjLqPx8k60hTSttmvABej4zwcZ6X8VXt+GLb4fmiass9+gCTETACRmAxCKit0+BuVGTjyWLe7tFn1Tmcy9aOTkIWpbaSFGgyNs3+ETDEkxDkRMvEHHeh1KP8S9lYidvcU1eicNBjXsmz76UTfSJWdbmCTozwHM/H1cnZS/luB1bquStiZiUYwfMc0ric4Velpe04Kg2mnkKgRl2oUF/uRONmIHT+UcIDUp2AXw9Ecd+L0SfxLVVrSTQIn09rVJIpAX+Lce6Ca5ivTKWTF4J5f0mQ+qXFIlA3AmB8ugbeO0f+/+zV9sc2ebHhFel5ZSJZ0h6idHFeHXXdEhRbiUKuIRMIm88chlygtod2jq64mIQBIBpxGLn7LG3nJrxWJKvYsFPM4nKqjIARyAGB4dQ/025HQ4D38+NAEdRH/nOXazomvJOz50mBpjeUCzM8EUkKyqBGdTAETGB11lySh/DcC7nxtb3p9NF81l/KasliohHeZR/lpjGUG22EWw8rBdm63TgGCMV5ZQh4HIazk1U8t/hal3KH1AUI1JLCc90RIdyg/Bya1Z1Zs7Y61QOY8xgJzdSLmfVs1ncWuBhHr6iXd68J4RQMCv+eni/7YmILZNu3i4TAKfQLoyhS8P57MRh/Hd5WH9YNSlX0ACAvu18cAlWM+XFZ3nRoyoQirX+ituyLAmRTNgWK02LSOmSTMdKIzEBzGb4p4cbCQjHLyqkyAkbACPQaAm01AKgzlOswI/q70xE+ay6/Pe5J2Yj6DivpTDFFYEoSHvPoHo3A9/fyCmAU8iLCeellGAh4PhoDRjIlpw/Luz6X0fK83RJljyht/pVW/kcY0cr/SqvJCOSNQI2RfNG39Qfvy5NmTuH3omQY49Fj0shiK4RP1an+LUpACD/NdnHV0nTonRHIFwHx/OmpzYUZX8/Iqki6VamJfNWtGLtg9N5VmdnR+uLWMlW5U97ygNKXUH6w9UaxD2pYcqIcQhv8/WSB1fmc7Xaxs+PUGQEjYASMQLcg0BHBic5wHa7ED7ozU9jnU6AlF9XTWJMbM1uViwMYAp5AT/oEjANvQhn6Ktf+GwPB19nfyjtxREiGAFwENUe06REiGRQUDqP/exLYC3DrUy+urwGYjEDuCMBr+l67eO67igx30jlZT89ys0q9oJqFx2r4CdK3qJsihUkYgzLccXxRCkwCrZJmMgJtQUBG5PPgZ7wALtnIaDBMfgb9gFzBk42sLcloaSSqszLU0RmuoDLtpsDnq+MtjbwkgdHmiO6moKMNEmNAs01aFmIb/mkkb1P5qpzbEJ2jMAJGwAgYASMwLwIS3ttC6vhGUBQkuBHp89UZQto12iHqOaVXbv4BBXxSQh8S3/0QANchLH0KgeBKBMJ3sw3zSGVtNkKv1fqbXi9g/F5L/ssY/ZeQ5tF/QDa1BYEaVjCNvN8NL1+qGDFszal04x0TjWZUrsdwsAcCs6pM03WdQPQZwgoGhVsJ+2qlY1x/JiPQZgTOTPHRKfyHNH9I/C0+LzOpnqtDXF3mTOScdhk3JQuUimgvm25/S5VhJ9YIGAEjYAQKjUBUFNqUQnWA03uHcDLK+iF3Zcp/MyM28V1GI6cRADXCP4Dr5ENRUF5C2C9h9PP7XPsMGfwM0sK1HM+pMHFvXpLRYoT3L2O6ARLmC/FcEDWT9iwE/xuBBhBIinc/Bq6fXBDCL/UKPD2nsnN9EpB55mjqmlZhjfWjgagWeiROQ6DObToshJv08HBWjxd6z/eNQKsRQKeKjfC46gV8vi972QJK2y6rQlNnVbF3ZRc7Le1NRsAIGAEjYASMgBFoJQLttErXFRYt6CeSa77knaaIADSFYOt6ASg7WpVf6wU8hjmU/4DW/32MAd/AK+DFl4Tw4CVGFqcpANbLWJBwFWHKmNB02peYFr/WQwiIydim4GfRJaMo3GPZCH+9PsUbM/4qZ2b8qUuPl5bEg63iVX0PWuExEyYEpYOA50qHHjEZgdwQgPH6DoofjwkXYvwVlZ0XNc9dlXUXZWbv8udH2TDNQAAGbVVbPCNUHxoBI2AEjIARWBwCkjdyJzo9zZWvMiSPV344XfPnoejKnx225F8dq2wLCldrBUzLGMDFgVUhHMc0gfcwNHQdxoB3KT2KcbQBt7wx3l+Hu/81fPaMV/6cUSb14G3BjahMPY4AvCrqT27OOKHEUfd0WWfbEvwa6xrzBHaDTw/Ue+z5NU2KM67CDfMTfFyqXPVgzrToGZMRyAMBGLo2ntphmPB/0oKyav/Lyo+qo9EAwH4lm8kIGAEjYASMgBEwArkgkAbjcwl7a6DMSZaiMI0f8vMZQe9n7r5G0POMW8JUVPKRBmsYHOQCPbkbo/e/Z5oAN6fl1o9ir+vzEl4ECivwNYIXcbxbMio0vaDavJH6phG4FwEpNANayA+Gxn4VaU4lZ01SijB2ydj2wGQ4iDyc3l3SjgD0bdI+DGD3EPlVCkTzakxGoNMI0JlccxefWoPnl8Pv8iyLbX+n07XY+FWpVVHZbABYLHh+3ggYASNgBIyAEWgYASnmudIYyotWbdaIJALOMzSCDuUebxZN/JdMJWPDDij/0vjX6+reDaShnnb8nVn3Lzw/jTJpiElhmoxAOxCI7v8oNjcQ2c8UYWRgHcxC1C/YM07MP4x50TpZ0Mg1SzD3uaRA0+TqGzGo/UQPzJhqcJ/nfcEI5I3AcOL127J68fPEn5H/8447j/DpVGRkE2lKWzg05U/HJiNgBIyAETACRsAItAqB3BXx+ogkQzLPYFhDI5KaltxuBXqSaQBShi46glFU9hUZJRoFkQSfxej/wxiFledCKUeXGs2rnyscAlp5XxXmhoNDuF2pO3cOxUB8fX5S+Dk+TJWbPb/m65vCSS47140w2sq5PosZF2JTmkxGoAMIiLfDSawDAC/e2EUNc6xq4xmgZM1kBIyAETACRsAIGIHWIZCrAUBu9vgh1wfOn5OSrRHJdgs19fj+Q2kYb0CJR7KMny38cQhaX+qlKdGdMF4oyabeRUCKtrR41rAMQXWK86j4zAJJ3yhKOfMEVvDMQbJWtZBqScGK0xAub6AOtTBuB2UEZkOgpvqgG1SI3+bamc0We07XyEsX2TJyAsnBGgEjYASMgBEwAktGIM95+HIRjoo3GsOJuGcezjxNUbuFm0lcoQfltsxI6heUgOEG3KLHs3ROsV7BmYz+P/KObEFBDcaajEC7EKihDPTJ6oRys0mR1uvUbAkYT/WNSr0Xyv+eycUl1sHZnl/MNQLpYx0MKVpXL+Y9P2sE8kIAnlT9iPzN362KJ57kFWGbwiVP9qxpE9aOxggYASNQNgRm9n1lS7vTWxwEchs0SYJZnH/M8Z+vyPIsb4Dc4pwL1qS1f0ifjCIt842gbg1iJHP3l8JzjkZSu0Gw3Jo5H5QCAXiviuGsn4Un70YjiAvvjTeQchT/o5nyshy+nYBvW2Fw0+rkMgDcUzdEMD+5JWsLNJAdP2IE5kQAT5TYNFNXNktrZl/6ppoMxLo1nOWaLJmMgBEwAkbACBgBI9A6BPJUxisIMjUEtH3ZP5kReFErlJEspMb+p1CgBhm9vwMp6uN6ZbwBARGPhbie1BUhPAnvgUO3ZAJZrt4SjWXHT/USAtSbaqowt3F800J5H476T7SwRXd9KrdsXzICNEsyRIhu4ise9XRYMckw8X8xEIgOL+J1ttLyZkp4zEvduFEMeJ0KI2AEjIAR6BQCDOioe9BXbkpByJ+xO9tQitT2ZiJzU2rHs5H+KhzwLJbQ34HVyzT6nwbj2wO2uG85G9LU5w4L4XrNFx1eYOSSdyrr0zOMKP2VLCQKpyyVjqSaugQB8aIUbxafvBr+xY4Vp6/M5x5cHaXeMTr/PoxYqm/vx4A1xJcBllz3xPeko8pCGP0Esmk/vAAUB9fnSwdvmYxA+xDAUBabaLXVUCmba9X3lP70sZwsM/43AkbACBiB3kaATqHKdOQ4oJP6iaIDEvVLZNdB5NE8B5ubwgEZeau8AMY15OfqevajmepXEqiXBkEuBgAJMiA6dUG2gN7Z+oY51+R6306S2/LAXcRIvP+piFmQUGmY13WZidaDo1SyS0M4kmefyOi/3i8s8ypfpu5FQB4A8N/1yqE8UziOo4Oz5Zh7mhMdRtn4ysWHGEH8AQ3ap+4Xwj4Y4Ka4n4Kb7e3Zr6XWT3VJ9EP9HZvVBxsABIapEAjApzvA36oriWULkazFJCJ+AlCJZ7MBYDHI+VkjYASMQJcjwCCMdJc55b+iZF99sPpiKA5a7RXHsLILZfunL+4bZ7uFPJ2ZyRbKW1lljPvAn4sBAMVD4U6uDuEMrCv7Is3IbUXKR9uIEqqy7kA/Cvy3UIa+pYgPWKDy8E4Fd5VoICCxL1nFOywCKMUpF5zaBoYjKiMCcd69hu7hv4YX3lPjJD6WIQuD1+VXYgugFf4YXjinslfDpSUtFsvPfXqJlwk2eiEoHJMR6CgC4vPx1BlzvDO8X3aqewDQ7ZiMgBEwAkbACGQIsAbTJC7Uf5AiRX9XV7ILBw/9cH3B6D/byALqnKMGFtZjVKKtvCo0Vnw7+99z4dcIyL/8CQsLcy59cJvBLrBXEXArVPnb5h7XSkWLVQQWzJyEMh6qj7I/XyOHXIsXF3y5xQ8oIWzvVbC4/w9xLH1qThqnYNehIH0/hP1hgqelYRgFYzICnUCgT+Ze6g8sGcLN2cj7gumAYVXlJq6F5zECMPgfTqMhfgPTYV5LxRyAt1UPGp2Oo7AG9AUAKHoAbMiO/W8EOorAepr3c+/ta3YXo2orcYNdSdJEHDmZ6ZrYUaAduREwAkbACHQEgSTPhRF0E7xAf5+8MdXVFZJImOTWGv3XUxAyn6I+reh9stInpVVyLumdJg937h3CjeD9Iy59n/ONyM/XPJrPDfNsXb8NkrGRy6sqG54rHbXcAIByMIgSPcECegeB0glSogEs8Wzb8JmmsPox6dyApvPfivXMBUb/9cwtmfyokvxzRkxXojnJMtSooqQgTEagJQjAd1rIrwIv/oHj3yvQNYu0Nq6Ff2m44rSXw0J4HZ45V3P+wZUhrKBuNGQE4PkqFaCfBv33NIy/UjqoS1w2GYHOIoBHl6aaVTHuyiL/oK29cmeT1Uzs0QBAnuInDZsJyO8aASNgBIxAdyCAwBXXXWJ/q5Q29XtsRRbEKvL8ZiuFrJgSKXlCOPcjUOzM+ls7I/vy8biwToYBprLfvBGvWpTZr/H8N/Asv0YyNreUyYFx9iMlMwS02gBQWZ2UFJSFs1kxfIBPmMky0up4CHJemsb61E+hffAo5lOOET+FOq+FZpSCx3AxfWkIuxHyc2W4oFDFDCYj0HYE4L2aFgCEaX/KoiQ/UQLYz8vDsyUS/pU1U67S/bx/HkaAa1D+N7AuwFoMXJreIuPcnAY6vZ8MAL/CcPDbFAdBmoxAZxGgr4nN854hrOZgT1WOeKGzyVpy7Ep7quC/W3IgftEIGAEjYAS6CoHxTEaT0n9TvY8rgRAmw3wpqI6pEivZW/0wg15VGTE4lGGgHzl4DQPLp3B+CnP0JjAGfJcMaoD5v7kfB8d4t28DzzNIprIqfBHNKfiTqUXTGCCNIMMw75gB9PC05L686HCaeQHEp7E2DKHcbKbkPqqwhpNRYr5wj01KEAX6LJSjPTAeTFKA7TZczJdE3+sxBFLlvE3ZHp1HSV8IFjVEqpcXsCgnRoDreP5wfIzPg8/F333UmTkNC3o3teI/r1s7F4rP941AOxGAiddSV9aov4Fa2qdlQeb/r3qmhGM4v4v6SPcVVwLk0GQEjIARMAJGICJwvTRSOoZS9nMlKUO640zp5wC9PwyCd4Wh/ikp/mxTyMRDrBF3LAPN/0Z5XMNUgffj9f5Ynq9qIFn5HCuB/pgLEwHWySsYkcFlQlaQpD8IkvyJ+KYZqdRI0KePYArAaFZRSNL8NEKh6lkefFH06YhBzP+O7xqBHBGor7x/seI4nXoETy/Ix/Ol51SmOOEuPYTr0ha2Z9zJmgDyMmB1WRkCEttvGwIR1r1gfqI7M863fdBnRqDNCAyn+oDS/Fg6Y/GmbAC59Gl5Z00VO3WUt7GPUwCon7psMgJGwAgYgR5G4JbUFyAD/kijNezVz7l/yJknZgAM5FFOlkGgnzKYxpN2kq2KDL3rjiE8n2c3bsQbAGPAEZLVR9ApOR5MUxRzTunSgm+ZsETmK8qwkoFA9mxpFIAggYxd20gGh6HNREcaPqRYz80UmBnleN+0qJB0FQXptBUhPCq5fSgLJiPQEQTEsKmF/5kSwGh9S+oq1smJ1CBV8AZ4E/XkNCrpbShQati2NwLMrDfXKx3jW5OlM5MR6AwCMKbc8qKlnRScBB+LZvJrdqU8/3WD3+0Hh/A7Jfui2I2VJwNOqREwAkbACLQeAVzKY9/G30/QT+7CSCx5MHV7rY/PIc6LQJwSwBPSG7VOVxVj/ZQKCDn9qZTNJeiUH2N7BANtk/II4DjqmPOG2oGbLVEqUrqRx+Jy5fuzOxHLiDi23ZmeRoGXFeK7h0VdhcnOCwuFUoSiIAkYL9EoTKxp7E1GoFMIUJn0CUtZz+K8e1z2W9bYq0ESj6tRQtm4AL4/BKPZZTReQ1xXXYhxEbcei18A4Pgmjk1GoCgIwJKY3EN4OLtjVFcgNd+lJFU0JZ5M/UL1jvO+UXdFpSxLJ9oIGAEj0GIE1EXoe3qSw65nLrqobgDPzvzfCQQkh0iPjgPGmiKgQkGWfha7K5Cx//HazOt2coxnKMQot3CvENQyA8B4BoKU72fjDjEECEl/aVs+VUH69QfCH1asAl7Kjo7nIkZDB3m+emUIj+Hdk1KiW4bLXPH6uhGYB4H4BQCG4+9kLQp0nBDOX4CP5wlr1lvwfE3WyQuYAYAR4GfXh3AUjdcHWLizH+aP6wKoLnFcYSqPrJu/mjUgXzQCHUBgPPU38PGz6WwHaeTlvVJaA4DqozodLG8/FZzjWf5UBU1GwAgYASPQ4wjQGVTWZv3cFXZPLiYz0I8PkbIqsvQ9CCM7IE+/Dvn5ystYL2AEOVr9POVYmOJrlaIb3f+Ta/HTZZ1iXrEG48lvFMzi1ACO8yStmt6HAv8rhEEG/uN30+cdNVWFWp1GO3nneVJ+eEFpVbpNRqBTCERlACb8I6tpyialqSywa+vpVBoqeQKsw8CAJ8zzcWV6mSLC0qxG6u7UUm2mUvyy9bE7RCOweARGaedHaKfhW3T/8HxcIkWF6VSz5Cz+X50O24/05ppk4Fh8KH7DCBgBI2AEugkB+oXaeDJwI599C31FAqEM3rnIhd2EXTvzkgpDA2jLkJmnMQRMog8fgFVgXN4ASgtlOaXB6Xama664WmUAiPk+E2aEI597M3OLGbncJP9/FJihtMiYFGutCZAXw1aTW4wW//u9lJqRTJmfK+8aZYlfLbiMVf956Bmk2WQEioBANbUOP8Tii3d+bDTyqjdBngAErkarj+N30LkMo1T9BgveSlnQaLBu4TyuTF4EcJyG3kaAfqau7L8cb7MHMvSvvqVVfVmnwO2XIYO69r9KAMe51fdOZdDxGgEjYASMQHMI0DFcglB4N/qVPJ7nHeRsLia/3QwC9OUy0AzSl09JQEEXfh166TdR/veQJ8d5BTACtFRoIsNV3Ik3Hsbq4gzNHIK2fxJaw/tQrH+DoDbANkiEPBYFtmTEagbibd4dYPRSUuAHdJXjhgUo3lnH6P8a0qlyUqGZjEBHEFDlgKYxmoloK9rzORHVXbYaEQ4dzvpjHB+C68GFjESqIv12mIVnlBb27nAEhKkjCIg/1XnSke5DAl4lpRmiCS81xSk/9JdbqGvXKSd446h/NBkBI2AEjIAR2Cp7IZ9JLrxcMqLkNkNTeAQ0YFFDF55ABx5BZtGUgKPWcU5/39F1AVouOMmqodH3/XAtZjTxa2wvWsnK+ixidhZK+flw690yBjC6qM+aVQBAC5JJ8W6GkScJU/TVQ0K4ahSBcCQLM16c7Y8447QF9vrM2Z9J2kqViZ3JCHQUAdULUbudUmpSrqRkUW9/zXbir0P4KOm4g0oRk7Q+Jst/RqD9CMCA/eLPFPO7V4Wwio5DXmUt78famTvypU8Jia5H8f+lDur1TccmI2AEjIAR6G0E6BOq0q2EAsdfZpNQpr4vyma6biosAiquIXTge/BU34NC+9bGEJ7Oxalx5BoKUPfbTi0XnGTVQHGYxBCgTA2MwqCPxCUfq9XHuH4G1x4FCK/awqrjHNc07x5jgCwkSouEOxkDFoUG4fTJesD+/Xr33AZe35DFp5XQj8eSduhdmQEiyWEKxWQE2o8APCzqk1YD/VB/w21u4KVk1TsaFJKzqZCvUDpEo80Z6mIY/jMCi0VAbfx4atfhzTdj8H3i5kz5V99RWlKvz1b3+LlKx+o7uZyagtJmzQk3AkbACBiBfBD4LP3f3XQUGkh1X5EPxnmEuoxFAScRWvrQOzdgBHjeSAeNALkJTxgCogsjnAl/hr5j2YZRHji5nvO3aSPzh7NIgqwgZzDn+REsPDYkl06sAFp1XEyt9On9+WgSA8IgleF6tq/owfWLqBBYHZ4nVxoKRYaHQizMoDyYehYB8X1/MgDwcYq0omWb4XgsjRQJkXdM9XEh/LjN0Ts6I7AVgbpCPEIbjfL/Mtr7v8GIXIM3O2Y535q4Jg9U2aG6x8+lOlm9cJ+nx0xGwAgYASPQQwggl0k3klx2HfrTODrTKeg96gtN5UFgEGVzCt1TnvD/eTlyDANt7xvjnLKdpiyTWJB/hnIzANSTnjKjDEUXfwlzjDBGV87D8ALg+mUIdaP4Og+j+J/J86cyurNG7zMqr5ekmIu/5SGg/fZUkwKP4eBTIyyYpvDrxoftH6yf159B2tqL8J+CMCny6H+Gg/87iAAMHr8BLqan0sgjpmNEWmKdJR3RENCxhDjiXBGgnPnFr6ZoIch4nGuEiwicznFAxii9Qj/xStzn/llGYijWk+yw1P/qG2XA1rD/JcrJcKp3OjYZASNgBIyAEUgI1NQnclxFIXofAtopheqwXUyNIjAg3ZaB5wH01/eiCN99ONNtkXGkh6bxv0aDWvpzuRsAtk9aUs6nR1EqziTzB8DIMPAWnrtAGxLQ/RGGnohU9KecH48xQJ9T0Ai9FCIdimQM0DaN0DTE4gqTnHxKNxoZPZEBIr17FlMQluOFoHDbjoXSazICMxGgUajJDQWGvE2b7lFPpCR0jKif0RDQsQQ44lwRgLli+TKa0Fbrc4OZmrw28wx714oQXqCOApJ3mdrwbqApcNdKwT/BEH2dMrS+G3LlPBgBI2AEjEDLEagbxFnv7HMYA66m/ziQ/sM6TMuRzjdA5OpoBGCUbwCZ/yMo/zdTtl+TEaBexvmmIFOi845j1vBHETpRxCcAQS4t/WOAwL6Cu/FvcYf4KACcBkc/enMIr0HoA5MQMAYMMAIkRZ3X4gqKkzC/tKNvaPE/DsPwAsqKRv8VL9aGZbx3VlplTcYEkxHoOAIwdpwPDG9ef2QIP0sJ4tRkBPJBoKiNH0xf2RjCkxFurqbtl/IvQ4W2blH+VaDR4Mf+4hE82JTnczts8FOiTEbACBgBI1BMBMbQg5AV5QX39jRyyaGpTAiowJC9ZASYlEIL/TcD4AdI+U+eANnVHP8LMeotpUd5BJDKKJgcy3YRgl6ae/xWbr2VydBHYQx4Os+cgcvEvhgChu7ihsxegPgxdvo2xhBhzes2vSozIEyvJhyMB/vjWaBySPgrFJMR6CgCtaSQpcHOjqbFkXcvArHNS55Vr0DRXkdWBxlRUHvYcSIRVdKyA+38gaoP8tJiX/o5/9sBK6wH5O9HYXxZ98bJ40jWrenUZASMgBEwAkZgGwSGk86ETvRh+o5zVjJYij4k3cfrmG2DVLFPkrA1iAwwSRmuQujf8J0QHosR4O4xZIO8ZYFCGADqRQQjCw9t0SU1jdbHEfuDQwCX8B2U/L+H6bVewFN58BkYAP6AIv85hXFAqhQ6no1GsRWckgwExHWWJlsgAMuGoEOTESgCArBmrAS05yYjkCsCFRparaHyUG1qeItE6gQ06k+6NE1MHmLdRtNIawPk8Rb6s293W+acHyNgBIyAEWg9AtKVxpKCeFkIb6Rv/CSxyCtA/WUaQ2p9vA4xNwQGZcC5H2rsHaztQCxnXURZjlKWbFEfziPmQhkAts8gQ1LyDNi6XsDNALEWN0muna8Nr4B/AJk9dA2mr8D80ZNg+3Dq58cCJs9MbQzh4Vx7Iq6lsjbomskIFAUB8bFGBLF1beVP2NRkBHJBoMI0qCkU0Gm1obnEsIRASYjcG5UeGWcL3U8tIXv1V+ICtmD/naNC+KXyuz7Hzr4eqfdGwAgYASNQbgSGU19xOOuf4TL+53g3n4RyJIcyGwDKWbSDrGc3zXTHZ1OeFz42hA+xHxzNUSYohWAlANiQk+LnkvrH2V/ENbwCfsa1n0lwQlJkNz8N3/vM07G0rMDSorkXHv2fHzbfbR8CdaVHms+PFO141pjLS8VkBPJCQP1A7Avgu46RGnDFv2BD3rEUtjTi+BnDVLE/q5A3ZZ29+jmTETACRsAIGIE5EaCvrEpBRFGUHvNqlP8RNP8hBkU1YmwjwJzIFfaG9NgqAzJa4+j/u4q17Q4K4RfyhE+D4S1PeNmYRELT9AgjVudmI0T6bJVG8BeUGXkgegiowvD8M9O8ywXfazniDtAIzIMAvBmZOTXi8zzpW0agdQjUG0LtO7UpNzPT0brcFTKkGhaXPqag/QqN/4tKoTzcCplSJ8oIGAEjYAQKh4CUf+k0LJx+NYkbZfRYNK8ndPaI/4uIAPK/1gPQVICd2b9VaTzzXrGo5UkumwFgKwBS+tk0N7RRoSnmleePY82AR23hPYRNj/5vRdQHBUGgT6OCmAC9BkBBCsTJMAI5IFClH1Ln9cWjQrhVQtxIth5NDlE5SCNgBIyAEehGBFD+oyMZxoA3s1juRRgBpNfoC2umkiGQBkCG8E6vsgDyn14WwsnScSUf5JGV0hoAFgvGhvQCAP8ZCy+JpgDWdSTDwv/FQKBKhezDOFVDMfhFMZLkVBgBI5ADAv2y8NEffVhh35mjlT+HtDvIJSKAwJFkvCUG4NeMgBEwAjMQUJtCoxI/jYtH2XPoS25jUd8hrtU/LzfjaR+WAQHKTgPcmsexXumVp8doPNVZ66gnDACA2ac5FJeE8GCgexJzZUSDXDcZgSIhILdgSYi3YQD4SZES5rQYASPQMgQmV2F8xk/zwsNZAJD6Xhnx6H/LwC1yQCrrIqfPaTMCRqB8CNCoTGuU+OgQbqSNOSu5RQ+y93SA8hWnOok+FqmXl+DhV4RwtrLAVIC4TlMrs9MTBoBNCTjQeyruMauoEXKZcUfcSk5yWE0jQMMdmZJKOcWxlqkwGQEj0F0IqJr3SUDj4J3K2ngavdGxqXEEEI5iHw6OlSJuysmN28kZJFjlbzICRsAItBQBRomnZAQ4LIQLEB7P0XoASclxm9NSpNsSmIpuWn/ICi+nAPv42t2EFgRsZexdbwCQYCDgBBpgPjOZw1K9aCWUDssItAYBeHYK4TYZcVsTpkMxAkagEAho9F/u/99DYPuiUjTsUZqGC0aSLH14bBuvTbjRmctdsnCbMkU7HkUOBC235w2Xsh80AkZgCQjUtB7AKMoifcvbWQ/gn3emr6HNVNujptNUIgTo0/qTF8CheAE8RUlfvdWm05qMtNyloDXJal0ojP7HBTE24kpBqI8DUFHXGz6ybPq/bAgkxryT1joarYbdcJetCJ1eIzArAnToWnh2QBohx2+V0jrGOfu4iNOsL/niNgiAlbCLCyIxn0/zXCfGWywUbRNhkyeMwmnJIZVv18taTULl142AEWgSAfUpo6k9xBPg1ZeHsNMuIbyY78urDZJ4ad2nSYzb9Tp9m75wdw+d3TL01ucT72dGKEeuN/TZ+0bS2fWd0gHJ8g6Q6zTvkgUy3Bk3whl+piMIpNb513z/k0HCSNR3kxEwAmVHgIo8vRLldQsrNTNCs0H5GfbIcEPFKmEoee8tp438DK6usuX3I+DW5OpaYKow+CChbddo0S2wsaLAGDppRsAINIjAKH2KXMXX0d/gEfAS2soangAvkRGAdqhG+ymvAFMJEKCcBtFZZfQ++dIQDjoihKuy09Z4dHS1AQDw+gFuaox5/4D2ZGn+kHk/w8H/BUQgTfD5mZIm/mVn11GBYTIC5UZA/c6glEAq9BuUFVzYh+ifkl6oK6YGEOhjhev9ZSgVoOBXaKqnUcYLF3Shi8qJMwJdg4CUf8mPtI/TGJv/AiPAZgylr9xMDrmuL6ANqG0yFR6BPsppAgPOEAacp5Haq8YzL46W6AVdbQAArCgfoP0fz1y8fRky0DxBW78Kz/O9m0AxLNs9CQG5+piMgBEoMQKqwxK6dsIAwPd9P4Jr5tc5l3BmnXAJ5UrjKOG2VERZiw1ktzAZASNgBHJHgAZnuu4JgBHgVXgi/Qrj6f8j4gE6Hi0yncu35XPPWI9FIFkhKQRPozzXjyBLtAqCru2QAE0dbvQa5GCdJuKxn+B61+a5VUzhcDqDgBhWgi2bdlod3GQEjEDJEaAyTyNpDbIo063U8dcoO9H/v+T56mDyZTwp1QZWljs6yDCO2gj0IgLJE0CjyH0Ynv8Vrf8MlP/NDIpK+ZcRIM2s6kV0ypFn9XUMXqsDOWCfECjGEMZatKZM13ZK69H3Aa6G68sDYP6TBSD75GEtCE1GoLAIRIPfcJY82NZkBIxASRFQ/a0t54/O9lWMxPyaPmlQgllJ8+NkGwEjYASMQEkQQA+qog9J/xlgTYDzOXwMUwEuuR/9EPekE9kTrfhlObUyK8MTlVSmc1B0zVPXGgCOTRZ3JkqcBKNrAR5Zu7p9ykPzHOEQOoYADXQlTezRuh+BBa5aUsk7liFHbAR6HAEq8AT9zwCj/586JIQPqI4jhLXMha/H4XX2jYARMAJGYAEERjEC0BdNyfiMEfqnbEcyHe2fJGDiDSAHaelHLZlXTjim1iNQSSMGIwpaMoRkiWaj6VoDwEWJmUHoGQBlMgJFR0DrU0QDAPx6a9ET6/QZASOwIAKTjPwvQ9C6aUUIL9XT45nrurukBaHzA0bACBgBI9BKBFD8J8fSQCjHf0NH9ITNIVwpbwBGR6UPTiKH2hDQStBbE1ZFFhrogMtC2IMyqo23wKO9Kw0ALJTQPwoTY+3aB6CG7xJsHv3PUPB/kRGIBgAq5c1KJAtXwr4mI2AESojANPV4UFPPqMTPXotR71pGWkY8+l/ConSSjYARMALdgYD6IOlI8gZgJPlb1zOvHCP1q3BLux3X8kH6LemF8lLTZmN1MYo9GgAw0qxBnniUkrQmebk3kzwVdNcRwlZ9rv9TYOjlmLPEyOBmMgKFRiC6+cCov1AqbzTPFrqwnDgjMAcCUWhawU0OXiIhC4FriH7Jcy3nAMyXjYARMAJGoD0IaA0aPADilIB0/DZiPuDOEP4NV/MtfLFmgFUCNWVaupP6LXmomjqLQJWvOIgerT8GF5o2znSdAQBEKjMEraeLeyHzboaD/wuMgJhUNZotffWjwIl10oyAEZgNAVXhab7b249r5dtYsvc/uNCHkGXlfza0fM0IGAEjYAQ6gUANI8Ak/VNlDGWf41+zvRyd6TGsWfPvuJzfpk/XYsjWGgE1nlMf5ukBnSgpygj8qxrZRk9AxY3rAFRVds0kp+sMAJtgWAFyJUzM7jBpUiDUFEgKz2QE2oWA+bVdSDseI9BSBOiPw9QuCFO3h/BfCFOvUujrWxqFAzMCRsAIGAEj0BoEkDdrI/RbdF59mhbwuBB+TN/1l2j6BzE14LVbQtjEWjZ9GLWHUK6kM8oIoLFVLSyoY/V7pjYgoIUAwXxPRcU+nepsaSQXj66iulsEyDwJ9/9+LFnTAFWfEtBVeXVmug8BtaS0qGpUTUbACJQEAfoYWeOntZjSbSFsQID6cyWda/pevTpqkxEwAkbACBiBQiKgPoyEae20QaYC1A5n8VrO38T0tbftFcIJDKY+nf7sZNamegCKY58WpdNG5ybvAPVx7LLRVg70GXZtkXSeDou4K3LatsErFlAID6aMViBjYJtpDteuMgDAqP2AEl1aLg/hNIFFyWpnA8A2bOSToiKQmFW78LDUoBY1rU6XEeh1BCQ5INxI+a8yQjLIyP/H6IPOEi5jeAJwP81C63WknH8jYASMgBEoOgJ1HUr91zDdG32YXP8v0HZ1CLugdT6BaydzfhT93v4YBJbjGRB1rOgWwA1ZAyTERkE2k2N5dHZPAd3YnghfRoX7ENe3Eve3Ghi2Xlz8gYKcGeziQ2jTG0qkcGW/BjcMxI2wZbzJtHeVAWDvzD1l+jKmR5Cxw7QCM9R10xyybPm/GxGgUathaU3tZjfm0HkyAt2DABU1epgxV7IP5f89CE9/odxRjzXyb+W/e4raOTECRsAI9AQC9F3Sv2P/JUWb46hHcYCDW/i8tlGuYQV4BNaBA9G1DuHe/lzfi+0BvLMj5zIMyDJQ4eVZlXWeiQErspmkyHRv5nWdSzCuX9v+nFuLIr0vhTrpiYt6txMPk+/4lTDiXg4+zDQMv2o2HV1lALg+KU6AczoCWYX5K/JQiWsCNAuU3zcCeSJAYyRLqxb6mIJhxbcmI2AEio3AJHV1UB0MU83+DuX/zUquPNGoy5ItTEbACBgBI2AESouAZFMSH/szKaF4Vw/wZRvJq1OjrA/APW2fZAs/DmHZzSHcj1UD9bm6XRBkd8KKoMXr1U0O1DtFuQsQVg1drZ/7A5wrjq3EyQBbH/drKP0yIOi+5ON+Ni2GJ0/vqgzw3JNdICZQ4SoO7Wejevzcq/DMBC8qnW/ieEfuKRyCKyaRzvrI4HIwkwGgaeoaAwDMIAvTNPu+KzAARNPVdkzVNFoOwAjkiIAqODRNQxTbqfp6Ftll/xsBI1AQBFQ/qysRau4K4S6EnOey2v+nR+l7DqAfWpfqb0HS6mQYASNgBIyAEWgaAWRUVKxsgEq6FsaAfqYAVCSrYhSY4r7WXccGELem48s7gEswUKAEn4vWX3gDAFhEDwDSq8+FI340T11jANiQWW6mN+L+j6npUAQzuZDIimQyAmVCoErljhbNMiXaaTUCPYLABP3KEB5mWmD2e/Q1Zx0Uwo/G6Gsuot5a+e8RLnA2jYARMAI9jAD9oOTUrbLqKDoY3m99q6PqVWxg1pDOtXgAkIfdSCm7aNmYdZpC0XIiFwV0BHlUNE1dYwCoMx0leSqr/wfmY06g/OOJYjICpUKgSgXXCKPJCBiB4iCgOqlR/yHNGWR62VvO5xNJo1zTqslaOKk4SXVKjIARMAJGwAi0D4HRGcaA9sW6tJjQDaOrP/pichZfWjjtfEtWCtKtaRPyAGiJbts1BoCRVJCAdIaWrIRiAWeH/jcCxUaAip2ZIVH+mY9kA0Cxi8up6x0E4gr/9LYDKxj1R/G/jCGPVxwewncEgZX/3mEE59QIGAEjYASMQCcQQEeQh0JUFTQNoBVp6AoDAIjERZeY+38QwtmhWzJkuiJvrShkh1EqBLTAiQ0ApSoyJ7bLEFAnG+sgnYgU/z7c/W9B+f9H5jm+i563Osb1W+iMPfLfZSXv7BgBI2AEjIARKCACCCZR8W+VgtAVSvImDACUlRYAPI25mVqRWW4dXZG3AvKgk5QTAsmkN40vcazfd2bWvpxic7BGwAhsh4DmM07Rj/Qvp/+Qjx118Db6k/dy+DaU/d/peY36YwjQgkc8ajICRsAIGAEjYASMQLkQKL2SLIsIgljy+g+np4mYSZcqV2E4tUYAfp6GmVtl4DOgRsAIzIOAlHi0/ir7abYhzfFX54HifxP18MNYkt/zuBB+oSDGMAoMZ895vr8AMRkBI2AEjIARMAKlRKD0BgB9kxLkJ/mcwwEoT4fKEoAAp+9FmoxAqRCQ4sHCFRpZLM3CJKUC2IntZQRmdgk1TvQdY12Lc/v5UHE/C8eGzSF8m+sfoR/59FEh3CrA0oi/DASulwLEZASMgBEwAkbACJQagdIbAPQNSpUAcwBO1OgNn//T6KkXACw1W/Zu4tFIpndOisawXYx7lxGc81YjoH4irqDL93Mq+oaOLmiaDav6X8u6MV+g0/gMrv3YlDOS4q/7nudfR8R7I2AEjIARMAJGoBsQKLUBYBRFf21y/0d4OzFaArJPUWhNAJMRKCMC/fdka1qE8WTcKmMmnGYjUCAEasznl9JfwUA8Qf36BdvVpG+MjuJ/Ps/x6IxPGI1lXmXBin+BStBJMQJGwAgYASNgBFqGQKkNAMdmI/36DvNDGTk9EqGLlsB5AAAoa0lEQVROlOwA2Yn/jUBZEICHRaqTGqA0GQEj0BwCsUqh5Fdw6X83E/c1yv875vxvQrlPH4vJIhij3mlV/zOz9QDs6t8c7n7bCBgBI2AEjIARKDACpTYA1HFFoHv8jiHsnNz/PfpfB8b7UiGQDAD98HNX1MtSge/EdiMCMgZP0yH0My/sQOrXy3Hxjwv4jWI8RtkfuBmFf4QpN9q6EQDnyQgYASNgBIyAETAC2yNQ2rnyCHOV4Wy+v+b/nyKNCWlPQpyEPpMRKCsCAwz/RyMWRi3zcllL0ekuCgKaUqN1NY4mQT9ksdgHK2FS/jV9zIp/UYrJ6TACRsAIGAEjYATahUBpDQDrUY7QjmpXMvKPMeAJcv9nX9r8tKvAHU8xEZCmD/9q62dRMnsAFLOYnKoSIkDd0gr/E6tC2BvL2leuC2E3Kf/XsmhsCbPjJBsBI2AEjIARMAJGoCkESqswH5BGRxnyf+zyEB7yx2wRJytOTbGDX+40AlTIPpg4egA0mhaMBvrspWwIJiNgBGZHYIhP/E3sFMJapopddGkyApxnI8DsaPmqETACRsAIGAEj0LUIlNYAsDopPGTgiRgARHb/z3Dwf4kRYP6/1gBo2AAgxV+eMNrG8BxAoem3MaDEDOCk54nAEJ/1m2BqzVoq2DgeALuu41yf+8szUodtBIyAETACRsAIGIEiIVBaA8BIWrQJZeeJrPAsKm1esuT7v9cRgJc1jN8HI0de3qGBUX0p/lJkvsOmOoFCM61rhNU/hkGAvetFrzOW8z8TgboR4FF4jX1TU8j0uT8bAWZC5GMjYASMgBEwAkagmxEopXIg5UaFckUIzAQIBzJnWtTwqGn2uP+NQHEQgKfR2yNJaW9oKstYeg6X5mEmM//v5SG8A0XmGCkzBDYtgwD7KgaCISs4xSlrp6TjCEQjwKoQDsJtbIx6FI0AqicdT5kTYASMgBEwAkbACBiBnBEopQFgU1L2cZU+gTmdcnm2+3/OjOLg80cAPo4eAOwbMgDUU0Ql3ryCOc33C+GvePFbXP8eCv/fYyA7SM9owTONcmp6gAwBhF83NtSD8N4I9BoC0QhA//EYpgR8k3pxP9UT1Y9eA8L5NQJGwAjkhcBMJWMcj0TJH72+5YW1wzUCi0FgUYrGYgLO81lGavisc9RiTtCBGhNrNHki7rDbhYA6S/g59pk3NqioYwj74xZG+rWpLqzCK4aKfeAdIbwOheZigvws7jFfODiEn3Ec6w7P9W/g5Ezeoe5wajICPYdA3Qhw8B8wAvCJwBEMZX+QEUAGs55Dwxk2AkbACLQIgbpQwR4RJaORNHW3fu790hAA077xEk7vvKUBWROZtM46c4Kzfs472Y1zFw4DsTcEptkGfUGuLJRkdaU9pr/ZdJfOADDG6OgIjQhC2u5wyWGa/w8SLQGjWTD9vhFoBQJo6DON5o0EqVkwVZT8Ad6duispL5wPskDmMPeGufaPG1n4jIryKa5fwJ4vo2UkzwAa3QoGgZrWEKhf994I9AACMgLcgyfAIRjMvn5tCMetxaPGRoAeKHln0QgYgdwQkFCeNLlB2tP74aZbw9tqAJl9q0Egt8gLGjCyV4VtUn3MUpMIphrwFIY9i+NC2I0u9ECSc1H+5T0eCUwTu9avFGuv9KnslUiOt6a7mVSWzgCwJilHgHDYshD2SAsAgofJCJQbgVSxl+KDzOB/mKQSaP0AdQ6xXtNCTNPL6AsB+rTgThgDnkSP8SQe/g3GgC/w7HkYBi4ewYOgjhwK0BDWhNqhNDC8pySZuh8BCRKLNTp1DSow+TI8ACaYQnMY+69fFcLxzJ25S3UBQS11MV2TXWfECBgBI9AOBAYkmECPY/uZhBIJGhIqkC22oe2vddN5PS/spxhd2YW8X8jxqZKv2Pexb1iRrz+P/DaMIeEkXpziWmW2zluBEjaPhYEUF7ttSdd5TtPe+nW87d1tzrSuVN9cCVX8KZz7xKFQuK+wK3pmtrTqGYWtONgkx85HCmJe3ZX3lR/lfU7iGYWzim2npE3P+/ycAbXpRsKkorRyjOjePM0LYvPBtz4EKScKlcI9DgOApDPhUbp8KA8mIzAbAvA2v8YJ5t9M4znBSzuwpXYiBlJv0Gp0PFVGOmUMUGu/B2sGvIjO+EW0gNdhnf8873/m8BA21hWeURpHFKDBDdQvjtU2m7oUAXhAHbvKWB1ir9KQjAB4Ahyh6QDUiRHqwhb2ng7QqxzhfBsBI9A0AsgcAwgiOzcdUMkDkGsl/UvA02wrFshXEskaJhZ6lkynaZunPTCEVxLW1k67HtBWAZB79WvzRdDIM3p/oedmxjtXfEV7RkKPjFSkS0lbKItzZatd12sS0CSrIfP3ngFArsoz5mY+XoUHNcJT2ZP+NwIFR0AVnMnHuyqZD2uQt5nHtJnW4B69O0crFhfdqbduhF+l45DhbBBDwCMxCDyS89fQuVzC+5+hh/n8wSH8eDSNfqYpAjzu9QIEQpdRFcFkAmPqcoypEiwir3RZHhvNTjQC4AlwOPNjvs6nNY+nv7mbOqERlDRI0GhQfs4IGAEjYAQkk9B4atfrNInspS/NbF1f5swl4kJ/tPl3BMQgjqZ/1gd6lowv4UX38rkCSPfjbY63IRWsrrHf/tY2z7X4pFVxKRwNILcqvBZn897ghHPSDybQfRmnaJ5KNXK+OhXSpSHsT9YfpcUbAEUuIyYj0A0I1GjJK/D1/ReTmd+jwOHefyf1YE2D76nODFF3alg/1RnJsjiEIeFIrh+Jp8A/YAwY5/oGOpgvHR3CzfVw1cjzjNoiU7kRUBlWUPz7KOO3oPw/BqvTU27L1sSRc1Wv0hDGME0HOJIe9kKMAE+E3++2J0CvsoPzbQSMQAsQoBntearrKk1jQefdL799+m711dILZ6XFRLTQs3Pdr1+v72dNSEEvlkmQBd/oAcB+M4V+SysgnZNxWhF4XmGQ6MetCmElmss0YJQyD3lh43BLjUA1MXM0ANSnu8yVI1qA2H7xMPpb2LyYBjg1fHpF/cgQFsVpvAgmWTNgGqvgDngGnLIyhA/Q0Fy7MYQPowCdhjIUpxjw7mKimiv5vt55BKaHsjT8hpHuP7k1hCtpVyVQiJ96merTAY6mclw4hneEPM/whElw9TI0zrsRMAJGwAgsFoEkcy32tTmfV3hsmtY5Z9DpmfiAjzOgZuIwJ7gFvKF0J1eP3zFIyDhdCMPzlL3uL0SlUZ7JfOUiXFSVIRj+8QKCvabVsDMZgdIjID6uW/h2aSQ3dfex/bJR2zubrMyqUjIGxPngMgTQwsgYsDsT1s7Gw+B8tJ/rMAacTUJrmhbQSBr9TKERqKgBhRjwxqLKaDdlftWOmaJrIwCGEHj/aPD42rVgso5zeQIIK5MRMAJGwAgYASNgBNqFQJLxNWCjpQtEsgssmZrUGZYc76JfXI+iP4oB4IJshOooT8hcNIR+oQQIRCtA9nlSmfhUuXVpVqJOzKTb53xw5lMLH2sOuFzV4iqq1LMqrtATeCNMronLEoQXKIhkfGhRlAsnyk/kikBU9h8Zwu8xCBwP311nI0DEuz4d4PH0ttEIIE+AMS86myszOnAjYASMgBFoDAHkNcthjUFV6qdUyGng+wZlhHLXKbulU2kMAOemPOLu/HCAOEDmD/alWsNg6cXkN3sBAdVkVXIqZUN8TZ3YOhLPe7fnVJkVrFyf+3ARV/rQDeO+OpolV6emciMgtgtjfBLnCIwAuFkdhxHgp3gEDHFDS630MkUjAJ4Ax2IE+6o8AEZY08qeAL3MEs67ETACRsAIGIG2IRDVA3lscvC/ivXybKBO15dMOekMS07PnC+OR70oZl4umQJhkq006Z8zY75hBJaIAMpZjZH4qLxRF1i/LR+NXC0MkdS/NXv/S9Iihce6/i2x5Ir5Gu3qPfKwOjyE32AEGLkrhBtZGDKuCRCZrJjJbkeq6p4Aw9SFL7PFr9HYCNAO6B2HETACRsAIGIGeR6BfK3Yji/1ASCCbNS2WlUaBviXq/JEBjkmJjt80j1f8ZwS6BAEtcsHGgGNc4KMq5Xs+wgoYGwGeu1XvQk03Clkw2/4r0DTtZjXuCWt0l7/StB/b5sZncyFwKkYALXaHEeAmeOq4LSH8ekXmATKRC2PNlZDiXa97Ahx/RQhf0RoYmg4ARg156xQvO06RETACRsAIGAEjUAIEahI0mKt5B3I4SxLF7z8upB4smK1SCPDksrKOBcnItVyRj8QVUzTQdO6zcPxvBAqDgJR4FK0Hi+fZVzc0qGTz7M1pQTfpaS2vGkqP0kYF1CJoD2UzdSkCtLUTMgIcFsL1ZFFGgN+zCKQ+GxnXCujSbDeSrbonwAl74wkwSt2ksk2N2QjQCHZ+xggYASNgBIyAEVg8AjUJ3shg1zNN8wa9fn62CP7iQ5rxRikMAOPZYgcBxf9RpH2vJIVK0TEZga5CQEo2lXz11SEw8BoX25s3f3U3IN65We9CedaLqqyQRLCfIqI+Eq2pGxGQEeAC3P8Z5f4hncTxlPUdzAWQAbbnjQC3gwGfTXjiaSF8iQpQGbERoBurgPNkBIyAETACRqAICEQPAGTv7yoxyB0Do9FZmJMmqBQGgDVpFJRMH7kTmWUvb+Q8FZ0mIPWrRmDpCEiJh7F3ZP615l6H8QX4/MZ0n4r82xkeAHq11aT6Fg0A1L9oAFjoKwWtToDDay8Cp6Y1AQ7h04Dw1wlo/puxAMgIMNnjjW99OsDJrAPwJZXKCH2S1wRoD3/S/qip03TIMm1pBlV7MHIsRsAIGAEj0DUI9KUO5ELlqD71t9nclWL+4gHJ1QEh9AlphFTu0SYj0FUIwNPItlGj748fZm8gdw9L71AvbuPlCeqIXLVrbC2vIoSp9QlEe+pvBKVnFOMcm26ZuhABGQE09WptCN+7MoST0bi+gQVgGcaAKRisl6dhDerzmCzWcYqMAHhKnKY1AcbARPWiC1mhKFmqrcQjEB7sL0ujQz2JFovN7MuS5qIUttNhBIyAEehlBOg/qnzvr4+pmLcid31HWJzfAvd/hVN4AwAdpuZZTmt0heODPPSvYjN1KQKVJCAOMrquKQD68t68dHPSyVHMbkMovp2GYo2GxfKi5GWwF63QDkcxC+BcDA2jeUXmcAuBAMr/hNrfg0O4GMvzqXRCX2M+2gB8JlbjsCdJdXXwjswIcCr4fBEDwBlS/sdsBGg5QyADyKgpgaWCIPRxtm9xvhPXC21sIY36VjMzaMIDSOsrMNDugBFVWeHUZASMgBEwAkZgbgToL6b5QlMfAw7fOJqpvnQe0onTWNzc7zVyp/AGgE2ZkWICxeMAOs99ET5FHJqMQNchUJFGRQXfBWV+bw5/sVAOb7l3UEnGgtupGGsWemep9yWxJmn7QUi1e3B6w7gF2aXCWar3NLqdPAG+uRFFFz69gM5jEH7oaSMAhTiU1gQ4HVw+f1gITx6xEaDlvC2NWSSBBVng04eG8Nl4oSR/l4awG2n/C9pnGwBKUmZOphEwAkag0wggd8cFuNl/OqVFonhLSP1pKYiEHsJK1P1/zCwfLQOgFJl3InsFgT4E3SpD/324iz6gkUyfmSyBGo1nFPI2DTdBdXk5O2vdf5yHhBC7E9veBHtD64J2SEVHAE+AuhHgyyi7T8EE/Tn4bRCFrKenA9AZyRNgkukAT6IOfhZjyZ+MgAnHgzKcFL1cy5Y+GjctBSRfyB2OxANjvKBGyFtohzEIDe4Vwh8x6O5KPaHZzBKbVwOt8E1GwAgYASNQfgToJ6bQewfQB26iD7lQOVrfQvm+6AaASt3FGSCOlK8prn9VBK6ip7v8nOccdAoBLbQnF5+VjSSA5+QaW3cJ+hXnefqXyu15CnekAaYo7ENU32gkjX6maxCoYQSI0wFQbD9/WQjPYKXKT8ETAyg30/Besj91TX4bygj5V7UbkBGAtTueUjcCSPkf4/oIdaahgPxQQwiAd3R/BGvxHKxXXIIXotJPxZgm0STdZASMgBEwAkZgYQTo36p86UufXvrkgQzwnYeMtS71fwu/vfATsXNa+LHOPEFm+yQ8SYii5zzYUlRnysGxtg8BSYhUem0N183xe5/9uV7i3bwETSVNBjhJ4I9kF4azxkiXTD2CgBRbGGzg8BDOQ/v6MyzT0vyl/PdyE62FaWUE0MKAT8FD4tNihxEwAaueNIwo/3kQbVxe7VseyY1h3pNbyA7YCBgBI2AEug0BOrlpBAdNMZzEjfCjyt/qTD1oWf/XsJLRCXBTZvU9tPuT0H0kXVrT6ERJOM42ISAlIlZu9nsqTrmRLhQ3k/5jPeadG9kWfmGhABe4rwQRD4PBcV9dMIELhOfbpUQgLszKJwI/gnLzovjNShRgctKzRgDqgarfoDpsjABPY/R3g0qWi9NjGTY6NRkBI2AEjIARMAJGYE4EkBs0HVj06ceFcDXyRd9wiz3eCm0AIOOREC4PYZRpF9wgaoBSijTX0+69EVgkAnG1a0bYH6X3cPeZTorFgsHw3C804TjnOlJfqHAfFBy8cOOcJKI09RICFHjt/KTYsiDb+7aE8H9SZ6XR7kK7ZedcTqoL9ekAT6eO4MiWeQLYCJAz8g7eCBgBI2AEjED5EZCuq6+Bid6uv03IFZK7dNwqKrQyPZwyK3djzYOA5E5Z6DRnyfS/EVgyAvUKvkujIdycueHr8Z/re1M0EnnWkX65sxLHQ4nkQYr0XP2Zeg6BUfhuGGUfDbefxc7eiRHglasia0T+o9nuWaJ6bDUCnMmnEz8hJEbov8bsCdCzTOGMGwEjYASMgBFYCAGUgGlkKdHHmXJ5Kef9uNymj+BlN1rxn6ei0FT6yLDcoeNIEok8RtIk570sVDaFp18uHQINL3R5UaoXLJJ5A7n8Q6rUVKFcqI9KOM1o7wD7/RUDfs5UTVMvIkDB186E/2C2Pjqqf8Fi/ToWiRQ/aOvl9lr5r3sCPHMjHbn4Y8RrAggGkxEwAkbACBgBI7AdAggOWghcK//fw/G5291u6WlhDQDrk1KBC+UKhMv9NbFUQmZLc+/AjEDxEOhLbvz3h/cbcrGnhaBqMPGYVUJpMH6hr2VwIU/la1pxUBkPVrz1tTp0bOo9BOC5Gu11bJ/xBHgjRoA3yAgAD4ov8+TDooMNNGEgrQnwp9TnuJAPF70mQNFLzukzAkbACBgBI9BmBBCa9KUtCU5vZnrlT8aQISQz5JGMwirU596b231I5MNxL9WQkldTvhcXH3UnAtHFnqztSUPwEGVxRl2YNcfUC60bUGEEVquz3yDlHOKw9URckRQ4DdRBOrmot5W8iEev/43CA/IESXz4+j+E8M9Yr9ReywCQCy+WBHNVmbonwLMxAnxI6R7xdICSFJ+TaQSMgBEwAkagLQhMrMxW/r8aweFNinE4J+VfYRfWAEDaJDjp70DN/0eC1GJoRU6vkmsyAs0iUJHGxKKX/fA+u8Zc7MeTcYx3btA77HP58lTS5AYUOMePHgth+ShKHsdEaeplBNbRRmMEiG00ngCvxgjwDowAmsqSi/W6RFirbsgTYAo8/gwjwH8p7SOeDiAYTEbACBgBI2AEeh2BaQSFIa3jBf2lBvSQFQa5lsTu7EYr/wurULNwUkwbOT9cn5gChCk2kxHoBQSqGjqF93ddbGYxHvx0J15aHsLKVF80e0YKWCsbkfglAMJ/CK5KexK21gEobFui9Jnag4CMADBa5AU6sJfdwRcC+CSejABpFld70lHAWLSmTT946BOBz6Fj/6DSyLW4iGIB0+skGQEjYASMgBEwAjkjgBwgL96aZHdk+NcjO31byr+MAHlGXVihnbkPEhilteyfEOjj2GQEuh0B2oJQn2N/uDLbyBz74UzJV2vx4ZtCOOePNCC8WkVBH8AYIG8Chas6JUOanAyaIXkpVPHM0WyDRyugtckDoZlA/W53ICD+oq2O07XowF50GzyZPAHUlPdyM646GNcEAI/n0sG/XyWejCYRL52bjIARMAJGwAgYgd5AAKFoUjISAwTnIzO9QblGB87dc7KQBgDA0GhJDQFpBftDUGZEFpAyHPzfxQhIQ4DqHgB7ZKcL/6u+qN4cFcKtWA3eTiPyeLT9Q7QgG/XnGlX0ZAwY0HOc6pMi0ciW4lw4km2fqEr7J6yDdBm3JQ5NRiBDAJ7autAd0wGeg/v7p+jgNKVlUrzawzipuqmj13SA59PHvU9YzMSrh7Fx1o2AETACRsAI9AQCEgagCb6qNYSs/mME8mfrAgKSBu2aHahTUPNSIQ0AdXdi/Eb3IvW7JDNIwmre/PimESg9AjMYnXahceK9aAQYQ8HgrcoRIVyFIeD117NaP3XoOOZkvwtF/QZG7itSxtDG9NwUjc2iR2Z5p5Lq5SFKYbJWzki6rpp6GYEReCvxYsAI8EyU3s+K7+CdaHjqYWxUTzQdQEaAF2AEeK+wEF7n2dDdw2zhrBsBI2AEjECvIIAsNIGH7tCWEG5H2z/jcXzGm2u5rfq/Pa6FNACsyhQTaSWHMGo5CDASGK1cbF96Pu86BKj80fqXvF4O5rxPigGXG+J/Hqql52UM6EehGJKLMYaAMZSwv0LjP+SuEJ6GMeCjuAD8Tl4BqmM0BApf8UivT8ngaA7i4UpK1P5fzdYbqBJXIduTObLgy21AQLw4ltpzePCpeAJ8mTnwch6RB0ovk+pbP3hMgccLN4bwHoGhumojQC+zhfNuBIyAETACPYDAJINwQ8j6EwgDpyCf/4jBAC36J9G6LVRIgX1Ncn0AiP0kJZmMQC8hAM/3JeX6oRejXCvv0sgXS4QzjUIxwbt919LQSBE7GEvj4SF8hhH7szGsPRq3o+eyXYDW/0cZA/AO6E/GAC3mpmTw2H1J9VJuA9DDWKlwfx14HQChYNoegRH4CF6St0nACHAGSu835QnAaS5fqtg+/gKfx4UBkxHgxXT+71JabQQocIk5aUbACBgBI2AEmkNggsXtBxkFmUDePhF5/BLJ6MhHSaxuLvBG3y6cAQBBsXJ+NgqpPByTTCHSN0xGoCcQUB2Q1s1+GYrSCmV6fTZCv6T8U3mqKOcTw9QrwuwfQxlTHBgCfkOD8yG203jmURgCXrklhO8Sd1w8kIjliqQ2QqO12zRMep9NCwFKscOuYDICcyMAH00l6/Y0PHMK7u/fZsVbfeCl540AYCBPgGnweCmeAO8UijICUL+87o3AMBkBI2AEjIAR6A4E7kEGGkKo3oxcdAJzaC+SbCQZvd3ZK5wBYD2KxWg26gg2YXeEIJMR6DUENL++xhDpjmhH6OchnN4CZYAKVWObHkkuRqMo92Mo8NoTyU/Z/gU3pKN45nCMAW9mvYC4eCAuykPMU5Lbtr5TqkZK1TIaAKT9c43XQriZessNTk1G4L4IwF/xu7apozuJaSiXJSNA2zu++6auo1fkCdCHUWSauvaXCAP/ptRwzdMBOlosjtwIGAEjYASMQEsQkNw8IZkH2fqXDG4fw8j/t6T8SzZqSQyLDCS6ZS7ynVwfPyAbUZy4LAQOw34aHkIQkrJhMgI9gwD8rpHSAfj//so0ynVLjXXUKVUpbdHF/zwMDChm2iZolC7n+uUX4HhA5EczOvk0zk9fEcJDaTD68RJQayVjwBSGCnkJHMilmYuYaR0BkxG4DwJ1IwD7LXR8J2IEuIipJwdhcJIRQNMCepUqVPAKRgAtDPh/wKYKRuckT4A+6tisU3F6FSzn2wgYASNgBIxAGRCQPE8fHjSYRh//XWT7pyJr/0Zu/2lApCPZaKlS0YocrIr6fvzbmSHH5ckVWtiZjEDPICCGl3aOD/CDlOk1OSsAUjTUEBFnRY2SrJKn4p6NMeCbKCJ/SRIORPH/ExS1T2G5vAOlrR+vgOVKI9t+V4TwQKVzdaq/OjYZgdkQmGEEoC8MJ2wOYRPtfs+vCUA9Un/ch8FN0wFevjGEfxV+Uv5loNOxyQgYASNgBIyAESg+Auq7SaUW++tnAE1T/d6Ny/8xyNodV/6FXuEMAHVFB+COkM8x5JGPDAf/9xACUsQ1jA7zH6Nsn49SoGt5Q0AENRkCpKRJ6RhjhF+KCed3sH0Og8AzScMjN7NyOauXfhWjwB93Re/nmSOUNgwDuacxbwwcfv4IiL9kaGL/O/j8ePjppytxjYN5en1NgD55AuAZMY0nwDkY4t6m0pCBzkaA/PnSMRgBI2AEjIARaAECGlALGPMH8Zi99a4QnoW881JkHE2VHZCc3YI4mgqicAaAGbnZVwYAgJIBwErFDGB82P0IiOHVeEB4DYVw7tZTnbWHpHSMZOsF1EYxApAefVawn0bs12zvZzsZ5e3A20J4K/fidKLzeac9qXMsZUdAHaCMAIdjDaeRH6GD/DmucVoYcLKXG3zqklz+oxEA4eGvmY/zVpU19VGCQ5H77LKzpNNvBIyAETACRqAZBKSzTmihP7Y+vGY/g9fsQYeF8AnJ0Kl/51LnqVBrAIwCFkoFxpJID7EmkZDwrhcRqKSKsOf3mQaAQvDLsUzJbnvDQdy0WUFGgEhqwDaRlgMyRe3HXHyNbnBdi5mp8TMZgYYQkBEAo5KMADcx2n3cFr4OsCKEPdjLCDAoxutFUh1TXZInAEaAV2EEqOF98xrVxfq9XsTFeTYCRsAIGAEjUDAEJKqob67i7j+AN6Pm+v+Y89ei025QWjXYQf/d8VH/mbgVajThWIQeJQ5BEO/HcGDbNZ2ZyPjYCHQWgYr4n4m/a2hE4vz6u+NpZxOl2KWYSHHTMXV1UFu6TlJNRmBxCKyDl9Q50lH+FN6SEeD3WM6l/Beqs1xcrpp/mvyrP4yeAEyteTX17M0p1GgEaD4Gh2AEjIARMAJGwAgsEQENeGmsrooQ3IfiOsDJ75nr/3e/4/PYUv7pxyuSkesy8xLjyeW1QhkA6jkkUVoQaoW1iToi3vciAvB/TZo1Lcz+yv/DOC8SDhqNlMeONhLGqckILA0BdY4X4P7PKPd1MgJg7LqduQDqB3raCED+60aAKkaAv8ET4A2qd1yv4TnhhQGXxm5+ywgYASNgBIzAUhHQ+Jxkkz48FgdX0Rej+P+GUf830mE/Epn4zSeFcJcU//XIxpKRlxpRnu8VagpAPaO4/q8FxN2FLsKOBCCTEeg1BGD9MCV3IhbbY/pQ+BhKUaEMADMLJCklMy/52AgsCoFTWQBQngAYA66+NIQnshrgOEaAlezVeUYvk0UF2D0Pqw+sMpdQRoDXIlTUqG+vpzGIawJw7Gk33VPWzokRMAJGoGEEJHt5AKZhuJp5ULPStRi3voA1wBaQyQMei1ex+wjbhxDUf8c+jHF/mGcpm0Iq/kqjqKjK9d4IOtJ2ZGUBQ5MR6EkE1LCrAuyh3J+fNT6uDwVlBQpGxWVqAgF5AsgIcASzSxjePgnlfwIjmJT/QnekTWS50VdjX52MAK/DCLA+8VttdAn9uHm1Udhb91y9cajvWxdyPiG1M53tjKuVaOWZbip8nsG3EgaH1QACebW5ZpIGwG/sEUFZ32RU1yYdVJtWJ+7HxX9oFXsG5X6Lm/8HkU9O49ZhjPD/C9vv6Jc1dbFvhHfyKm+lpVVUSA8AgOsT8gBZB7GiUuG6yQh0PQIzeH2KhkYNykE0LCtoYLYci2URAGKD1PVAlCeDNZmGKSdZfEVlaKrEZkq3FqYp1Ahy3QjA/mJc3k/BE+xrWAD0KR362951e6fAtMjmNEaAgNvh32/EOML5G1WO6Z7KdCHayqvpwTLwqpIa8wa/yhjUSD5T9gq1m1Y7Aan9LurgS0yg/mCMKdIb+xtGu3LBXPwsTBQXEYi/c4lna6ZaeJDSO0Vh6vOlqWhbFwHhV+v8UjZsWodC94REGU7DK4Ot4JU6b6R608/etEQEUt1SGyQ9U5/hlZBRUcPHXovxhs1sCB8/RR7/H86/zPXxQ0K4hcuRNGhxM/UVGb1UAxWFMQCoEECy3ogex7fFJZUuV29vMgK9iACVIboZMa/oETQ8DwaD/8UzRvXEVAAEhlMaKJDlu3Gs9qowDWoD+Ejrl6fVr6M+GQIL7xWGt2YYAb6JonsGveoFfA9zWSk0pwawX+ojFFC/OkkV1INYDwADye6HhvAKzhsyAvDu0GrexW0xdq2FKfAGAEFGkOEj/IZ61sDjhXoE3PsBfLddSBW8LKNb4Un9j/BGyt2deofMG9uLliadMt1Fsh59XGw7VcZlIQGBUrBSbT/1ieaptUT4q4QN+9Jh01okuiM06tCAmORX8Hw9RxuW2OfCEyvFG4xCL4sVsx6g94tGQG2ONvWrkomo0zKS30w7/UtOfwDWl3F+2V0h/P/t3U+LFEcYB+BeN+JB8HOInr3PXsWTYD6Pnv0GuXj37FFwvHnyoCieFkkkkRAiSCIIms3v7ZnW7LKYkZnZrVqegqF7/mzPW0+9VdVT06PP94Yhp+KLkr/ZmWdczPh4cHXx7wFMT3Wzbep8NdDj+F/gPy/aIvPCuGI2Pt6NqkAJbEbgIN/2pTsM59NRx5Pe/UW/2MzRHWVdgZovauJ4mvHqXnbf54HdWkGuJ2rbYhmDTmA13mZSq7x6UnFmFbvmwGbKlXxWepSTpmtZcX86DNdzsnMzwX3IZDDStuq7TcApr2JQ/0VgnftdytVBl/PNw6ucTBbJsW34cjm35gWv3w7DT2n7upqicmBnOmbdb7FUfJWrFVvqfCE7z2o/+XFsXeu5Vsr+crzO+P0u9bj7Zz7UJba6srFZ9ykfKscyPtRixfvEn6loGLLYtFHzHPtePhDl/Hn4kP3xys/W+3X5VKk4s//pTfpgdsecrMfXLfvLnMmxH/6SNa+4/NWLzbp1P4t/X/myzOnPWSi6mLZ8kds4nt1atvWq9Z5yI6+f59NpLST8nQONh2+936xax22+bmqLaRu7umrzY7Y1vv2R7a+5/ya33zKn5ruRw+V+5ty02XBn0X4He+n/h1/h3roCsVcIEDgqkMFJ3ziKcsr3z0qbtFyPmnRPuZmbf/tV2m+V1zRf0WWAPdWlp1i/1f5npR7fqmMrz7FupSXai0NunFybxHr3RRZBH+WLiLPonoXd5sr43xtllaUur1AIEIjAbLFSmTFIaUkgKzIHt7MCfyMTRZaQu2uf+klJfauXetSieJPlx8RXE3DFWsazRDlvMtKTCWqWt5nnNnnsLb5R/t/cq1zNi3bys4EfeszVVHms84PG87Xi/G8p99zfSQ7vzrIzz62X8r059r31Csxu8vFcj/16lsrOcyujjKH/pJ03dnXEsq+ei804r0zvlbdTOhbYRK4czY2OOU499FkiSB8L6aJMP4P8Pf358dc+vbF+Pb1PK9svFW8loCmOOlFpNrgpSFsCJyAwnj12+OHyBGhaeosarpZN1VJYK8VScfdQTAmHW2ml3/0f/pPxXu+OveTrMfRfTzaPe7LRx7bt3XM+TmP+tox6tmk0nU8trE3nitxYvym31W/Xj8wRCBAgQIAAAQIECBAgQIAAAQIECBAgQIAAAQIECBAgQIAAAQIECBAgQIAAAQIECBAgQIAAAQIECBAgQIAAAQIECBAgQIAAAQIECBAgQIAAAQIECBAgQIAAAQIECBAgQIAAAQIECBAgQIAAAQIECBAgQIAAAQIECBAgQIAAAQIECBAgQIAAAQIECBAgQIAAAQIECBAgQIAAAQIECBAgQIAAAQIECBAgQIAAAQIECBAgQIAAAQIECBAgQIAAAQIECBAgQIAAAQIECBAgQIAAAQIECBAgQIAAAQIECBAgQIAAAQIECBAgQIAAAQIECBAgQIAAAQIECBAgQIAAAQIECBAgQIAAAQIECBAgQIBAmwL/AqZGEBMR5yHEAAAAAElFTkSuQmCC;" vertex="1" parent="1">
          <mxGeometry x="-39.00000000000004" y="296" width="207.58" height="78.25" as="geometry" />
        </mxCell>
        <mxCell id="DUqSxo15HwOK_H77OK0R-29" value="&lt;font style=&quot;font-size: 14px;&quot;&gt;&lt;b style=&quot;font-size: 14px;&quot;&gt;Rails&lt;/b&gt; app deployed as&lt;br style=&quot;font-size: 14px;&quot;&gt;a Rack HTTP service and &lt;br style=&quot;font-size: 14px;&quot;&gt;Sidekiq background worker&lt;br style=&quot;font-size: 14px;&quot;&gt;&lt;/font&gt;" style="text;html=1;strokeColor=none;fillColor=none;align=center;verticalAlign=middle;whiteSpace=wrap;rounded=0;fontColor=#000000;fontFamily=Verdana;fontStyle=0;fontSize=14;" vertex="1" parent="1">
          <mxGeometry x="-30.710000000000008" y="399" width="191" height="30" as="geometry" />
        </mxCell>
        <mxCell id="DUqSxo15HwOK_H77OK0R-30" value="&lt;font style=&quot;font-size: 12px;&quot;&gt;scraps /metrics&lt;br style=&quot;font-size: 12px;&quot;&gt;&lt;/font&gt;" style="text;html=1;strokeColor=none;fillColor=none;align=center;verticalAlign=middle;whiteSpace=wrap;rounded=0;fontColor=#1A1A1A;fontFamily=Verdana;fontSize=12;fontStyle=2" vertex="1" parent="1">
          <mxGeometry x="435.87" y="160.92000000000002" width="180" height="30" as="geometry" />
        </mxCell>
        <mxCell id="DUqSxo15HwOK_H77OK0R-31" value="&lt;font style=&quot;font-size: 12px;&quot;&gt;sends observations as&lt;br style=&quot;font-size: 12px;&quot;&gt;UDP packets for aggregation&lt;br style=&quot;font-size: 12px;&quot;&gt;&lt;br style=&quot;font-size: 12px;&quot;&gt;&lt;/font&gt;" style="text;html=1;strokeColor=none;fillColor=none;align=center;verticalAlign=middle;whiteSpace=wrap;rounded=0;fontColor=#1A1A1A;fontFamily=Verdana;fontSize=12;fontStyle=2" vertex="1" parent="1">
          <mxGeometry x="168.58" y="160.92000000000002" width="191" height="30" as="geometry" />
        </mxCell>
        <mxCell id="DUqSxo15HwOK_H77OK0R-33" value="" style="endArrow=classic;html=1;rounded=0;entryX=0;entryY=0.5;entryDx=0;entryDy=0;entryPerimeter=0;strokeWidth=2;strokeColor=#4D4D4D;" edge="1" parent="1" target="DUqSxo15HwOK_H77OK0R-67">
          <mxGeometry width="50" height="50" relative="1" as="geometry">
            <mxPoint x="170" y="350" as="sourcePoint" />
            <mxPoint x="500" y="370" as="targetPoint" />
          </mxGeometry>
        </mxCell>
        <mxCell id="DUqSxo15HwOK_H77OK0R-34" value="&lt;font style=&quot;font-size: 12px;&quot;&gt;sends traces&lt;br style=&quot;font-size: 12px;&quot;&gt;&lt;/font&gt;" style="text;html=1;strokeColor=none;fillColor=none;align=center;verticalAlign=middle;whiteSpace=wrap;rounded=0;fontColor=#1A1A1A;fontFamily=Verdana;fontSize=12;strokeWidth=2;fontStyle=2" vertex="1" parent="1">
          <mxGeometry x="90.00000000000001" y="320.13" width="430" height="30" as="geometry" />
        </mxCell>
        <mxCell id="DUqSxo15HwOK_H77OK0R-36" value="" style="shape=cylinder3;whiteSpace=wrap;html=1;boundedLbl=1;backgroundOutline=1;size=15;fillColor=#FFFFFF;strokeColor=#B3B3B3;strokeWidth=3;fontColor=#B3B3B3;" vertex="1" parent="1">
          <mxGeometry x="600.16" y="150" width="60" height="80" as="geometry" />
        </mxCell>
        <mxCell id="DUqSxo15HwOK_H77OK0R-37" value="Prometheus" style="text;html=1;strokeColor=none;fillColor=none;align=center;verticalAlign=middle;whiteSpace=wrap;rounded=0;fontColor=#000000;fontFamily=Verdana;fontStyle=1;fontSize=14;" vertex="1" parent="1">
          <mxGeometry x="600" y="229.99999999999997" width="60" height="30" as="geometry" />
        </mxCell>
        <mxCell id="DUqSxo15HwOK_H77OK0R-38" value="" style="shape=cylinder3;whiteSpace=wrap;html=1;boundedLbl=1;backgroundOutline=1;size=15;fillColor=#FFFFFF;strokeColor=#B3B3B3;strokeWidth=3;fontColor=#B3B3B3;" vertex="1" parent="1">
          <mxGeometry x="600" y="310" width="60" height="80" as="geometry" />
        </mxCell>
        <mxCell id="DUqSxo15HwOK_H77OK0R-39" value="Grafana Tempo" style="text;html=1;strokeColor=none;fillColor=none;align=center;verticalAlign=middle;whiteSpace=wrap;rounded=0;fontColor=#000000;fontFamily=Verdana;fontStyle=1;fontSize=14;" vertex="1" parent="1">
          <mxGeometry x="580" y="399" width="100" height="30" as="geometry" />
        </mxCell>
        <mxCell id="DUqSxo15HwOK_H77OK0R-40" value="" style="shape=cylinder3;whiteSpace=wrap;html=1;boundedLbl=1;backgroundOutline=1;size=15;fillColor=#FFFFFF;strokeColor=#B3B3B3;strokeWidth=3;fontColor=#B3B3B3;" vertex="1" parent="1">
          <mxGeometry x="600" y="470" width="60" height="80" as="geometry" />
        </mxCell>
        <mxCell id="DUqSxo15HwOK_H77OK0R-41" value="Grafana Loki" style="text;html=1;strokeColor=none;fillColor=none;align=center;verticalAlign=middle;whiteSpace=wrap;rounded=0;fontColor=#000000;fontFamily=Verdana;fontStyle=1;fontSize=14;" vertex="1" parent="1">
          <mxGeometry x="600.16" y="560" width="60" height="30" as="geometry" />
        </mxCell>
        <mxCell id="DUqSxo15HwOK_H77OK0R-43" value="" style="strokeWidth=3;html=1;shape=mxgraph.flowchart.direct_data;whiteSpace=wrap;strokeColor=#B3B3B3;" vertex="1" parent="1">
          <mxGeometry x="355.87" y="160.92" width="98.47" height="59.08" as="geometry" />
        </mxCell>
        <mxCell id="DUqSxo15HwOK_H77OK0R-44" value="" style="strokeWidth=3;html=1;shape=mxgraph.flowchart.direct_data;whiteSpace=wrap;strokeColor=#B3B3B3;" vertex="1" parent="1">
          <mxGeometry x="355.87" y="480" width="100" height="60" as="geometry" />
        </mxCell>
        <mxCell id="DUqSxo15HwOK_H77OK0R-11" value="" style="shape=image;verticalLabelPosition=bottom;labelBackgroundColor=default;verticalAlign=top;aspect=fixed;imageAspect=0;image=https://upload.wikimedia.org/wikipedia/commons/thumb/3/38/Prometheus_software_logo.svg/2066px-Prometheus_software_logo.svg.png;" vertex="1" parent="1">
          <mxGeometry x="614.44" y="190.25" width="30" height="29.75" as="geometry" />
        </mxCell>
        <mxCell id="DUqSxo15HwOK_H77OK0R-32" value="" style="shape=image;verticalLabelPosition=bottom;labelBackgroundColor=default;verticalAlign=top;aspect=fixed;imageAspect=0;image=https://grafana.com/static/assets/img/logos/grafana-tempo.svg;" vertex="1" parent="1">
          <mxGeometry x="612.06" y="350.13" width="35.87" height="29.24" as="geometry" />
        </mxCell>
        <mxCell id="DUqSxo15HwOK_H77OK0R-35" value="" style="shape=image;verticalLabelPosition=bottom;labelBackgroundColor=default;verticalAlign=top;aspect=fixed;imageAspect=0;image=https://grafana.com/static/img/logos/logo-loki.svg;" vertex="1" parent="1">
          <mxGeometry x="615.87" y="506.66999999999996" width="28.57" height="33.33" as="geometry" />
        </mxCell>
        <mxCell id="DUqSxo15HwOK_H77OK0R-47" value="" style="edgeStyle=elbowEdgeStyle;elbow=horizontal;endArrow=classic;html=1;curved=0;rounded=1;entryX=1;entryY=0.5;entryDx=0;entryDy=0;strokeColor=#4D4D4D;jumpSize=19;strokeWidth=2;targetPerimeterSpacing=1;entryPerimeter=0;" edge="1" parent="1" target="DUqSxo15HwOK_H77OK0R-36">
          <mxGeometry width="50" height="50" relative="1" as="geometry">
            <mxPoint x="830" y="350" as="sourcePoint" />
            <mxPoint x="365.87" y="200.92000000000002" as="targetPoint" />
            <Array as="points">
              <mxPoint x="760" y="270" />
            </Array>
          </mxGeometry>
        </mxCell>
        <mxCell id="DUqSxo15HwOK_H77OK0R-48" value="" style="edgeStyle=elbowEdgeStyle;elbow=horizontal;endArrow=classic;html=1;curved=0;rounded=1;entryX=1;entryY=0.5;entryDx=0;entryDy=0;strokeColor=#4D4D4D;jumpSize=19;strokeWidth=2;targetPerimeterSpacing=1;entryPerimeter=0;" edge="1" parent="1" target="DUqSxo15HwOK_H77OK0R-40">
          <mxGeometry width="50" height="50" relative="1" as="geometry">
            <mxPoint x="840" y="350" as="sourcePoint" />
            <mxPoint x="666" y="200" as="targetPoint" />
            <Array as="points">
              <mxPoint x="760" y="430" />
            </Array>
          </mxGeometry>
        </mxCell>
        <mxCell id="DUqSxo15HwOK_H77OK0R-49" value="" style="endArrow=classic;html=1;rounded=0;strokeColor=#4D4D4D;entryX=1;entryY=0.5;entryDx=0;entryDy=0;entryPerimeter=0;strokeWidth=2;" edge="1" parent="1" target="DUqSxo15HwOK_H77OK0R-38">
          <mxGeometry width="50" height="50" relative="1" as="geometry">
            <mxPoint x="840" y="350" as="sourcePoint" />
            <mxPoint x="464" y="200" as="targetPoint" />
          </mxGeometry>
        </mxCell>
        <mxCell id="DUqSxo15HwOK_H77OK0R-50" value="" style="shape=waypoint;sketch=0;fillStyle=solid;size=6;pointerEvents=1;points=[];fillColor=none;resizable=0;rotatable=0;perimeter=centerPerimeter;snapToPoint=1;" vertex="1" parent="1">
          <mxGeometry x="250" y="500" width="20" height="20" as="geometry" />
        </mxCell>
        <mxCell id="DUqSxo15HwOK_H77OK0R-51" value="" style="edgeStyle=elbowEdgeStyle;elbow=horizontal;endArrow=classic;html=1;curved=0;rounded=1;entryX=0.483;entryY=0.267;entryDx=0;entryDy=0;strokeColor=#4D4D4D;jumpSize=19;strokeWidth=2;targetPerimeterSpacing=1;entryPerimeter=0;" edge="1" parent="1" target="DUqSxo15HwOK_H77OK0R-50">
          <mxGeometry width="50" height="50" relative="1" as="geometry">
            <mxPoint x="170" y="350" as="sourcePoint" />
            <mxPoint x="365.87" y="200.92000000000002" as="targetPoint" />
            <Array as="points">
              <mxPoint x="260" y="350" />
            </Array>
          </mxGeometry>
        </mxCell>
        <mxCell id="DUqSxo15HwOK_H77OK0R-52" value="&lt;font style=&quot;font-size: 12px;&quot;&gt;writes logs &lt;br style=&quot;font-size: 12px;&quot;&gt;to the STDOUT&lt;br style=&quot;font-size: 12px;&quot;&gt;&lt;/font&gt;" style="text;html=1;strokeColor=none;fillColor=none;align=center;verticalAlign=middle;whiteSpace=wrap;rounded=0;fontColor=#1A1A1A;fontFamily=Verdana;fontSize=12;fontStyle=2" vertex="1" parent="1">
          <mxGeometry x="110" y="429" width="191" height="30" as="geometry" />
        </mxCell>
        <mxCell id="DUqSxo15HwOK_H77OK0R-53" value="&lt;font style=&quot;font-size: 12px;&quot;&gt;scraps logs&lt;br style=&quot;font-size: 12px;&quot;&gt;&lt;/font&gt;" style="text;html=1;strokeColor=none;fillColor=none;align=center;verticalAlign=middle;whiteSpace=wrap;rounded=0;fontColor=#1A1A1A;fontFamily=Verdana;fontSize=12;fontStyle=2" vertex="1" parent="1">
          <mxGeometry x="220" y="480" width="191" height="30" as="geometry" />
        </mxCell>
        <mxCell id="DUqSxo15HwOK_H77OK0R-54" value="" style="endArrow=classic;html=1;rounded=0;strokeColor=#4D4D4D;entryX=0.783;entryY=0.567;entryDx=0;entryDy=0;entryPerimeter=0;strokeWidth=2;exitX=0;exitY=0.5;exitDx=0;exitDy=0;exitPerimeter=0;" edge="1" parent="1" source="DUqSxo15HwOK_H77OK0R-44" target="DUqSxo15HwOK_H77OK0R-50">
          <mxGeometry width="50" height="50" relative="1" as="geometry">
            <mxPoint x="850" y="360" as="sourcePoint" />
            <mxPoint x="670" y="360" as="targetPoint" />
          </mxGeometry>
        </mxCell>
        <mxCell id="DUqSxo15HwOK_H77OK0R-55" value="" style="endArrow=classic;html=1;rounded=0;strokeColor=#4D4D4D;entryX=0;entryY=0.5;entryDx=0;entryDy=0;entryPerimeter=0;strokeWidth=2;exitX=1;exitY=0.5;exitDx=0;exitDy=0;exitPerimeter=0;" edge="1" parent="1" source="DUqSxo15HwOK_H77OK0R-44" target="DUqSxo15HwOK_H77OK0R-40">
          <mxGeometry width="50" height="50" relative="1" as="geometry">
            <mxPoint x="366" y="520" as="sourcePoint" />
            <mxPoint x="270" y="520" as="targetPoint" />
          </mxGeometry>
        </mxCell>
        <mxCell id="DUqSxo15HwOK_H77OK0R-56" value="&lt;font style=&quot;font-size: 12px;&quot;&gt;pushes logs&lt;br style=&quot;font-size: 12px;&quot;&gt;&lt;/font&gt;" style="text;html=1;strokeColor=none;fillColor=none;align=center;verticalAlign=middle;whiteSpace=wrap;rounded=0;fontColor=#1A1A1A;fontFamily=Verdana;fontSize=12;fontStyle=2" vertex="1" parent="1">
          <mxGeometry x="430" y="480" width="180" height="30" as="geometry" />
        </mxCell>
        <mxCell id="DUqSxo15HwOK_H77OK0R-59" value="" style="shape=image;verticalLabelPosition=bottom;labelBackgroundColor=default;verticalAlign=top;aspect=fixed;imageAspect=0;image=https://cdn.icon-icons.com/icons2/2699/PNG/512/grafana_logo_icon_171049.png;" vertex="1" parent="1">
          <mxGeometry x="840" y="296" width="212" height="106" as="geometry" />
        </mxCell>
        <mxCell id="DUqSxo15HwOK_H77OK0R-60" value="&lt;font style=&quot;font-size: 12px;&quot;&gt;metrics&lt;br style=&quot;font-size: 12px;&quot;&gt;&lt;/font&gt;" style="text;html=1;strokeColor=none;fillColor=none;align=center;verticalAlign=middle;whiteSpace=wrap;rounded=0;fontColor=#1A1A1A;fontFamily=Verdana;fontSize=12;fontStyle=2" vertex="1" parent="1">
          <mxGeometry x="630" y="160.92000000000002" width="180" height="30" as="geometry" />
        </mxCell>
        <mxCell id="DUqSxo15HwOK_H77OK0R-61" value="&lt;font style=&quot;font-size: 12px;&quot;&gt;traces&lt;br style=&quot;font-size: 12px;&quot;&gt;&lt;/font&gt;" style="text;html=1;strokeColor=none;fillColor=none;align=center;verticalAlign=middle;whiteSpace=wrap;rounded=0;fontColor=#1A1A1A;fontFamily=Verdana;fontSize=12;fontStyle=2" vertex="1" parent="1">
          <mxGeometry x="630" y="320.13" width="180" height="30" as="geometry" />
        </mxCell>
        <mxCell id="DUqSxo15HwOK_H77OK0R-62" value="&lt;font style=&quot;font-size: 12px;&quot;&gt;logs&lt;br style=&quot;font-size: 12px;&quot;&gt;&lt;/font&gt;" style="text;html=1;strokeColor=none;fillColor=none;align=center;verticalAlign=middle;whiteSpace=wrap;rounded=0;fontColor=#1A1A1A;fontFamily=Verdana;fontSize=12;fontStyle=2" vertex="1" parent="1">
          <mxGeometry x="630" y="480" width="180" height="30" as="geometry" />
        </mxCell>
        <mxCell id="DUqSxo15HwOK_H77OK0R-63" value="&lt;font style=&quot;font-size: 14px;&quot;&gt;&lt;b&gt;Grafana &lt;/b&gt;for alerting&lt;br&gt;and dashboards&lt;br style=&quot;font-size: 14px;&quot;&gt;&lt;/font&gt;" style="text;html=1;strokeColor=none;fillColor=none;align=center;verticalAlign=middle;whiteSpace=wrap;rounded=0;fontColor=#000000;fontFamily=Verdana;fontStyle=0;fontSize=14;" vertex="1" parent="1">
          <mxGeometry x="850.5" y="390" width="191" height="30" as="geometry" />
        </mxCell>
        <mxCell id="DUqSxo15HwOK_H77OK0R-66" value="&lt;font style=&quot;font-size: 14px;&quot;&gt;OTel Collector&lt;/font&gt;" style="text;html=1;strokeColor=none;fillColor=none;align=center;verticalAlign=middle;whiteSpace=wrap;rounded=0;fontColor=#000000;fontFamily=Verdana;fontStyle=1;fontSize=14;" vertex="1" parent="1">
          <mxGeometry x="340.87" y="390" width="130" height="30" as="geometry" />
        </mxCell>
        <mxCell id="DUqSxo15HwOK_H77OK0R-67" value="" style="strokeWidth=3;html=1;shape=mxgraph.flowchart.direct_data;whiteSpace=wrap;strokeColor=#B3B3B3;" vertex="1" parent="1">
          <mxGeometry x="355.87" y="320.46" width="98.47" height="59.08" as="geometry" />
        </mxCell>
        <mxCell id="DUqSxo15HwOK_H77OK0R-68" value="&lt;font style=&quot;font-size: 14px;&quot;&gt;Storage and&amp;nbsp;&lt;br&gt;query API&lt;br style=&quot;font-size: 14px;&quot;&gt;&lt;/font&gt;" style="text;html=1;strokeColor=none;fillColor=none;align=center;verticalAlign=middle;whiteSpace=wrap;rounded=0;fontColor=#000000;fontFamily=Verdana;fontStyle=0;fontSize=14;" vertex="1" parent="1">
          <mxGeometry x="510" y="90" width="250" height="30" as="geometry" />
        </mxCell>
        <mxCell id="DUqSxo15HwOK_H77OK0R-69" value="&lt;font style=&quot;font-size: 14px;&quot;&gt;Collectors / processors&lt;br style=&quot;font-size: 14px;&quot;&gt;&lt;/font&gt;" style="text;html=1;strokeColor=none;fillColor=none;align=center;verticalAlign=middle;whiteSpace=wrap;rounded=0;fontColor=#000000;fontFamily=Verdana;fontStyle=0;fontSize=14;" vertex="1" parent="1">
          <mxGeometry x="260" y="90" width="250" height="30" as="geometry" />
        </mxCell>
        <mxCell id="DUqSxo15HwOK_H77OK0R-70" value="" style="endArrow=classic;html=1;rounded=0;strokeColor=#4D4D4D;entryX=0;entryY=0.5;entryDx=0;entryDy=0;entryPerimeter=0;strokeWidth=2;exitX=1;exitY=0.5;exitDx=0;exitDy=0;exitPerimeter=0;" edge="1" parent="1">
          <mxGeometry width="50" height="50" relative="1" as="geometry">
            <mxPoint x="456" y="349.46000000000004" as="sourcePoint" />
            <mxPoint x="600" y="349.46000000000004" as="targetPoint" />
          </mxGeometry>
        </mxCell>
        <mxCell id="DUqSxo15HwOK_H77OK0R-71" value="&lt;font style=&quot;font-size: 12px;&quot;&gt;sends traces&lt;br style=&quot;font-size: 12px;&quot;&gt;&lt;/font&gt;" style="text;html=1;strokeColor=none;fillColor=none;align=center;verticalAlign=middle;whiteSpace=wrap;rounded=0;fontColor=#1A1A1A;fontFamily=Verdana;fontSize=12;fontStyle=2" vertex="1" parent="1">
          <mxGeometry x="430" y="319.46000000000004" width="180" height="30" as="geometry" />
        </mxCell>
      </root>
    </mxGraphModel>
  </diagram>
</mxfile>
